<svg xmlns="http://www.w3.org/2000/svg" xmlns:xlink="http://www.w3.org/1999/xlink" viewBox="0 0 1898 2147"><defs><style>.cls-1{clip-path:url(#clip-path);}.cls-2{stroke:#eb5533;stroke-width:0.75pt;}</style><clipPath id="clip-path"><rect id="Shape" x="148.5" y="402.5" width="1600" height="1201"/></clipPath></defs><title>Whangaehu</title><g id="Layer_2" data-name="Layer 2"><g id="Background"><g id="Whangaehu"><rect id="Shape-2" data-name="Shape" x="148.5" y="402.5" width="1600" height="1201"/><g class="cls-1"><g id="Patterns"><rect id="Background-2" data-name="Background" x="148.5" y="402.5" width="1600" height="1201"/><g id="Whangaehu-2" data-name="Whangaehu"><g id="Shape-3" data-name="Shape"><path class="cls-2" d="M696.34,776.59c-.11-28.24-43.19-60-61.58-76.37-36.39-32.39-74.22-62.3-111.71-92.68s-75.08-60.69-110.82-94c-23.21-21.66-50.49-46-66.23-77-33.53-65.89,72.2-56.11,99.58-57.55,69.68-3.68,149.59-2,214.9-36.31,39-20.49,54.53-54.84,46.15-104.91-2.7-16.28-10.68-35-3.92-50.88,7.23-16.95,23.85-26.72,37.65-33.28C790.69,129.73,848.55,127,901.8,124c57.42-3.29,115.38-2.33,172.39-2.59,24.18-.1,49.43-10.7,72.45-19.32,30.18-11.29,60-24,89.93-36.24,65.85-26.92,133.7-55.26,203.36-62.1,43.63-4.28,91.31,1.51,125.2,38.76,17,18.7,25.92,46.51,35.76,71.21,11.91,29.84,23.35,60,36,89.34,40.85,94.59,99.15,187,193.8,191.68,14.31.7,28.38-1.58,42.63-2,9.07-.27,17.15,2.41,20.52,14,8.48,29.06-18.18,74.95-29.11,98-23.93,50.48-50.92,98.7-76.2,148.16-16.73,32.72-45.68,77.43-46,117.18-.27,35.41,38.32,61,59.33,78.45,19.69,16.34,55.36,39.19,57.52,72.42,1,16.11-7.65,29.46-16.74,39.82-15.93,18.12-34.29,30.9-48.62,51.58-23.5,33.91-43.13,80.58-39.94,126.28,2.21,31.67,17,52.41,35.85,72.24,7.91,8.33,14.34,14.23,14.75,27.76.68,21.49-6.22,44.23-11.9,64.16-20.32,71.3-49.19,140.24-81.29,204.62-16,32.17-33.38,64.24-54.66,91.69-13.93,18-32.72,39.46-54,39.44-24.61,0-50.65-10.84-74.57-18.94-44.67-15.15-88.8-32.66-132.76-50.62q-152.49-62.34-302.11-134.78c-70.26-34.08-142-68.2-208.06-113.5a239.18,239.18,0,0,1-36.31-31c-12.05-12.29-27-17.8-42.15-21.9-94.05-25.46-197.1-5.91-291.54,6.34-24,3.11-47.95,6.23-72,8.41-20.67,1.86-45.41,7.23-65.49-.83-39.58-15.85-5-74.29,9.65-98.1,51.5-83.84,117.94-154.77,179.53-227.18,29.28-34.49,58.79-68.89,86.48-105.32C668,832.15,696.43,801.35,696.34,776.59Z"/><path class="cls-2" d="M714.08,771.83c-15.78-29.88-43.48-52-66.47-72.76-33.08-29.93-67.2-58.19-100.82-87.27-31.78-27.49-63.62-55.3-93.06-86.53-17.94-19-40.46-41.82-49-70-18.44-61,80.76-51.78,105.25-53.38,60.88-4,129.9-4.86,186.23-37,35.17-20.07,49.62-53.35,42.11-99.56-2.59-16-7.26-29.64-1.35-45.55,6.84-18.41,22.57-29.88,37-38,45.17-25.38,98.57-30.78,147.54-35.26,50.6-4.64,103.31-7.91,152.27-4.52,19.58,1.35,42.12-6.31,61.5-12.19,29.81-9,59.32-19.5,89-29.22,60.3-19.75,122.16-38.79,184.88-40.95,45.28-1.57,92.5,6.91,130.18,39.69,38.18,33.23,55.12,84.75,76.29,133.73,36.57,84.67,86,187.62,170.56,205.51,12.83,2.72,25.16,1.24,38,1.91,6.59.34,14.09,1.41,17.43,9.34,8.68,20.58-15.09,58.21-23.09,74-22.11,43.56-47,85-70.13,127.73-18.4,33.92-41.72,71.62-48.83,111.84-8.64,48.8,47.78,83.53,67.63,117.89,34.4,59.59-30.78,93.54-62.91,122-36.9,32.62-67.35,92.13-34.28,142.59,12.66,19.3,28.23,30.8,33.88,56,8.83,39.39,2.15,84.4-5,123.33-10.8,58.53-27.9,116.42-51.14,169.31-16.65,37.87-44.27,97.26-84.72,92.8-27.23-3-54.91-13.83-81.43-23.43-39.7-14.36-78.9-30.74-117.89-47.75-90-39.15-179-82.32-266.29-129.81-59.55-32.41-225.64-164.87-238.14-169.59-37.26-14.08-79.63-11.6-118-9.42-51.1,2.9-102,10.4-152.76,17.36-24.18,3.29-48.49,7.32-72.8,8.94-17.31,1.15-40,2.14-55.19-10.13-29.59-24,3.38-78.75,17-101.93,41.76-71.08,94.58-132.62,144.11-195.55,24.31-30.9,49-61.75,71-95.12C701.53,817.35,723.84,790.29,714.08,771.83Z"/><path class="cls-2" d="M735.92,756.5c-43.11-59.8-102.61-104.28-154-154.22-25.78-25.08-51.71-50.84-73.94-80.7-11.57-15.54-26-35.18-28.24-56.83-5.95-57.91,83.46-50.08,110.22-52.28,51.74-4.27,110.18-7.5,157.12-37.06,28.68-18.07,42.8-47.72,37.44-86.7-2.37-17.29-6.07-32,0-49,6.16-17.2,19-29.34,32-38.44,37.33-26.17,83.71-34.54,125.74-40.77a832.86,832.86,0,0,1,148.6-8.49c43.48,1.4,86.75-14.26,129.2-24.58,56.23-13.66,113.48-25.59,171-23.79,45.44,1.43,91.25,12.69,130.1,42.61,39.48,30.47,63.21,76.07,84.61,125.29,32.35,74.39,72.67,174.08,143.64,202.34,10.32,4.12,19.94,4.57,30.59,5.29,5.17.34,11.85.45,14.41,7,6.17,15.84-16.64,46.56-23,57.26-20.32,34.18-42.34,66.82-63.17,100.54-19.44,31.48-40.62,64.29-52.7,101.18-19.22,58.76,42.23,93.11,40.51,149.1-1.07,34.76-28.35,59.69-50,76.94-26.6,21.2-64.89,35.14-78.21,73.84-9.91,28.82,5.65,45.6,17.63,67.47,20.31,37.06,21.69,87.29,19.58,130.19-2.85,58-14,116.79-32.93,170.07-8.59,24.15-19.11,49.27-34.59,68-14.51,17.59-28.24,22.09-47.63,18.49-59.35-11-119.28-41.79-176.2-69.26-71.51-34.52-142-72.64-210.45-115.52C1056.66,1285.33,1009,1254.39,968,1214c-10.67-10.53-21.6-22-29.4-35.87-5.9-10.44-8.41-19.06-18.35-25-29.48-17.66-70.47-13-102-11.2-50.5,2.92-100.75,10.7-150.94,17.71-29.28,4.12-84.45,17.07-107.84-14-20.18-26.83,4.18-72.58,16.62-96.21,31.47-59.77,72-112.23,109.52-166.24,17.21-24.75,35.1-49.7,49.32-77.22,3.63-7,9.45-16.31,10.45-24.84C746.45,771.33,741.22,763.87,735.92,756.5Z"/><path class="cls-2" d="M739.63,770.43C699.79,717.55,651.8,674.11,609,624.63c-19.18-22.19-38.54-45.46-53.15-72.53-7.86-14.55-16.21-32.87-14-51,6.22-51.92,79.75-47.23,109.46-50.27,44.14-4.47,94.86-9,133.89-37,25.57-18.33,35.15-45.41,30.38-80.34C810.46,296.09,821.91,268.9,848,248c32.69-26.19,74-36.86,111.92-44.44a633.35,633.35,0,0,1,138.37-12c45,1,88.71-8.16,133.46-14.15,59.35-7.94,120.59-11.85,179.26,4.42,51.09,14.16,97.23,45.38,131.82,93.66,36.13,50.39,54,113.87,83.35,169.61,18.3,34.78,43.81,80.77,78,94.29,11.4,4.5,32.18-1.58,23.07,20.6-5.2,12.68-15,23.81-22.64,34.18-12.44,16.75-25.29,33-37.93,49.57-27,35.22-55.82,71.19-76,112.9-25.46,52.52,12.38,92.93,7.77,146.18-2.48,28.66-18.81,51.53-36.08,69.49-11.17,11.64-23.4,21.72-35.88,31.12-13,9.83-28.47,17.31-39.84,30-16.2,18.07-9.17,39.47-6.13,62.83a615.7,615.7,0,0,1,3.5,124.18c-3.7,50.76-12.38,103-30.65,149.1-7.11,18-16.12,37-29.5,49s-27.21,11.22-42.53,7.59c-45.46-10.71-90.83-35.64-134-59.27-54-29.58-106.89-62.63-157.42-100.24-34.88-26-69.88-54-99.06-89.2-8.48-10.25-16.56-21.22-23.09-33.46-4.48-8.4-6.89-19.24-13.38-25.55-20.32-19.71-61.13-13.82-85-12.68-47.57,2.29-94.38,13.14-141.89,15.78-25.93,1.44-66.53,5.07-85.57-21.88-17.91-25.32-1.69-65.21,9-89.61,21-48,49.29-90.73,74.62-135.33,10.41-18.36,21.82-37.56,28.56-58.52C760.19,797.5,749.84,784,739.63,770.43Z"/><path class="cls-2" d="M749.43,771.29c-31.71-46.53-69.94-87.83-101.87-135.12-18.7-27.69-50.89-74.25-36.43-113.29,15.86-42.9,71.14-44.07,103.1-47.52,38-4.12,82.71-9.74,115.26-36.53,10.29-8.47,19.06-19.67,22.78-34.44,4-15.8-.37-29.62-.94-45.44-1.19-33.18,15-59.82,36.53-78.12C918.22,255,956.18,242.74,992,234.21a524.16,524.16,0,0,1,123.31-14.15c39.55.16,78.67-.91,118.26-2.14,51.77-1.65,104.27,1,154.49,17.79,49.48,16.54,94.45,47.54,129.78,93.14,34.47,44.5,57.73,98.89,78.09,154.29,11.56,31.45,31.08,78.44,58.65,94.32,12.26,7.07,24.29,6.58,11.25,25-16.41,23.15-38.53,41.72-57.54,61.52-27.43,28.58-55.54,57.71-78.56,91.68-14.7,21.69-21.25,42.74-20.24,70.83.79,21.4,4.33,42.57,2.54,64-4.2,50.42-36.74,85-65.51,117.18-18.5,20.71-35.4,36.5-44.93,66-11.27,34.81-16,72.69-23.52,108.83-8.27,39.69-17.83,81-35.88,115.94-16.07,31.12-35.62,45.08-64.87,36.69-45.62-13.06-90.59-45.26-131.1-75-41.23-30.3-81.75-64.37-115.91-106-18.44-22.49-31-48.9-47.41-73.06-20.61-30.34-67.22-18.85-94.92-16.28-46,4.26-190.67,36.16-177.32-67.16,5.57-43.12,27.52-82.92,43.57-121,6.65-15.79,16.28-34.74,17.78-52.84C773.68,804,759,785.3,749.43,771.29Z"/><path class="cls-2" d="M766.17,775.24c-24.23-42.16-53.23-82-74-127.54-13.49-29.49-26.73-68.9-9.34-100.11,19.64-35.21,63-43.42,94.76-47.91,32.78-4.62,71.92-8.51,98.71-35.21,8.53-8.5,15.55-20,16.86-33.71,1.26-13.17-2.3-26.35-1.12-39.76,2.65-30.12,17.61-54.93,36.9-72.93,57.08-53.25,142-65.09,210.88-66.48,34.47-.7,69.94,2.94,104.63,5.54,45,3.37,90.1,10.62,133,28.08,91.28,37.12,152.46,119.44,195.19,221.88,13.45,32.24,23.74,67.13,44.81,93,10.87,13.38,8.49,23-2.61,35.19-17.37,19.07-38.55,33.65-57.82,49.56-27.42,22.64-55.42,45.61-79.66,72.72-16.71,18.7-28.58,36.7-32.18,64.73-2.57,20-2,40.35-3.51,60.45-2.94,38.2-13,76.11-30.83,107.79-14.17,25.12-31,47.94-48.45,69.7a525.68,525.68,0,0,0-59,90.75c-22.8,44.51-54.85,126.62-108.57,104.89-59.25-24-114.79-84.9-152.8-143.93-12.77-19.82-23.25-44.13-40.47-58.74-25.77-21.84-51.93-21.08-82.58-21-45.9.13-145.78,12.29-146.86-71.63-.42-33.25,11.37-64.69,17-96.67C795.48,828.14,782.72,804,766.17,775.24Z"/><path class="cls-2" d="M784.22,779c-24-55-77.72-145.26-36.84-206.37C769,540.34,807.16,528.2,839.2,521c25.78-5.85,56.88-8.05,76.36-32.85,14.32-18.23,8-44.77,13.45-67.59,6.8-28.3,22.43-51.45,41.63-68.85,53.67-48.64,128.28-63.57,192.84-66.74,67-3.29,140.91,12.1,204,41.71,78.67,36.94,137.6,106.88,178.81,195.45,7.61,16.34,14.52,33.12,21.82,49.67,4.9,11.1,12.18,21.84,16,33.51,6.44,19.47-1.14,35.38-13.3,48.07-17.49,18.27-39,31.27-58.92,45-27.26,18.76-55.14,37.19-80.5,59.2-17,14.81-34.89,30.76-41,56.46-4.16,17.52-5,36.09-4.87,54.24.32,38.92-1.35,70.39-16.24,106-24.49,58.52-62.16,111.14-101.95,154.92-31.23,34.36-80.64,87.74-126.14,64.76-40.82-20.57-64.7-69.8-91.59-109.61-13.08-19.35-27.77-37-45-50.79-21.76-17.36-42.25-24.64-68-27.48-43.39-4.78-108.83-6-122.24-69.54-5-23.44-2.12-47.72-4.72-71.47C806.23,833.64,796.31,806.72,784.22,779Z"/><path class="cls-2" d="M809.14,781c-17.07-60.14-39.49-135.92,1.73-189.36,20-25.89,48-40.36,75.23-51.18,19.47-7.75,50.38-10,62.32-33.86,8.76-17.54,10-41.73,17.91-60.52a172.24,172.24,0,0,1,46.77-63.77c50.45-43.4,116.16-60.17,176.09-65C1319.4,307,1451.89,390,1521.57,526.49c20.77,40.7,47.59,84,14,125.6-36.66,45.36-91.88,66.61-135.63,98.85-16.72,12.3-38,27.1-47.34,49.38-5.61,13.39-6,30.2-6.25,44.94-.68,37.55-3.23,71.33-15.61,106.37-19.11,54.15-49.58,104.11-84.11,145-30.12,35.68-73.06,77.62-116.8,51.9-33.53-19.77-54.8-61.73-80.86-92.66-29-34.45-64.85-57.67-104.23-69-38.31-11-80.33-18.42-100.52-65.18-6.92-16-14.16-36.8-16.75-54.55A646.83,646.83,0,0,0,809.14,781Z"/><path class="cls-2" d="M836.93,781.46c-7.9-60.72-8.78-124,27.91-171.89C882,587.24,903.6,571.38,925.49,557c16.1-10.57,32.73-19.49,44.75-36.83,11.14-16,19.61-34.69,30.37-51.16a235.39,235.39,0,0,1,50.28-56c47.92-38.12,106.2-55.95,162-62.14,27-3,56.28-4.57,83.09,3.63,25.89,7.9,51.5,20.41,75.31,35,50.61,31,94.47,76.3,126.27,133.62,21.81,39.31,33.6,77.54,5.36,117.42-31.83,45-81.74,69.77-122.88,98.95-28.22,20-59.84,39.63-65.11,82.15-4.2,33.84-7.61,66-18.46,98-16.16,47.18-39.92,89.92-69.88,125.68-27.39,32.58-62,60.23-101.22,42.82-31-13.81-55.13-44.75-82.25-66.87-30.23-24.7-63.44-38.33-98.41-49.28-31.43-9.88-61-25.07-81.33-57.31a161.23,161.23,0,0,1-11.73-21.13c-4.09-9.41-3.77-18.73-4.57-29.27C844.94,836.44,840.5,808.94,836.93,781.46Z"/><path class="cls-2" d="M867.57,776.5c.67-57.68,12-112.19,43.17-157.13,13.3-19.23,29.2-35.07,43.84-52.69,11.79-14.2,22.93-27.4,36.49-39.11,32.16-27.71,58.3-63.58,92.48-88.26,45.62-33,97.89-51.23,149.74-58.52,25.33-3.57,51.48-4.81,77.1-.79,22,3.46,43.08,15.59,62.63,28,38.31,24.32,75.51,58.88,100.39,102.6,54.84,96.41-53.29,166.5-108.79,207.54-25.53,18.88-64.53,40.75-75,78.15-7.48,26.72-12,53.89-21.65,79.78-25.86,69.54-78.34,151.33-148.29,140.44-29.92-4.65-57.2-23.55-85.14-36.24-28.77-13.06-58.46-20.35-88.36-28.34-28-7.47-50.22-18.09-68.27-46.57-8.63-13.61-7.87-29.89-8.64-46.58C868,831.38,867.26,803.82,867.57,776.5Z"/><path class="cls-2" d="M895.47,769.11c11.23-87.06,53-182.1,114.33-232.65,72.18-59.48,150.37-109.56,236.61-124,40-6.68,83.79-10,121.51,11.87,28.72,16.6,62.07,41.42,77.87,76.32,38.66,85.37-47.33,153.33-96.32,192.82-26.38,21.26-60,42-79.83,73-11.54,18-17.43,41.81-26.74,61.59-28.22,59.91-74.67,108.24-132.53,116.88-26.76,4-53.71-.94-80.26-4.87-27.18-4-54.7-6.2-81.71-11.8-21.56-4.48-47-12.06-54.91-40.22C883.47,852.64,890.88,804.66,895.47,769.11Z"/><path class="cls-2" d="M922.82,755.12c16.39-81.84,51.09-161.68,109.43-210.54,30.94-25.91,66.85-43.8,101.33-61.47,39.08-20,79.92-35.57,121.62-43.28,51.93-9.61,136-18.26,163.16,53.94,26.93,71.68-41.11,135.11-81.35,171.26-25.8,23.16-53.41,44.41-78.06,69.73-13.37,13.72-23.66,29.58-35,45.68-31.26,44.6-75.83,79.91-121.26,98.76-44,18.27-98.48,26.36-145,20.32-20-2.59-34.38-11.35-40.45-36.24C908.91,828.67,916.05,788.93,922.82,755.12Z"/><path class="cls-2" d="M950,733.08C966.29,661,1001.4,595.2,1052.62,552c57.42-48.49,131.35-75.43,199.3-89.13,36.12-7.28,114.39-27,132.8,29.46S1349.91,604.39,1319.28,635C1282.1,672.15,1242,708,1202,741.3c-34.78,29-71.9,58.57-109.58,80.93a358.64,358.64,0,0,1-66.14,31c-16.85,5.8-38.28,14.47-56,10.14C925.74,852.41,942.22,767.54,950,733.08Z"/><path class="cls-2" d="M983.57,711.5c35.72-136.28,148.89-203.3,257.85-226.67,25.33-5.42,96.31-25,110.46,16.66,13.72,40.36-29.9,88.23-50.32,110.91-63.28,70.27-141.46,122.38-215.54,174-23.13,16.11-64.83,51.08-93.52,35C961.36,803.8,976.17,739.76,983.57,711.5Z"/><path class="cls-2" d="M1020.16,685.27c31.06-100.36,121.41-157.92,204.48-176.9,20.35-4.64,72-19.09,87.43,8.91,14.26,25.91-19.77,63.45-32.5,78.37-28.35,33.21-61.94,60.58-95.13,86.88-30.68,24.33-61.7,49.28-94,69.86-17,10.83-48.9,34-68.23,17.22C1001.42,751.61,1013.26,707.56,1020.16,685.27Z"/><path class="cls-2" d="M1060.47,656c23.68-65.54,87.09-108.1,143-122.24,15-3.8,47.58-13.65,60.28,3.85,11.69,16.12-7.15,39.75-15.51,50.67-37.06,48.37-91.32,91.58-141,118.12-12.5,6.67-35,19.77-47.83,6.3C1046.2,698.82,1055,671,1060.47,656Z"/><path class="cls-2" d="M1103.25,628.42c13.34-32.55,48.21-57.1,77.09-64.92,20.33-5.49,44.76-.74,27.05,27.58-17.6,28.12-50.26,53.79-77.93,65.18C1108.34,664.94,1091.79,656.37,1103.25,628.42Z"/><path class="cls-2" d="M21.35,853.82c-.85-64.29-28.85-131.11-15-196.63,11.35-53.8,68.51-58.3,102.79-82.67,27.25-19.37,42.71-53.68,57.45-86.59,13.24-29.56,25.13-60,39.08-89.06,9-18.79,24.53-55.69,44.11-56.36,18.74-.64,35.93,28.11,46.82,45.11,14.19,22.16,26.78,45.78,40.57,68.29,23.23,38,51.1,66.07,83,92.67Q474.65,594,530.93,636.27c27.62,20.82,55.43,41.49,82,64.37,16.65,14.36,53.41,41.29,53.58,67.76.08,12.63-9.72,26.62-16.33,36.71-11.19,17.09-23.93,32.71-36.72,48-23.82,28.47-48.65,55.65-73.21,83.17-31.87,35.7-62.32,70.82-90.34,111.36-29,42-56.65,85.3-84.89,128-19.13,29-38.24,61.48-65.83,79.25-34.56,22.21-62.92-1.21-97.87-1.48-30.06-.24-27.85-85.28-31.67-108.92-3.83-23.93-12.28-46.21-15.56-70.2-4.08-29.95-4.13-60.59-5.14-90.86-1.22-37-1.7-72.26-34.12-86.38-18.44-8-38.4-9.71-57.49-14.51C45,879.47,21.62,874.14,21.35,853.82Z"/><path class="cls-2" d="M36.13,842.39C33,788.49,14.37,719.51,32,663.87c15-47.54,62.08-53.7,93.75-78.68,26.15-20.6,37.79-54.3,50.86-87.42,10.49-26.56,20.66-53.38,32.56-79.1,8.77-18.95,22.17-50.95,40.41-54.87,16.39-3.52,34,24.72,43.18,39.09,13.43,21,24.92,43.76,36.78,66.07,20.84,39.18,42.19,74.41,72.69,103.19s64.17,50.52,98.05,73c26.5,17.6,52.87,35.71,78.06,56,18.76,15.13,45.73,34.49,54.31,61.47,6.79,21.34-27.67,56.75-37.83,69.25-20.92,25.7-43.08,49.83-65.29,73.81-27.07,29.21-55,54.76-78.92,88.09-42.76,59.59-78.5,133.8-133.52,178.09-33.19,26.71-70.12,33.54-107,29.54-14.61-1.58-18.12-26.77-20-41.46-3.06-24.4-3.44-49.23-5.8-73.73-2.21-22.94-7.1-44.74-11-67.23-4-22.79-5.12-46.14-8.06-69.09-1.82-14.25-3.62-30.83-11.59-42.28-8.25-11.85-21.85-16.82-33.74-20.6C97.49,880,38.36,880.42,36.13,842.39Z"/><path class="cls-2" d="M55.16,819.82C49.86,770.35,42.44,708.73,64,663.15c17.64-37.26,55.28-45.3,82.17-69.59,22.36-20.19,30.8-52.31,41.9-82.15,9.11-24.49,18.26-49.07,29.3-72.37,8.37-17.67,19.16-41.62,35.78-47.78,14.21-5.27,30.27,18.32,38.15,30.06,13.41,20,24.35,42.44,35.21,64.57,17.77,36.2,34.12,74.88,59.41,104.33,24.57,28.58,53.77,45.45,83.51,64.42,22.77,14.53,45.41,29.62,66.87,47,16.48,13.3,36.9,29.06,45.49,51.19,7.43,19.08-11.64,41.67-21.16,55.13-15.73,22.22-33.19,42.6-50.41,63.06-18.58,22.08-39.15,42.45-57.13,65.07-37.81,47.6-68,100.31-114.61,136.78-30.18,23.63-70.79,45.09-106.46,41.23-25.65-2.78-24-72.09-26.43-94.23-4.05-36.21-11.88-74.25-24.31-107.6-10.67-28.58-36-37.39-59.36-43.8-14.62-4-29.94-6.2-44.08-12.42C61.51,848.79,57.38,840.56,55.16,819.82Z"/><path class="cls-2" d="M72.9,796.63c-3.16-41.82-2.45-91.28,18-127.46,17.92-31.69,49.81-40,72.49-65,17.7-19.48,24.66-51.24,34.18-77,11.63-31.49,27.94-89.66,57.29-101.51,27.3-11,55.86,59.37,65.74,80.35,15.65,33.22,28.74,69.65,47.72,100.33,16.35,26.41,38.25,41,61.49,56.7,29.63,20,74.63,43.79,90.47,82.85,11.81,29.1-26.59,72.36-39.71,92.52-13.71,21.06-24,46-38.2,66.35-22.34,32.06-58.54,57.88-88.42,77.58-29.06,19.16-66.79,40.37-99.75,39.11-21.66-.83-25.78-41.66-30.4-61.61-6.62-28.36-15.43-53.77-34.34-73.06-19.25-19.63-41.94-28.88-65.79-37-12.25-4.13-26.21-7.34-37.17-15.68C74.39,825.05,74.12,812.71,72.9,796.63Z"/><path class="cls-2" d="M94.52,772.53c.17-36.14,6.94-74.67,27-102.54,16.72-23.22,42.88-31,58.89-54.72,12.67-18.79,19.12-45.16,27.61-67,10.38-26.74,25.05-73.46,50.86-82.74,25.19-9,47.47,42.42,57.13,62.78,14.14,29.85,25.59,61.49,39.86,91.26C367.06,643,380.74,658,398.94,673.06c21.37,17.68,51.19,37.27,62.6,66.52,8.23,21.18-11.69,55-18.92,73.68-4.85,12.53-9.29,25.26-11.73,38.84-1.9,10.58-2.09,20.37-7.59,29.45-13.85,22.85-44.23,25.83-64.84,33.36-27.37,10-56.41,21.36-85,23.52-17.61,1.36-26.59-18.44-36.64-32.37-11.88-16.47-28.69-28.31-43.37-40.73-19.38-16.43-40.46-26.64-62.28-37.11-9.84-4.72-21.39-9.35-29-18.74C94.14,799.75,94.46,785.57,94.52,772.53Z"/><path class="cls-2" d="M117.22,751.07c3.48-30.34,14.32-59.35,32.64-80.8,14-16.47,32.67-25.75,43.94-45.54,10.5-18.45,17.81-39.42,26.48-59.15,9.18-20.85,22.81-55.7,44-61.38,22.81-6.11,40.38,29.05,50.11,48.54C326.65,577.36,336,603.85,347,629.33a218.07,218.07,0,0,0,31.33,51.51c13.1,16,30.87,31.3,37.49,53.28,5.86,19.47-5.1,43-7,62.76-2.07,21.09,1.55,43.25-9.92,61.36-23.66,37.35-83,30.42-117,31.22-33.5.82-60.43-22-87.54-43.77-17.91-14.36-36.55-26.51-54.91-39.89C120.66,792.15,114.16,777.78,117.22,751.07Z"/><path class="cls-2" d="M138.32,733.7c10.29-44,42.42-67.33,65.39-100.55,18.79-27.21,32.89-83.54,64.54-91,35.93-8.45,57.45,66.18,69.94,95,13.86,31.94,38.55,57.92,48.82,91.73,5.4,17.75.76,34.31-2.11,52-3.15,19.48-5.52,39.39-16.39,55.07-21.41,30.85-63.21,30.63-93.32,31.48-31.17.89-58.74-20.26-83.57-41.36C165.28,803.77,127.78,778.79,138.32,733.7Z"/><path class="cls-2" d="M155.55,721.78C167.14,690.46,191.5,665,211.27,641c16.5-20,34.25-60.39,59.4-63.26,29.57-3.39,47.48,39.69,59.12,66.11,11.45,26,27.95,53.36,34.28,81.85,6.62,29.68-11,69.65-27.78,90.65-18.73,23.41-49.37,32.07-75.65,31.13-27.53-.95-52.79-20.3-73.63-40.38C164.72,785.59,142.07,758.15,155.55,721.78Z"/><path class="cls-2" d="M171.54,715.89c11.07-26.06,30.27-48.1,48-67.76,13.66-15.17,33.81-41,53.52-41.61,21.68-.7,40.05,21,48.66,43.16,8.5,21.9,17.45,49.36,18.72,73.39,2.76,52.32-53.46,110.93-95.68,106.16C204.7,824.7,149.46,767.8,171.54,715.89Z"/><path class="cls-2" d="M186.33,713c15.27-33.94,52.38-82.34,86.73-83.49,39.43-1.31,49.33,52.54,44.19,91.57-5.22,39.83-50.68,97.49-86.93,89.7C194.94,803.18,168.22,753.27,186.33,713Z"/><path class="cls-2" d="M201.94,707.52c12.93-28.42,40.53-63.92,69.32-65,34.29-1.28,33.65,44.19,25.87,72.49-8.09,29.38-43.71,79.57-73.74,71.64C194.19,778.93,189.54,734.76,201.94,707.52Z"/><path class="cls-2" d="M215.54,704.25c8.53-20.28,29.9-45.91,50.21-46.73,24.83-1,20,35.08,13.59,52.48-7.63,20.71-33.18,56.7-54.63,50.87C203.59,755.13,208.49,721,215.54,704.25Z"/><path class="cls-2" d="M1383.43,1863c-55,40.69-117.07,74.27-175.65,108.41-85.61,49.88-172.48,98.42-262.43,135.58-48.23,19.92-110.72,48.63-162.47,33-18.92-5.7-36.17-23-53.14-34.16-23.39-15.46-47.12-30.15-70.82-44.87-47.53-29.52-95.21-58.73-141.93-90.14-22.49-15.12-44.32-34.18-67.74-47.08-13.68-7.55-30.06-4-44.68-3.54-33.88,1.11-67.73,3.22-101.58,5-41.41,2.19-82.91,4.52-124.37,3.66-18.7-.4-64.49,3.65-74.78-16-5.54-10.59,7.51-29.67,13.56-38.5,11.11-16.23,23.88-30.86,36.48-45.34,29.14-33.48,60.08-65.36,86-102.76,13.3-19.22,30.74-42.71,22.05-69-8.77-26.5-24-49.46-33.22-75.88-10.68-30.4-15.1-62-20.14-94.27-3.73-23.83-12.42-44.94-20.58-66.9-9-24.28-18.38-48.77-24.64-74.37-4.15-16.91-10.83-47.34,3.66-58,20.58-15.22,59.19-2.89,82.65,1.59,32.43,6.19,64.63,14.07,97,20.86,23.48,4.94,47,10.36,70.91,10.93,38.48.93,77.09-2.28,115.47-5.28,71.06-5.55,141.62-13.07,212.92-13.07,62.48,0,206.84,88.2,240.63,103.73,67.45,31,136.7,60.39,200.53,101.64,17.26,11.17,43.84,26,52.92,49,5.61,14.16,3,22.35,16.25,31.48,18,12.45,41.15,17.34,61.11,22.91,32.16,9,64.56,16.57,96.86,24.69,65.33,16.39,130.22,34.92,195.28,52.76,19.67,5.39,43.47,6.58,62.22,16.08,12.09,6.1,10.83,13.77,1.48,23-16.41,16.26-39.41,25.29-58.8,34.57-28.4,13.58-57.27,25.71-86.15,37.66s-57.92,23.53-86.81,35.5C1422.35,1843.9,1400.58,1850.31,1383.43,1863Z"/><path class="cls-2" d="M1338.21,1854.06c-58.13,40.77-122.65,73.25-184.85,104.94-79.61,40.58-161,78.62-244.9,104-49.25,14.88-107.36,31.32-157.68,14.25-17.95-6.09-31.36-19.78-46.75-31.87-17.54-13.78-35.76-26.42-54-38.86q-56.25-38.4-113.68-74.17c-20.28-12.69-42.61-29.67-65.52-34.07-18.21-3.51-38.9,1.56-57.2,3-33,2.65-65.89,5.39-98.86,7.71-38,2.68-76.18,5.15-114.3,4.72-21.24-.24-57.71,3.71-72.74-13-13.1-14.62,34.62-67.5,43-77.55,26.21-31.37,53.78-61.24,78.17-94.78,14.42-19.78,32-43.84,38.05-70.06,5.18-22.34-4.81-47.8-10.7-68.45-7.38-25.87-13.33-52.69-21.89-78-7.63-22.57-19.78-42.67-30.44-63.18-11.74-22.57-23.62-45.51-32.33-70.12-5.33-15.15-14.16-40.52-3.56-55,12.25-16.65,50-5.77,65.54-3.4,31.5,4.88,62.75,12.14,94,18.63,51.95,10.78,101.48,20.21,154.37,18,68.89-3,137.71-9.89,206.59-13.73,25.43-1.43,51.27-4.32,76.73-2.76,14.59.9,25.7,6.34,34.19,18.61,11.59,16.75,38.28,26,56.85,35.63,28.95,15,58.26,28.9,87.5,43,64.17,31,129.58,60.86,190.43,100.94,19.26,12.68,41.31,26.81,55.55,47.75,8,11.68,5.94,22.93,10.79,35.34,6.43,16.33,27.54,23.7,40.16,29,24.37,10.32,49.73,17.23,74.89,23.71,56.94,14.66,114,24.29,171.88,31.39,13.56,1.65,67,7.36,38.91,34.88-31,30.43-75.72,45.34-112.2,62.48C1401.41,1818.46,1368.52,1832.8,1338.21,1854.06Z"/><path class="cls-2" d="M1257.88,1846.52c-54.64,35.87-115.17,62.63-174,88.23-71.41,31.06-144.61,58.75-219.5,74.26-47,9.74-98.91,17.22-145.64,1-31.91-11-56.6-40.9-84.63-61.44s-57.19-39.82-87.22-55.89c-18.64-10-38.69-20-59.43-18.7-50.43,3.19-100.8,10.8-151.29,14.5-33.39,2.47-66.86,4.5-100.36,3.89-20.2-.36-48,1.12-65.83-11.85-19.77-14.34,85.49-136.81,95.43-150.59,25-34.56,55.15-80.43,50.33-129.58-4.62-47-24.61-82.07-47.22-118.88-12.83-21-54-76.89-38.73-104.13,8.71-15.57,37.43-10.18,51.07-9.12,26.89,2.09,53.62,6.58,80.37,10.48,39,5.66,79.06,14.39,118.23,17,27.27,1.78,54.71-.6,82-.65,39.18-.07,78.35.29,117.52.72,32.89.36,66.06,0,98.83,3.85,20.38,2.37,35.85,7.7,50.46,22.74,12.72,13.08,31.91,20.74,48.11,29.06,26.78,13.74,53.9,26.47,80.93,39.4,56.61,27.09,113.86,53.62,168,87.47,24.73,15.44,66.31,37.07,72.11,74.52,2.1,13.5,3.64,19.34,14.44,27,15.34,10.89,33.71,15.8,50.92,20.07,40.12,10,81.4,8.47,121.45,18.31,16.31,4.06,37.6,12.82,19,32.86-21.73,23.45-53.35,36.33-79.38,50.81-13,7.23-26.38,14-38.72,22.82C1275.68,1831.48,1267.57,1840.2,1257.88,1846.52Z"/><path class="cls-2" d="M1154.39,1835.32c-50.47,29.13-105.3,50.31-159.13,69.41-59.8,21.18-121,38.73-183.09,46.19-42.85,5.17-88.5,6.7-130.08-9.13-26.3-10-44.13-31.07-66.76-48.73-34.15-26.7-71.1-47.84-112.14-42.7q-69,8.64-138.45,13c-27.93,1.74-56,3-83.93,1.83-17.68-.76-40.46-2-55.84-11.81-20.58-13.09,56.72-112.7,66.36-127.22,23.89-36,41.41-73.78,51.65-118.39,8.35-36.4-8.71-65-26.3-92.24-10.94-16.91-46.28-59.44-35.21-81.4,6.07-12.11,26.07-11.48,36.81-12.1,20.47-1.17,41,0,61.5.59,30.23.82,62.41-4.85,92.38-.28,66.43,10.09,132.69,18.84,199.52,25.76,36.85,3.81,73.91,7.27,110.43,14.62,13.11,2.64,26.65,5.44,39.07,11.41,8,3.83,12.34,10.37,19.09,15.73,32.15,25.52,74.12,38.65,110.33,55,48.14,21.74,96.53,43.15,143.39,68.83,24.65,13.51,59.07,29,76,56.61,5.12,8.33,2.94,15,6.16,23,3.71,9.24,15,12,22.25,14.56,16.52,5.85,85.64,14.69,53.79,49-15.2,16.34-34.57,26.82-51.7,39.67-6.21,4.65-12.26,9.33-17.43,15.6C1174.44,1822.64,1165.92,1828.64,1154.39,1835.32Z"/><path class="cls-2" d="M1044.13,1822.7c-99.65,47.14-216.44,79.25-325.08,73-36.13-2.08-75-9-106.32-32.72-18.47-14-33.23-29.82-55.41-34.88-16-3.65-33.26.49-49.37,2-23.33,2.18-46.67,4.12-70,5.69-29,1.92-58,3.41-87.05,2.62-20.74-.57-49.37.07-67.39-13.53-21.5-16.21,33.24-92.29,40.94-105.84,18.67-32.86,31.76-64.69,36.49-104.28,1.39-11.54,6.08-23.37,5.47-35-.63-11.88-6.62-22.45-12.16-31.79-7.23-12.23-32.34-41.26-25.15-56.18,4-8.24,18.88-9.28,26.61-11,14.5-3.3,29.21-5.07,43.8-7.69,24.75-4.47,49.33-19,74.16-18.6,66.8,1.09,134.56,26.37,200,40.25,38.91,8.28,78.09,15.8,116.53,27,12.16,3.56,24.69,7.23,36.25,13.26,8.07,4.2,13.25,11.69,20.72,16.39,28.66,18.07,61.61,29,92.39,41.2,39.94,15.83,80,31.17,119.7,48,24.86,10.56,56.83,19.85,78.26,39.43,15.65,14.29,5,18.57-3.3,31.89-4.22,6.79-3.25,13.48-5.08,21.16-2.61,11-10,18.88-16.94,26-9.56,9.81-22.3,17.89-30.11,29.93-2.76,4.23-2.63,9.49-4.86,13.18C1070.71,1813,1053.5,1818.27,1044.13,1822.7Z"/><path class="cls-2" d="M938.18,1805.91c-80.88,29.64-170.87,46.51-256.36,38.68-29.75-2.73-59.67-9.07-87.38-23-12.61-6.32-22.07-13.36-35.88-13.74-32.06-.87-64.21,2.19-96.25,2.92-22.94.53-46,.72-68.86-1.53-15.3-1.5-36-3.3-48.52-14.75-18.21-16.67,14.66-73.36,21.36-89,11.08-26,22.08-54.85,17.69-84.91-1.35-9.19-3.74-17.31-4.05-26.68-.3-8.05.53-15.49-1.81-23.19-2.89-9.54-15.76-24.36-11.34-33.14,3-6,12-6.29,17.91-8.21a160.51,160.51,0,0,0,28.17-12.21c9.58-5.31,17.73-13.51,27.65-17.9,16.11-7.1,34.14-7.77,51.07-7.74,67.55.13,136,16.4,201.79,33.4,34.29,8.86,68.76,18.29,102.08,31.72,10.12,4.08,21.58,8.18,30.48,15.71,5.55,4.69,9.32,10.57,15.62,14.1,53.87,30.12,116.16,41.31,173.35,63.06,14.88,5.66,97.38,34.27,54.25,61.19-26.21,16.35-53.9,23.79-77.81,46.16-7.28,6.8-12.14,12.43-15,22.81-1.88,6.91,2.63,3.4-3.67,10.62C965.05,1799,947.6,1802.46,938.18,1805.91Z"/><path class="cls-2" d="M854.09,1788.39c-94.7,24.19-195,25.34-291.16,3.89-24.24-5.4-49.48-4.11-74-5.48-23.85-1.31-66.25,1.42-83.58-21-12.56-16.22,1.07-50.7,5.79-68.85,6-23.12,11.25-47,1.39-69.45-5.78-13.16-13.69-25.67-19.88-38.7-3-6.22-9.07-15.76-6.52-21.65,4.2-9.72,23.88-13.81,33.43-18.4,30.53-14.66,62.85-18.39,95.49-18.29,60.27.19,120.86,10.25,180,23.89,27.2,6.28,54.78,13,81,23.9,14.85,6.17,25.8,18.08,40,25.14,45.65,22.75,94.69,34.9,141.13,55.71,13.43,6,63.63,26.08,38.34,49.72-24.48,22.89-60.19,20.17-85.65,41.7-2.88,2.47-6.45,5.42-8.12,9.41-1,2.38.76,6.92,0,8.27C893.9,1783,866.1,1785.32,854.09,1788.39Z"/><path class="cls-2" d="M792.74,1772.4c-48.58,8.13-98.23,10.15-147.63,10.66-27,.28-56.66,2.38-83.08-6-16.23-5.14-31.9-9.64-48.63-12.88-18-3.49-47-6-57.95-24.92-8.19-14.12-2.57-43.16-2.28-60.33.32-18.83-2.84-32.8-13.74-46.27-6.85-8.49-38.27-39.3-34.64-48.18,3.46-8.46,25.35-9.76,34.82-12,29.92-7,60.24-9.4,90.68-9,47.14.58,94.45,6.44,140.85,16.53,19.19,4.18,39,8.52,57.34,16.89,12.34,5.65,22.63,15.66,34.89,21.49,35.11,16.73,72.23,28.1,107.46,45.14,11.31,5.47,48.15,20.06,39.32,42.54-7.37,18.76-32.41,24.47-44.72,37C844.49,1764.63,819.43,1767.94,792.74,1772.4Z"/><path class="cls-2" d="M762.13,1761.62a868.93,868.93,0,0,1-117.06,7.85c-25.24.07-51.86.49-76.62-6.43-12.44-3.47-23.25-11.6-35-17.39-12.13-6-28.86-12.61-34.1-26.28-4.92-12.84-3.08-31.57-7.4-47-3.85-13.74-11.9-22.23-20.56-31.51-5.53-5.94-33.89-31.63-30.61-37.3,3.52-6.07,20.55-5.58,29.41-6.42a562.43,562.43,0,0,1,73.41-2.25c33.42,1.25,67.09,4.74,99.93,12.65,23.29,5.59,40.87,18.93,62.58,28.71,28.14,12.7,57.29,22.74,85.16,36.63,13.88,6.93,34.44,15.83,41.55,33.7,2.73,6.85,5.39,24.27,2.34,31.12-3.65,8.23-17.26,11.72-23.69,13.83C795.36,1756.76,778.51,1759.33,762.13,1761.62Z"/></g></g></g></g></g></g></g></svg>