<svg xmlns="http://www.w3.org/2000/svg" viewBox="0 0 959.77 1836.06"><defs><style>.cls-1{fill:#FFFFFF;}</style></defs><title>Asset 3</title><g id="Layer_2" data-name="Layer 2"><g id="Layer_1-2" data-name="Layer 1"><path class="cls-1" d="M531.67,1693.42c-5.7-5.69-13.23-46.82-23.81-41.81,3.32,3.33,2,8.86,1.05,13.09-3.31-3.43-5.52-14.32-2.67-17.53-6.12-.85-9.72,38.88-10.25,46.28-1.2,16.58-10.82,38.83-11.73,54.56-.79,13.65,1.73,41.21-17.3,36.77-7.25-1.69-11.24-6.64-15.83-11.83-6.42-7.24-12.69-9.46-19.28-15.23,3.89-3.89,3.95-6.53,6.12-11.32q-1.12-5,4.72-6.05l-2.81-5.73c2.37-4.79,5.93-5.75,8.5-11.38,1.58-3.46-1.55-1.87-.38-5.49s4.16-9,5.5-11.93q-4.56-3.6-.45-5.5l4.54-3.71c1.05-2.76,5.59-21.77,9.67-22,6.77-.34-1.07,21.81-1.12,26s-5.38,8.91,2.83,7.94c5.78-.68,7.94-10.91,8.72-14.42,1.17-5.25-.35-10.09.15-15.09s.85-12.21,2-17.24c1.6-6.79,2-18.77,4-25.72,2.72-9.14,6.82-10,5.93-19.88-.79-8.91-1.8-19.2-1.91-26.79-.15-10.15-.66-29.87,14.57-21.21,6,3.43,9.85,18,12,24,3,8.16,7.4,17.09,9.26,25.35,1.39,6.2-1.75,13.57,0,19.66a6.68,6.68,0,0,0,5.54,3.77q.72,5.55,1,11.13c1.71,8.66,5,19.71,7.46,28.45v9.53q8.28,2.94,6.18,10.69c1.61,4.75.6,10.65,2.31,15.49,7.91,1.71,1.71-38.41,1.71-47.08,0-8,2.24-12.15,3.15-19,1-7.17,1-14,1.69-21.05a205.72,205.72,0,0,1,3.07-21.91c1.59-8.11-.69-12.24-.16-19.25.21-2.76,4.11-9.59,4.14-12.36,0-5.08-3-5.95-2-12l3.32-1.34q4.66-3,3.14-9.06c1-2.49,1.68-6.86,4.86-7.34-10.32-3.52-4-13.93-.32-21.15q2.64,4.56,6.31.24c1.75,1.79,0,8.57,1.51,11.81,10.28-9.75,13.62,12.66,6.35,15.78-5.61,2.41-3.85-6.34-6.1-9.86-2.39,2.28-3.67,11-1.91,13.71,2.31,3.53,7.25,3.51,9,7.09,2,4.22.61,17.09-.13,20.28-1.85,8-5.14,14.93-5.81,23.36-.59,7.37,1,16.24-.18,25.18-.35,2.71,0,7.25-.11,8.37-.34,4.37-3.1,6-1.84,12.6l3.94,4.53q2,5.2-2.06,8c0,4.13-2.33,11.78-2.09,14.21.42,4.32,1.94,10.63,2.2,13.65.49,5.57-.06,8.06-.12,12.25-.12,10,1,19.55-3.75,28,8.82,3,3.4,8.6,3.72,14.66.53,10.14,1.19,21.59,2.26,32,.62,6,3.41,8.44,3.77,14.59.54,9.33-1.43,11.71,2.19,19.92,2.63,13.83-9.66,12.3-20.44,6.33-8-4.39-8.16-4.58-9.66-13.18-2-11.23.08-23.64-.93-33.69-1-10.43-5-24.84-9.5-35.29-2.86-6.69-5.87-13.8-7.53-20.55C535.92,1710.3,532.41,1702.56,531.67,1693.42Z"/><path class="cls-1" d="M344.13,1339.05c0-10.43-2.69-12.21,6.17-9.48,4,1.23,7.35,5.78,10.07,8.55,7.33,7.46,14.13,16.24,20.39,24.58,10.72,14.27,19.86,27.81,30.24,40.13,7.67,9.11,18,16.21,25,24.92,5.2,6.46,11.56,14.8,18,21.94,12.81,14.31,25.28,29.64,37.93,43.87,10.34,11.63,28.59,36.43,3,35.08-12.72-.68-12.78-7.34-20-15.92-6.47-7.7-14.64-11.19-22.16-16.58-14.41-10.35-27.34-23.34-40.41-33.93-15.78-12.77-31.17-25.3-45.41-39.54-5.72,4.07,19.44,29.23,23.27,33.26,10.13,10.65,16.16,21,24.6,32.62,8.55,11.8,17.72,22,23.16,34.52,2,4.61,6.13,7.58,5.94,12.55-.12,3.2-6.95,13.89-11.77,10.5,3.53-8.45-5-12.29-8.06-16-.93-1.15-1.89-7.2-3.07-9.45,3.19,6.09-7.13-7.55-5.06-5-12.83-16.06-20.59-32-35-46.44-10.23-10.23-19.19-21.51-29.58-31.87-9.28-9.26-17.84-29.86-31.54-33.32,6.29-7.32-17.9-26.08-25.78-30.19,5-6.13-6.08-14,6.68-12.95q2.08,2.89,4.36,5.61,6,.18,12,.28c5.48,1.12,10.39,5.31,14.49,8.48,16.1,12.45,28.77,26.31,43.31,37.91,14.83,11.84,30.7,20.69,43,32.45,3.88,3.7,12,9.17,15.77,14.21,3.94,5.24,9.44,19.42,18.44,15.93-4.44-3.43-9.38-12.3-12.68-16.37-5.05-6.23-9.88-12.61-14.78-18.82-9.4-11.95-19-21.71-26.94-32.53-9.07-12.37-19-23.92-27.76-36.65-3.78-5.49-6.36-11.83-11.05-16.7C353.85,1349.48,346,1347.31,344.13,1339.05Z"/><path class="cls-1" d="M361.75,1699.82c0,7.49-17.41,17.3-24.53,22.3-7.68,5.39-12.94,13.34-21.19,20.13-8,6.58-18.43,14.21-25.65,22.12-8.88,9.71-16.28,14.5-25.78,23.31a262.25,262.25,0,0,1-23.47,19c-3.86,2.8-12.7,11.64-16.32,12.07-6.82.8,1.17-6.58-1.74-7.91-8.11-3.69-15.91-.1-9.23-13.9,2.79-5.79,6.49-5.5,10.29-8.35,4.32-3.23,21.81-10.32,17.91-15.08,5.17-5.18,15.74-10.38,22.2-16.28,6.81-6.22,14.36-12,21.2-19.1,12.72-13.26,28.74-22.53,41.65-35.64,16.78-17-15.23-4.68-23.39-3.86-9,.9-20.15-.92-27.73-1-3.64,0-10.37-2.16-13.85-1.83-3.11.3-8,2.69-12.13,2.72-4.66,0-14.26-4.8-15.19-8.15-2.06-7.48,10.59-17.83,14-25.38,8.24-18.16,25.14-31.76,39.74-44.41,8.24-7.13,14.21-14.83,20.72-23.25,2.71-3.5,4.38-6.53,7.2-8.51,1.34-.94,13.31-5.11,14.89-5.17,5.89-.22,20,8.65,16.82,15.5-1.5,3.2-16.6,8.72-20.42,11.69-4.11,3.2-6.35,8.43-10.44,11.71-1.67,1.33-4.16-.75-6.16,1.08-2.24,2-2.67,5.26-4.63,7.31-1.3,1.37-4.65,3.12-5.54,4.33-2.26,3.1-2.92,6.81-4.95,9.28-5.83,7.12-14.45,16.3-22.4,21.46-4,2.57-17.76,8.85-15.07,16.42,8.25-5,28.13-3.13,38.57-3.81,13.76-.9,27-1.61,39.66-1.84,3.58-.07,7.92,2,11.31,1.85,8.19-.31,12.37-5.92,19.77-6.18C395.52,1671.46,365.87,1695.7,361.75,1699.82Z"/><path class="cls-1" d="M477.88,1337.84c-5.69-6.78-10.79-16.17-6.13-24.34,6.34-11.09,16.21-8.31,20.07,2.83,5.08,14.62,5,31.58,10.09,46.9,2.53,7.61,3.07,14.23,8.45,19.77,4.31,4.43,8.89,5,13.37,10,8.78,9.7,18.2,15.7,26.73,25.31,3.93,4.43,7.87,6.91,11.42,10.35,5.7,5.54,10.06,14.45,16.27,20.12,6.63,6,11.39,1.71,18.53,5.71,4.9,2.74,8.15,11.37,11.66,15.65,6.51,7.93,33.61,17.57,27.79,28.41-10.15,18.9-29.23-17.93-38.62-3.07-1.84-2.37-.18-9.92,0-9.73-4-3.57-7.52-4.93-11.68-8.15.93-2.38.44-4.18-1.45-5.39-1.26-2-3.13-2.43-5.6-1.46-5.13-4.85-10.43-10.13-15.2-15.32-7.2-7.83-13.6-12.55-21.37-19.44-5.65-5-14.9-8.13-17.43-13.43-9.88,18.12,30.2,45.91,39,57.06,3.86,4.9,6.32,9.28,11,13.14,2.84,2.35,10.34,6.39,11.14,10.68.29,1.55-5.32,18.35-6.94,19.17-7.3,3.73-2.77-6.76-1.18-9-3.4-3.78-11.85-5.2-15.9-9.87-5.79-6.65-9-15-14.51-21.83A244,244,0,0,0,521.24,1455a25.84,25.84,0,0,0-9.33-5.13l-.08-4.73c-2.74-3.28-5.14-6.17-7.92-9.52-10.65-12.84-25.09-26.62-35-38.92-6.66-8.26-14.4-17.72-21.07-25.08-5.52-6.1-19.45-26.2-27.92-27.81,10.82-12.34-39-27.26-17-32.88,12.55-3.2,30.95,24.85,37.47,31.28a435.59,435.59,0,0,1,31.46,35.27c6.24,7.82,13.23,14.73,19.57,22.5.9,1.1,8.19,14.37,9.85,14.4,4.51-6.7-6.83-30.71-9.35-38.62C488.38,1364.52,478.44,1350.75,477.88,1337.84Z"/><path class="cls-1" d="M754,1467.71c-18.21,6.45,14.31,23.44,22.88,25,5.25.93,9.08-.93,13.66,1.39,2,1,4.27,6.82,6.1,8.38,5.06,4.34,12.89,11.7,15.14,1.71,1.76-7.84-14.11-23.45-23.94-32.78a50,50,0,0,0-12.29-2.6C770.24,1468.75,757.89,1466.34,754,1467.71Z"/><path class="cls-1" d="M779.76,1453.67l0-.05c-2.76-3.19-12-.49-14.93-1.9-4.73-2.24-9.85-3.91-14.92-5.71,9-2.92,12.44-9.17,8.39-17.73s-12.77-15.52-18.51-22.78c-11.07-14-22.83-28.7-33.86-42.86-10.3-13.23-18-28.38-28.53-41.19-3.91-4.75-8.23-9.22-12-14-6.39-8.1-14.8-12.15-21.58-19.61,9.49-8.9,7.92-23.95,19.93-11.31,3.3,3.47,2.07,9.57,8.71,8.43,2.77-.48,10.34-8.47,12.13-10.3,9.89-10.12,19.21-15,33.25-20.26,4.45-1.67,25.59-11.62,29.75-.94-3.28,6.45-17.55,8.93-22.81,11.32-12,5.46-24.5,8.37-32.55,20.48-13.84,20.8,8,31.74,15.29,50.63,8.56-11.17,22.57-21.66,37.08-18.4,6.88,1.54,28.25,7.22,33.09,12.28-7.56,7.56-65.2,6.47-64.9,17,.18,6.42,4.27,3.56,6.09,6.06,2.33,3.21,2.24,5.77,4.54,8.74,3.67,4.73,7.5,10,10.87,14.45a137.6,137.6,0,0,1,17.61,31.34c2.34,6.08,5.51,13.09,11.38,18.09,7.51,6.4,7.94,7.11,18.38,3.24,13.53-5,26-8.2,41.38-2,13.59,5.41,11.73,9.3,1.26,14-13.63,6.18-30.67,5.85-44.41,12.93Z"/><path class="cls-1" d="M631,1356.58c4.85,0,23.17.31,25.31,3.54,6.92,10.46-12.43,6.53-17.35,6.54-17.5,0-42.79-5.93-57.06,2.49,7.57,9.8,12.5,22.37,21.06,31.12a180.11,180.11,0,0,1,24.67,31c3,4.84-.11,7.66,6.35,9.32s18.18-5.85,26.94-4c10.06,2.15,34.8,2.17,34.8,17.87-14.83,0-27.24,2.43-41.53,2.29-7.62-.07-18.29-2.26-25.33-2.16.61,0-9.82,2.08-10.1,1.87-5.67-4.28,4.74-9.12,5.14-13.34.77-8.11-14-19.08-19.26-24.79-11.43-12.52-20.87-23.64-30.78-35.91-4.13-5.11-8.49-6.82-12.52-11.11-4.47-4.76-8.35-14.43-13.17-20.2a91.67,91.67,0,0,0-13-12.57c-6.32-5-11.67-12.82-18.6-18.35-8-6.36-11.88-3.75-7.13-15.19,5.33-12.82,7.15-7.49,15.75-5.8,4.25.83.37,4.56,6.57,4.54,1.49,0,4.84-4.22,7-4.63,7.33-1.39,15.35,2.45,22.31,4.25,10.22,2.65,16.19,5.79,27.16,5.21s20-1.8,33-1.8c3.57,18.85-63.58,13.86-71.15,13.8C550.1,1361.56,608.07,1339.16,631,1356.58Z"/><path class="cls-1" d="M390.15,1520.75c-4.62-1.85-11.94-15.18-15.57-19-6.82-7.12-8.73-19.77-16.15-26.48-6.41-5.78-15.19-9.92-22.27-16.11-3.69-3.23-7.27-4.7-10.25-7.51-10.45-9.86-21.48-21.26-31.92-31.25-18.28-17.5-32.08-37.06-48.61-54.9C241.2,1361,229,1342.79,222,1350.77c-6.47,7.42,6,21.09,10.44,26.5,6.14,7.46,10.42,14.48,15.45,22.51,6.73,10.75,15.61,18.27,23.13,29.62,3.32,5,5.36,9.21,8.23,14,4.42,7.42-1,3.6,1,7.58,1.43,2.78,4.23.85,5.55,3.67,5.53,11.81,14.2,22.25,21,33.84,4.36,7.44,8.34,14.84,13.08,22,3.21,4.89,7.63,9.52,10.11,14.31,4.21,8.16,1.06,8.39,2,17.52.79,7.76,12.46,29.53,17.43,34.73,7.79,8.14,21.46,3,20.47-8.9-.17-2-7-13.15-8.76-17.38-2.1-4.95-6.79-10.59-9.09-15-2.92-5.65-5.51-10.07-8.87-16.8-3.83-7.69-6.63-11.4-3.87-18.59.15-.39,6.22-9.57,6.66-9.77,6.71-3-.75.29,5.15,3.76,1.2.7,4.82-1,5.74,0,2.94,3,4.75,6.8,7.52,9.92,5.18,5.85,23.6,26.89,32,28.42C399.63,1529,394.07,1522.32,390.15,1520.75Zm-52.4-35.3c-8.4,13.65-13.7,4.77-17.65-2.51-1.85-3.41-4.28-7.28-6.41-10.57a9.08,9.08,0,0,1-1.78-6.93,18.18,18.18,0,0,1-5.67-2.47c-4.39-5.58-5.49-8.69-8.51-13.81q-7.68-2.55-6.39-9.72l-1.61-4c-2.23-3.93-2.3-6.37-5.63-9.63,1-2.09,34,31.88,37.29,34.82C328.34,1466.89,340.81,1473.29,337.75,1485.45Z"/><path class="cls-1" d="M377.91,1686.66c6.77,0,9.19-30.36,10.79-35.64,2.25-7.4,7.58-14.29,9.26-21.54,1-4.29,0-8.19,1.46-12.47,1.56-4.5,5-7.1,6.55-10.41,5.07-11,7-39.81,23.59-32.24,14.37,6.56,12.46,19.51,8.35,31-2.7,7.52-8.07,14.93-9.76,20.09-2.52,7.72-5.38,15-8.22,22.9-.87,2.43-1.07,5-1.94,7.37-.49,1.36-2.72,7.3-4,10.73-2.14,5.73-5,9.2-7.94,13.92-7.3,11.59-7.23,28.65-13.09,40.8-1.19,2.47.74,3.12-.09,5.56-.73,2.16-4.77,2.13-5.73,5-2.16,6.35-.22,19.64-10.46,7.21-4,10.1-4.42-1.78-4.42-4.76,0-2.37,4.08-2.8,4.2-3.52.51-3.09-3.1-5.27-2.89-7.41a52,52,0,0,1,2.32-12.05C379.05,1701.94,377.91,1695.67,377.91,1686.66Z"/><path class="cls-1" d="M673.91,1478c0-15.19,10.08-16.1,23-11.34-.64-.23,17.82,8,16.31,6.21,1.64,2,1.53,12.24,1.68,13.75s7.55,2.23,4.73,5.26c-3.23,3.49-10-.72-12.79-1.25-7.13-1.36-13.39-2-20.18-5.66C683.79,1483.45,677.2,1478.87,673.91,1478Z"/><path class="cls-1" d="M732.19,1649.34l.43-.6h0l.42-.59h0c.14-.19.27-.39.4-.58l.19-.29c.13-.21.26-.41.36-.61l0-1.21a5.89,5.89,0,0,0-2.66,5.1c.26-.4.54-.8.82-1.19C732.19,1649.35,732.18,1649.34,732.19,1649.34Zm1.36,9.62-.16-.18c-1.22-1.09-3.39-2-3.6-3.29a.36.36,0,0,1,0-.1c.06,1.66,1.32,3.1,3.75,4.33l.55.27A2.58,2.58,0,0,0,733.55,1659ZM771.37,1698c5.32-5.84,16.3-11.13,9.64-19.43-19.14,4.33-15.06-15.75-15.06-27.85,0-16.09.62-27.7-2.06-42.25-2.61-14.16-8.53-30.54-4.53-45.1,3.45-12.56,3.93-18.93,2.55-32.9-.72-7.34-.11-11.33,0-17,.05-2.86-2.81-3.4-2-7,0,0,3.77-6.55,4-4.64-.81-5.8-3.87-6.64-7.62-8.42-8.36-4-13.43-.63-20.38,5.1-9,7.4-16.89,12.09-25.66,20.05a37.53,37.53,0,0,0-8.38,11.11c-.58,1.33-2.94,2.25-3.7,3.85-.93,2,2.19,3.66,1.68,5-1.15,3-3.71,7.18-5.22,10.1-.87,1.7-4.2,1.77-4.76,3.09-.68,1.62.86,4.52,0,6s-1.53,4.12-2.28,6c-3.71,9.18-9.65,15.5-15.68,23.81-7.55,10.4-8.36,27.59-14.74,39.08-2.58,4.65-5.54,8-7,13.71-1.44,5.42.53,7.61-.22,12.8-1.57,10.91-4.27,16.54-14.47,15.86,2.39,3.69,7.11,11,4.27,16.85-3.37,6.89-10-1.4-13.71,7.53-1.93,4.66,3.91,7.2,5.06,11.07,2,6.7.72,11.79-3.38,19.57A107.24,107.24,0,0,1,621,1734.2c-2,2.86,1.34,2-.33,4.54-1.05,1.62-5.65,1.89-6,3.78-1.56,7.91,5.25,9.28,1.61,20.94-1.69,5.38-8.35,18.69,3.24,23.15,5.37,2.06,15.5-5.11,19.94-7.53,9.91-5.41,9.45-6.12,11.47-16.83,2.14-11.3,5.46-25.86,9.95-36,7.12-16.09,30.36-7.26,46-8.33,3.72-.25,13.18-4.13,15.86-3.36,9,2.58,5.68,9.2,5.17,17a218.34,218.34,0,0,0,0,25.71c.24,4.44,1.34,11,1.52,16.63.25,7.61-3.56,12.19-3.49,21.13,0,7.22,0,15.12,3.07,21.91a36,36,0,0,0,11,13c2.32,1.65,2.41,3.7,6.31,5.66,3.55,1.78,23.25-2,16.25-3.95,8.34,1.7,1.91-5.72,3.33-9.58,1.73-4.7,9.16-12.37,8-18.71-1.42-7.7-7-9.17-6-20.34.14-1.55,3.64-4.13,3.88-7.47,0-.52-5.93-7.81-6.55-8.19,13.16-10,2.33-11.76-.53-21-2-6.56-1.35-1.18.07-9.57a8.51,8.51,0,0,1,4.81-2.81,5,5,0,0,0-1.61-6.22c1.54-8.91-4.68-16-2.59-22C766.91,1701.29,768.42,1701.25,771.37,1698Zm-19.5-165.57a66.43,66.43,0,0,1-1.4,19.56h0c-.1.47-.2.93-.31,1.38-2.51,10.57-3.46,19.76-9,28.21l-.46.71c-1.62,2.39-3.19,4.5-4.62,6.5-3.1,4.36-5.52,8.25-6.12,13.65-.08.81-.12,1.65-.12,2.53,0,.21,0,.38,0,.51v.18c0,.31,0,.64,0,1,.25,4.52,1.51,9.94,2.74,15.55,0,0,0,0,0,.07.72,3.25,1.42,6.57,1.9,9.81v0a40.16,40.16,0,0,1,.31,11.92v0a.22.22,0,0,1,0,.08c0,.31-.1.61-.16.91-.22.13-.43.26-.62.39a5.89,5.89,0,0,0-2.66,5.1h0v0a7.66,7.66,0,0,0,0,1,6.16,6.16,0,0,0-1.66,3.7c0,.06,0,.11,0,.17.06,1.66,1.32,3.1,3.75,4.33l.55.27.12,0a1.22,1.22,0,0,1-.09.46v0a3.36,3.36,0,0,1-.63,1c-.55.64-1.21,1.23-1.2,1.83v.39c0,1.6,0,3-.06,4.31-.59,12-4.83,10.51-20.13,11.48a68,68,0,0,0-7.23,1.07c-5.25,1-11.52,2.23-16.88,2.18-7.56-.07-13.32-2.73-11.89-12.42,0,0,0,0,0,0,.86-5.71,5.07-9.88,7.42-14.49a13.43,13.43,0,0,0,1.56-5.24c.32-5.27-.24-9,.12-13.48a36.57,36.57,0,0,1,.75-4.91c.16-.7,3.07-6.19,3.87-8.65,0,0,0-.09,0-.15.29-1.19,1.29-7.15,1.79-8.63a4.75,4.75,0,0,0,.27-.52c.93-1.9,4-8.36,4-8.36l.47-.75c.38-.6.75-1.18,1.13-1.74a55.83,55.83,0,0,0,4.22-7c.21-.44.45-.9.7-1.38,2.28-4.32,5.9-9.84,8.07-14.32A23.44,23.44,0,0,0,712,1577c3.23-11.46-.29-6.46-7-2.37-3.33-4.57-2.78-8.55-.69-12.08a27.55,27.55,0,0,1,4.08-5c1.87-1.9,3.86-3.66,5.46-5.31a18.24,18.24,0,0,0,2.07-2.48c1.45-2.18,2.54-4.26,3.59-6.2l.12-.22c2.28-4.21,4.41-7.78,9.7-10.28.56-.27,1.15-.53,1.78-.77l1-.35a12.1,12.1,0,0,1-1.47-1.86c-2.74-4.44,4.35-4,7-6l.21-.18c-2.2-2.8-1-3.94.87-5.37a15.79,15.79,0,0,0,3.33-3.09,2.62,2.62,0,0,0,.2-2.4c-.48-1.77-1.46-3.5,2.71-4.28a14.89,14.89,0,0,1,3-.29c5.49.15,2.7,5.49,4,9.07a8.24,8.24,0,0,1,.35,2.33C752.36,1523.39,751.57,1529.05,751.87,1532.45Z"/><path class="cls-1" d="M959.64,1403.42c0-3.38-18.32-23.28-21.47-27.54-1.95-2.64-4.37-6.65-6.29-9.32-1.19-1.65-4.72-1.25-6-2.72-.89-1,1-3.89,0-5-4.39-4.75-12.76-9.24-16.7-15.31-3.7-5.71-4.27-9.4-8.57-15.14-4-5.36-11.11-12.54-16.17-18.29-9.19-10.45-19.76-22.45-28.19-32.79-21.4-26.24-58.51-47.89-58.39-83.73,0-7.29-.76-14.78.06-23.06.56-5.62-.58-10.64-.1-16.13,1.23-13.86,3.85-25.25,1.09-37.7-2.4-10.9-1.91-33.36-3-46.08-1-11.11-6.67-25.41-7.18-35.69-.67-13.61.69-25.51-.8-38.36-.71-6.08,1-12.75.91-18.36-.07-5.28-2.42-10.83-2.89-16.49-1.41-16.9.53-32.8,2-49.67,1.61-19-.6-36.14-2-54.57-1.77-24-.44-50.78,2.22-73.2,2.06-17.35.76-33.81,3.93-51.42.59-3.27,2.71-7.37,3.79-10.41.2-.57,3.74-11.27,3.74-10.61.28-6.7-4.21-10.76-3.65-19s4-14.12,4-23.14c0-7.81,1.64-15.27,2.23-21.37s-1-11.95-.2-17.31c.48-3.29,1.82-6.36,2.31-9.75s-1.91-8.8.37-12.47c16.1,13.53,29,27.43,47.14,37.76,12.23,7,23,12.6,30,26,4.41,8.42,7.21,14.94,11.37,22.75,5.88,11,5.76,24.22,12.65,33.59,6.1,8.29,8.39,6.18,12-5,.6-1.87-.76-17.54.94-19.17,8.52-1.65,14.66,12.87,23,14.79,10.92,2.52,14.89-13.33,12-23.51-6.58-23-32-33.41-44-50.42-7.89-11.21-15-13.81-25.18-23.24-8.23-7.65-18.73-16.28-23.82-25.7-3.37-6.25-9.94-16.14-18.81-22.91-9.52-7.28-18-7-29.14-7-7.92,0-15.85-.09-23.77,0-8.58.1-16,4.16-24.22,4-9.85-.2-20,2-32,2-12.21,0-27.48-1.1-38.7.05-8,.82-14.44,4.12-22.3,3.72-7.32-.36-15.4-1.77-23.38-1.77-18.28,0-38.51.66-55.32.27-16.52-.39-39.29,14.2-57.61,9.68-6.63-1.64-12.92-7.24-19.73-9.8-3.91-1.46-9.41-2.55-13.05-4.51-5-2.7-4.93-1-6.85-5.64-2.1-5.07,5.46-12-2.12-14.75,4.18-4.46,3.68-16.39,7.09-19.26,4.83,5.32,12.69-5,7.11-9.1,1.89-1.81,8.7.79,9.09-3.15.48-4.76-3-3.73-3.24-7.72-.5-7.42-1.62-8.63,4.93-16.06,2.68,1.84.15,5.9-.65,7.68a11,11,0,0,0,7.58-.44c-4.05-7-7.3-13.65,3.31-8.79,1.78-5,9.7-8.22.48-11.31a17.14,17.14,0,0,0,6.05-8.69c-7.11-3.37-8.17,7.47-11.25,7.18-.89-5.61-1.7-7.67-8-5.84-.13-7.42,10.15-6.66,15.15-9.67,1.92,12.61,7.39-5.86,7.89-9.65,0,.34-2.46-2.3-2.08-4.85.86-5.82,3-.66,4.64-4.24,4.38-9.31,4-19.76,6.14-28.64.89-3.66,3-9.77,3.88-13.72.62-2.81-.78-6.12,0-8.88,1-3.68,5.93-2.84,6-6.95a11.32,11.32,0,0,0-5.57-4.08,18.27,18.27,0,0,0,2-5.28c.21-4.05,4.35-8.48,5.53-12.09,1.68-5.08,0-12.68,2.06-17.27,2-4.27,9.44-3.84,9.66-8.19-.48.12-6.81.05-6.82,0l-2-2.42q-2.5-4,2.11-5.13c-.1-1.57,4-11.93,4-12.7.71-6.68,6.24-28.27-.75-30.65a11.72,11.72,0,0,0,2.93-4.44q2.58-3.49-2.87-5.83c1-2.29,6.37-2.81,6.51-3.66.69-4.13-.37-9.12-.45-14.19,0-2.1,2.08-3.7,1.38-6.42s-3.2-5.52-3.6-7.57c-3.23-.06-4.59-1.16-4.1-3.29-.12-2.71,1.83-4,5.83-4,.94-1.42,4.56-.35,6.21-3.41,2.8-5.18-.12-17.31-.09-21.33,0-4.72,1.26-10.69,1.85-16.3.15-1.46-3.73-3-3.75-5.36,0-3.95,2.5-6.73,1.89-11.44-.87-6.7-4-12.65-11.43-5.7-1.31-7.82,4.5-2.33,8-7.85,2.09-3.25-.84-5.95-1.49-8.78-.9-3.89-7.12-12.38-3.1-16.8-9.88-4.65,3.78-4.88-6.45-11,5.13-5.54-2.57-25.37-10.63-18-1.75-1.63.75-15.2-1-19.66a84.41,84.41,0,0,0-5.8-9.06c-.2-2,1.17-6.25.94-7.35-.28-1.37,4-2.85,2.83-5.81s-7.55-4.52-10.3-7.41-3.69-6.83-4.74-8.4a5.23,5.23,0,0,0,.31-6,13.32,13.32,0,0,1-7.6-1.74,53.68,53.68,0,0,0,8.54-1.37c-3.83-13.57-12.79-30.2-26.36-37.29-7.1-3.71-12.72-3.84-20.78-3.85-3.12,0-20.41-1-22.81,5.25,6.93,4.75,14,2.5,21.35,4.86,10.83,3.47,18.1,11.43,22.53,21.41.9,2,8,20.25,7.54,21.3-3.3,8.45-6.76,3.54-12.61,5.14-1.75.48-8,2.57-12.31,1.81-1.78-.31-6.62-6.67-6.53-8.55.25-5,6.71-8.23,7.2-13.59.86-9.48-8.34-10.89-14.79-16s-7.29-7.48-17.57-7.55c-4.4,0-15,.64-18.64,2s-8.44,9.49-12.88,12.05c-5,2.9-3.85,3.6-10.38,3.8.14,0-13.11-6.61-12.64-6.06C394.74,21,383,11.91,365,6.71,349.53,2.26,325.71-5,310.8,5.08c-6.16,4.17-10.64,8.91-16.87,13.2-3.73,2.58-11.46,7.7-10.06,10-9.68,1.1-17.22,16.93-21.42,22.37-2.55,3.31-5.34,8.36-9,12.87-5.65,7-5.22,8.11-9.05,15.11C243,81.27,238,86.09,236,89.87c-3.26,6.17-4.14,10.9-11.11,15C216,110,203.52,110.55,194.07,113c-14.21,3.72-23.75,7.15-32.16,18.48-9.18,12.36-12,21.2-26.25,21.91-25.84,1.28-5.09,2.6-2.4,14.64,1.11,4.92-5.7,12.4-3.74,15.95,2.76,5,7.76,2.11,10.27-2.31a11.66,11.66,0,0,0-5.8-4.13c3.86-3.11,13.48-8.25,10-11.84,2.72-1.27,5.92,1.94,7.41.51q1.4-2.67-1.17-4.87c3.62-2.84,16.93-9.12,21.74-5.79-15.28,8.88-33.63,29.19-29.86,44.7,1.58,6.49,6.73,10.92-4.07,17.76-6.12,3.88-6.38,6.06-11.75-.52-.48-.6,9-4.46-.49-7.66,2.71-3,1.14-6.5,2-9.13.64-2.08,2.51-2.88,3.6-5.34,0-1.28.81-8.4-.63-6.48-3.05,4.9-7.05,7.25-10.06,12.45-4.42,7.61-1.85,9.35-1.37,15.68.5,6.57-1.6,6.64-3.68,11.71-1.93,4.74-6.79,7.22-1.65,13.21-2.75,1-4,11.59-6.32,16.86-2.42,5.64-8.84,14.85-1.27,16.4-4.41,5.38-13.25,11-6.52,18.54-7.93,6-3.58,3.86,1.08,10.92,2.9,4.39,3.87,4.64,6.18,10.21,4.17,10.11,6.7,21.22,11,29.68,10.2,20.26,21,38,36.78,55.21,2.9,3.15,6.42,7,9.39,8.83,1.3.8,10.39,3.46,10.82,4,4.26,5.45,3.85,14.63,6.57,20.76,2.19,4.92,5.09,8.78,7.11,14.38a220.66,220.66,0,0,0,15,32.24c2.57,4.69,7.17,10.69,9.21,14.61,2.78,5.33,2,11.51,7.22,14.78-4.16,6.1-5.24,39.53,1.35,41.91-2.58,5.83.46,4.61.13,9.58-.19,2.79-3.09,1.37-3.76,4-.45,1.77.82,5.35,0,7.08-1,2-5.62,4.22-6.3,6.45-1.06,3.46,4.14,11.81.86,14.7-2.76,2.44-10.7-.19-14.22.24-18.7,2.29-38.17,4.64-57.49,7.34-22.58,3.16-47.07,3-69.15,6a121.75,121.75,0,0,1-27.2,1c-5.83-.47-21.09-5-25.73-2.77-2.2,1.07,1.43,4.63,1.16,4.81-2.64,1.8-6.71,3.85-8.77,6.09C6.41,620.89,5.33,624.25,0,629.58c4.1,6.84,6.55,6.37,8,13.28a91.47,91.47,0,0,1,2,14.9c.81,13,.77,26.27,1.83,39.07.4,4.85,0,9.92,0,14.79,0,4.43,1,9.88,2,16,1.49,9-1.16,18.59.46,27.62.56,3.11,3.44,8.22,3.46,10.37,0,2.68-3.75,6.2-3.9,9.68-.34,7.58,2.89,18.69,2.2,26-.34,3.59-3.89,9.81-4.24,13.48-.59,6.17.43,12.49,0,18.68-.6,8.59,0,20.34,0,29.08,0,9.23,2,14.37,2,23.15,0,9-.06,15.43,2,22.06,2.94,9.53,2,19.41,2,30.16,0,19.25.1,40.18,2,60.72,1,10.72.77,22.07,2.2,32,1.74,12.14,2.64,21.2,3.89,34,.89,9.11,5.79,20.16,5.77,29.15,0,12.35-1.87,22,.05,33.79,2.28,14,8.8,26.39,12,40.23,2.24,9.68,1.57,19.42,2.24,25.58,1,9.32,3.72,21.68,3.75,30.36,0,4.84-.76,12.19-1,17-.31,5.54-6.81,14,1.15,18.71-4.64,5.62,3.14,8.24-.64,15.16q-4.82-1.26-7.22,2.85-5.16,3.52,1.14,5.74c.41,6.93,5.19,18,8.85,23.39,4,6,11.58,14.67,17,22.41,6,8.62,11,17.56,17.87,25.57,12.81,14.89,25.65,30.57,38.5,44.15,6.22,6.58,12.58,14.82,19.08,21.58,2.7,2.81,15.8,16.12,18.33,16.43,9.34,1.14,3.12-3.25,8.52-4,13.21-1.79,26.52,14.17,32.49,25.23,7.55,14,29.71,28.9,44,42.14,5,4.65,9.81,11.38,15,16.42,5.67,5.48,11.08,12.13,17.28,17.63,6.88,6.09,13.79,9.34,20.31,14.45,4.93,3.87,4,9,11.17,7.34-1,0,8.76-11,10.31-12.18-21.43-27.65-45.83-45.09-67.65-73.54-11.57-15.09-27.7-22.74-39.39-37.74-4.77-6.12-25.31-38.12-30.14-33.82-4.45-9.17-10.92-15.64-16.34-24-1.81-2.77-5.06-3.43-6.43-5.69-.91-1.5.89-4.61,0-6.13-2.55-4.34-6.3-8-9.63-11.74-2.84-3.18-8-7.36-10.28-10.25-.4-.51-3.4-.13-4.11-1.08-.91-1.21-.55-6-2.08-8.17-5.31-7.42-14.74-13.66-18-22.32-2.52-6.64,4.57-18.9,9.71-22.51,8.06-5.67,26.41-7.76,37.84-8.62,19.31-1.45,38.15-4,58.48-6.48,5.68-.68,15.43-2,21.08,1,5.29,2.79,8.11,11.58,13.69,13.7-.3-.11,13.38-2.38,12.65-1.82,6-2.84,8.95-8,14.38-10,4.57-1.67,17.84-1.26,22.47-1.15,27.13.66,59.74,2.1,87.46-2.43,18.33-3,38.53-6.06,56.19-8.32,9.29-1.19,15.75-1.19,25.88-3,2.18-.38,9.13-3.15,11.13-3,7.4.71,4.3,5.41,9,8.88,11.12,8.22,2.44,1.15,9.63-3.55,1.93-1.26,1.34-3.84,2.83-5,4.06-3.07,3.77,2.08,6.44,1.2,5.43-1.79,8.13-3.65,15-3.69,21.62-.13,42.15-1.57,63.18-3.09,17.3-1.24,35.67-3.49,54-4.91,16-1.24,36.44-7.61,50-10,16.37-2.83,27.67-4.7,43.27-5.91,12-.93,16-4.57,25.05-.06,9.43,4.7,14,13.64,21.4,21.59,13.88,15,22.9,31,33.17,47.24,5.13,8.11,11.26,18.08,17.73,25.68,8.13,9.55,9.33,7.43,20.85,9.27,14,2.23,31.4,33.25,42.9,46.68,8.16,9.53,18.29,20,27.93,27.91,4,3.27,11.9,9.33,16.61,10.6C961.54,1423.33,959.74,1414.75,959.64,1403.42ZM562.55,247c-3.17,8.3-1.07,12.8-5.64,19.63-2.49-4.26-12.95-12.16-13-14.56-.11-3.34,15.9-6,4.47-9.91C550.64,234.14,566.22,243,562.55,247Zm-26.78-53.66,4.14-2.92c1.52-8.27-.55-13.1,2-21.31,1.15-3.72,6.2-20.49,11.27-22.44,4,4.67,3,16.64,2.85,23-.14,8.73.1,15,4.36,20.7.54.72,4-3.7,5.51-.5,3.93,8.05-2.85,8.79-3.62,9.21a9.83,9.83,0,0,0-4-4.67q-3.88,8-10.11,1.32c1.29,0-11.48-2.51-12.38-2.37l0,0S535.73,193.37,535.77,193.37Zm12.57,407.86c4.78-1.83,10,1.43,15,.9,2.94-.31,6.81-2.69,9.59-3.48,6.69-1.89,15.48-3,22.3-3.91,16.83-2.2,30.67-2.07,48.26-2.08,35.54,0,72.14,2.59,107.19.06,7.54-.55,16.16-4.31,21.53,7,3.9,8.21,3.16,20.86,1.69,29.77-2.32,14.11,3.27,25.7,0,40-2,8.59-2.29,14.07-2.77,22.73-.33,6.07-2.72,16.44-3.23,23.41a382.55,382.55,0,0,0-.09,46.3c.95,18.26,2.83,41.2,3,56.76,0,3.72,1.67,24-.78,26.58-7.34,7.63-5.72-11.19-7.11-15.23-7.78,4.38-3.75-1.2-11.35-2.37,6.52-3.14,3.95-3,.93-7.56-3.16-4.78-5.84-.94-10.54-3.55-5.73-3.19-9.29-3.48-2.11-11-7.87-4.47-3.73-9-8-16.08-3.65-6-5.34-6-13.61-6.9,0-3.37,6.43-.75,5.57-4.84-.73-3.45-1.59-3.31-2.57-6.64-2.23-7.58-10.21-13.6-16.24-18.16-3.64-2.75-9.35-4.2-12.26-6.46-7.84-6.09-8.25-13.67-15.8-19.68-10.29-8.18-24.84-18.37-35.51-24.24-6.39-3.52-7.33-5.67-13.49-11.91-2.24-2.27-11.83-11.39-14.87-12.36-6.28,13.12-5-4.52-5.22-4.87-4-5.77-10.51-9-17.78-11.56,5.91-9.47-12-28.54-17.9-34C567.52,623.61,544.88,608.51,548.34,601.23ZM691.33,865a235.41,235.41,0,0,1-17.46-43.51c-1.65-5.85-2.15-10.94-4.74-16.89-3.75-8.62-6.83-15-10.62-22.66-4.16-8.36-6.32-11.34-12.51-20.11a10.72,10.72,0,0,0-5.84-3.69v-6.47c-1.87-3.12-3.31-3.85-5.9-8.36.13,0,.77-2.89-.11-4.39-2-3.41-7-5.76-9.14-8.25-3.18-3.68-14.74-16.6-12.7-21.59,2.53-.59,29.78,20.12,33.79,23.14,3.51,2.65,5.87,6.94,9.13,9.83,5.08,4.5,11.38,7.7,16.53,12.47a100.3,100.3,0,0,1,8,8.23c1.57,1.84,7.94,4.26,6,8.65-3.49,8-14.72-3-14.09,10.84.11,2.52,5.21,3.8,6.15,6.65,1.38,4.21-2.14,11.43,0,15.23,3,5.31,6,1.77,8.49,4.51C691.24,814,700.66,831,699.88,839c-.75,7.74-6.6-1.2-3.25,7.67.21.56,5.94,1.92,7.07,5.9.77,2.73-5.4,1.52-5.73,4.92-.41,4.25,5.89,16.92,7.63,20.53-.92.69-10.05-1.22-12.49-1.74-.09.22-.3.2-.64-.13l.64.13C693.82,874.72,689.41,861.57,691.33,865Zm-54.27,73.49c-5.34-1.13-3.5-9.44-5.23-14.29-5.73-16-12.4-29.48-16.81-46a133.73,133.73,0,0,1-3.52-17c-.94-6.61-5.56-11.5-7.59-17.43-1.23-3.58-1.71-8.93-2.71-12.73-2-7.63-5.79-10.79-9.1-17.42-2.62-5.25-5-10.24-6.16-15.73-.69-3.17-.88-9.89-2.29-12.58-2.08-4-4.74-1.4-5.84-5.39-1-3.61-2.64-9.78-1.55-12.08,4.2-8.9,5.36-2.61,9.7.84,12.13,9.64,10.92,21,17.89,32.47A85.57,85.57,0,0,0,615.15,815c2.3,2.08,9.47-4.87,8.75,6-.3,4.59-4.49,2.74-5.79,6.88.7.7,4.64.8,4.63.71a76,76,0,0,0,2.84,10.76c1.57,3.83,3.81,7.49,4.51,10.15.85,3.24-.2,5.5,1.79,8.21.7,1,6.66,2.44,8.7,5.94,1.66,2.86,3.1,10.77,3.21,13.88.13,3.53-3.24,6.32-1.87,10,4.76,12.81-1-3.82,4,5.13,2.81,5.1,18.51,13.11,2.17,14.28,5.23,10.81,10.46,1.84,17.86,6.7-1.62.83-17.74,13.08-17.93,12.68C650.25,931,641.41,939.42,637.06,938.51Zm-45.22,101.22-3.06,3.06a75,75,0,0,1-15.68-24.08c-1.18-2.87-8.16-17.74-7-21.24a12.55,12.55,0,0,1,7.11-.91l4.79-6c1.23-.74-1.92-8,3-5.91.31.14,4.28,17.06,4.74,19.43.95,4.92-2.14,13.4.29,19.35.72,1.76,4.63,4.49,5.89,8.21C593.39,1036.13,588.47,1036,591.84,1039.73Zm-97.93-320c-2.15,6.11,6.81,9,3.56,17.68,8.11,4,2.73,15.78,3.31,22.66.35,4.05,3.53,8.51,3.1,14.26-.15,2.06.17,4.17,0,6.23q-6.35,2.36-3.05,6a8,8,0,0,1,1.13,7.74,130.14,130.14,0,0,0-2.09,13.47c-.52,3.89.14,8.8-2.13,12-2.92,4.19-10.11,4.48-14.48,8.58-4.07,3.81-7.51,9.07-11.73,12.86-14.95,13.4-36.43,23.86-54.52,33.49-3,1.6-20.69,12.76-24.3,9.95-4.16-3.24,3.47-17.32,5.12-20,3.38-5.55,4.27-7.79,4.27-13.62,3.42.93,7.06,3.39,7.88-1.24,0,0-14.09-6.62-4.55-7.6,4.47-.45,9.09,5.29,6.25,9.74,8.69,4.39,24.41,12.77,34.28,1.39-7.36-5,0-9.21-9.68-11-.42-5.71,13.85-4.67,3.19-12,3.56-3.91.77-12,.44-17.9-.49-8.6,4.47-14.5.15-18.48,2.27-2.84,2.39-19.72-2-22.46a5.22,5.22,0,0,1,7.06,1.39c.43-1.24,3.08-5.52,2.65-7.22a8.45,8.45,0,0,0-9.27.82c-1.12-1.67,2.31-28.15,2.82-30.75,1.49-7.53,5-8.21,2.45-16.85-1.47-5-5.53-7.43-3.9-16.66s4.38-15.33,4-22.43c-.49-9.26-2.57-23.43,4.26-30.26-7.54-5,.58-11-5.83-13.26.66-8.92,6.18-17.61,8.58-25.16,1.16-3.63.84-7.3.94-11.29.19-7.52.86-10.06,4.3-17.88,2.2-5,3.09-32.16,9.75-17.17,2.3,5.18-1,19.75-7.94,20.43a20.63,20.63,0,0,0,6.94,9.59c2.41-5.22,6.76-16.07,6.79-4.79q-3.72,2.49-1.89,7.33-6,5.25,2.08,7.88c0,3.87-2.31,6-.11,8.73a24.54,24.54,0,0,1-5.87,1.29c3.46-11.57-4.42-12.65-8-3.93-.19.46-2.39,16.05-2.25,16.49,2.34,7.25,13.11,1.68,7.27,13-3.6-3.34-3.57-1-7.09.85,2.87,3.14-2.38,5.71.12,8.26,2.09,2.13,7.41-3.47,8.9-1.06,3.08,5-6.48,7-8.89,10.94-1.35,2.23,1.83,4.82,1.6,5.73-.9,3.51-8.78,18.34,1.21,17.38,2.91-.28,1.45-8.86,6.11-8.06,1.68.29.73,8,.71,9-.12,7.32-2.13,6-3.57,8-.62.88-3.56.63-5.12,4.9-.95,2.57-.45,4.79-.63,7.41-.51,7.64,2.1,15.4,2.6,22.12.29,3.82-1.32,8.77-1,14,.5,7.56,4.21,11.68,6,18.75.59,2.37-1.27,5.83.05,9.68.48,1.41-.46,3.3,0,4.72,1.16,3.62,5.4-1.14,5.9,4.39-3.06,3.67-3.84-.85-5.85,4-.47,1.1.3,4.56-2.1,8,7.66,7.26,27.54-2.09,20-10,6.66-8.54,7.34-4.54,8-15.11a68.85,68.85,0,0,0,0-8c-.1-.54-3.34-10.35-3.34-8.65-.27-5-2.33-28.44-.33-30.64-.9-.69-8.38-6.27-1.78-6.62C488.36,710.41,491.06,716.83,493.91,719.71ZM492.29,972c2.77.85-8,12.83-6.37,2.81.59-3.69,6.23-6.55,7-8.11,3.15-6.2-1.39-9.52,1.52-15.62,6.41.7,4.89,21.54,5.55,26.07,1.29,8.85,8.37,31.19-7.35,17.59q.27,4.5-3.87,4.13-2.91-3.74,2.26-5.64c0,.89,1.1-11.73,1.2-11.92C500,975.15,495.7,973,492.29,972ZM470,991.53a24.59,24.59,0,0,1-8.85,5.51C457.69,991.51,466.19,983.11,470,991.53Zm-71.9,50c8.46-4.44,12.19-5.11,13.88,4.06-6.39,6.44-3.62,13.66-9,19C394.85,1055.29,403.86,1048.38,398.1,1041.52ZM360,749.72c12.5-13.16-11.37-1.26-4.14-10.09-5.5-2.62-2-11-7.86-13.82,4.53-5.17-6.29-10.15-3.06-15.11,1.48-2.27,9.43-.67,12,0,10.07,2.68,9.12,3.59,17.18-2.08,8.6-6.06,9.85-13.15,17.86-18.93,0-.83-8-24.23,1.52-15.16-.28,0,.52,14,.73,15.64.45,3.49,1.12,7.73-.31,11.93-1.52,4.48-3.85,3.78-4.65,9-.33,2.15,2.64,8.11,2.59,10.57-.13,6.35-1.92,19.58-4.2,26.27C385.58,750.05,362.08,751.83,360,749.72Zm15.7,341.8v10.83C365.81,1098.89,362.21,1066.54,375.67,1091.52ZM340.83,882.67a31.93,31.93,0,0,1-1.23-9.32q-3.64-.69-7.29-1.31c1.29-1.19,9.9-9.74,10.3-11.4,1.49-6.26-1.15-5.1-2.81-10.92-2.21-7.74-2.31-15.17.86-23,6.12,4.78,10,.84,13.08,10.94,1.34,4.4-.05,10.52,0,15.16.07,6.44,4.11,27.34-.92,31.49a2.48,2.48,0,0,1-1.05-2.82C349.37,879.12,343,880.72,340.83,882.67ZM451.38,479.14c-4.44-6,2.79-6.18,6.69-1.07-5.32,1.31-4.66,5.61-7.92,8.6-3.51,3.23-5-.25-9.48,4.23C431.4,480.86,456.34,485.78,451.38,479.14Zm10.88,20.2c2.95-3,2.45-5.66,7.77-3.94-5.75,6.39,3.67,11.09,3.44,14.12-.45,6-6.78,16.15-12.7,19.16-4.43-5.42-2.58-9.58-.72-16q-5.55-3.64.84-6.19T462.26,499.34ZM471.42,465c4.87-4,4.33,7.43,6.51,8.63-1.38,9.11-5,23.83-8,6.57C469.56,478.17,470.27,465.9,471.42,465Zm13.86-282.6,6.47-4.21c0-5.79,3.08-7.4,7.24-11.56,3.85,5.5-.64,14.33-1,19.45-.51,7.57.19,7.16,1.44,12.71,1.39,6.15,5.87,22.32-6.35,10.1-4.28,4.43-3.35,10.08,1.9,13.73l4.16-4.16q.39,5.26,2.24,2.74c2.68,5.85-8.17,5-10.15,7.09a9.76,9.76,0,0,1-5.53,3.33l1.68,4.08c-.22.33-2.62,4.65-3.34,6a.4.4,0,0,1-.07.16l-.09.15c0-.07.09-.17.16-.31.17-.72-5.61,4.92-5.79,5.19-.76,1.08,2.38,4.09,1.64,6.17-.94,2.66-7.66,9.54-9.79,10.91-3.83-3.87,6-32.63,4.53-38.83-.63-2.54-.72-5-2.14-8.47-.06-.16-5.06,4-6.08-.69-1.65-7.62,6-11.16-.56-18.45q5.89-.94,11.85-1.3-1.56-6,3.08-9.53C485,190.37,489,187.34,485.28,182.35Zm-23-98.29c2.06-16.47,19.51-11.43,12.44-3.61,13.88.62,9.43,9.11.18,12.16-4.42,1.46-10.82-4.62-13.33-4.51C467,81.92,462.72,87.47,462.31,84.06ZM456,152.22c0-4.91-1.28-4.94,4.49-5.71-5.05,6.77,2.66,1.44,3.29,7,.33,2.9-2.05,6.54-1.48,9.4,1.27,6.36,9.05-.47,1.22,8.67-3,3.44-9.45,8.32-13.75,3.92,5.31-1.78,5.33-15.42,0-19A7.16,7.16,0,0,1,456,152.22ZM447.9,339.14c0-11.62,6.82-8.79,8,0,.82,6-4.27,19.32-6,25.36-1.86,6.64-7.69,18.75-1.8,25.44-2.12,1.46-10.24,22.58-9.71,22.72-11-2.9-4.77-.35-4.28-9.83,0-.66-.14-11.48-.23-12-.46-2.75-3.88-6.91-4-9.19-.26-7.32,7.89-15.25,9.88-21.89.51-1.71-5.55-4.19-3.88-8C437.45,348.27,445.24,342.72,447.9,339.14ZM379.07,56.44c1.77-3.85,6.6-13.68,10.34-15.92,5.33-3.2,7.64-2.3,13.49.14,2.35,1,11.29,7.49,11,10.31-1.14,10.12-33.11,13.09-37.9,6.22ZM360.15,85.88c4.31-8.19,3.38-2.19,9.66-3.26,1.59-.27,8.28-3.45,9.46-2,3.12,3.94-4,5.25-5.28,6.92-6.91,8.92-5.17,5.65-14.1,2.37Q363.58,87.85,360.15,85.88Zm-10,27.57a36.43,36.43,0,0,1,9.62-5.06c1.47,8.39-5.83,4.15-8.67,10.2A4.67,4.67,0,0,1,350.12,113.45Zm-13.76,3.88c2-2.61,7.14-4.8,9.79-3.81C345.2,114.45,331.75,123.41,336.36,117.33Zm-28.31,80.19c2.86-4.89,8-3.2,5.88-10.83,6.37,3.24,11.14-3.27,15.17-8.56,1.51-2,2-4.64,3.5-6.61,2.15-2.76,4.75-1.51,6.68-2.89-.82.41,6-8.65,5.69-8,4-6.42,7.1-6.73,11.32-11.51,4.72-5.35,9.6-9,15-16.34a39.73,39.73,0,0,0,4.06-1.82c1.49-1.26,1.89-4.77,3.15-6.3.25-.31,14.45,2.29,3.41-2.9,4-7.1,19.81-19.25,26.26-14.32-3.19,6.49-5.46,15.09-5.07,21.07.45,6.89.64,11,4.43,17.74,3.91,6.94,9.5,10.4,1.07,14.43-3.88,1.86-11.29-.59-15.65,0-5.87.79-10.7,4.83-17.5,8.9C363.33,176.78,355.26,185,342,191.72c3.06,6.16-31.92,15.92-38.07,10C305.2,199.68,308.92,201.16,308.05,197.52Zm-50.51-68.75h3.83C263.81,138.63,238.61,147.7,257.54,128.77Zm-44.81,52.07c2.42-2.11,15.09-9.78,18-10,7.83-.7,8.75,7.56,11.14,14.39,1.92,5.48,6.3,13.65.31,17.44-3.18,2-9.47-2.57-13.38-1.89-13.21,2.28-15,16.65-25.94,28-.06-.11-2.61-19.09-2.84-19.09C207.68,205.34,205.32,187.31,212.73,180.84ZM176.54,388.29c-1.88-4.27-20.65-14.81-16.1-21.19,6.7-1.49,15.87,18.4,21.63,20.38A5,5,0,0,1,176.54,388.29Zm9.35-39.46c-1.87-5.74.51-8.12-2.89-14-1.27-2.19-10-7.56-9.09-10.71,3.65-12.05,18.72,9.51,20.42,13,4.61,9.44,13.67,22.56,13.56,32.27C207.82,371.39,187.79,354.66,185.89,348.83Zm-142,276.8c8.46-8.28,38.54-3.67,51.36-6.86A343.14,343.14,0,0,1,145,610.66c12.79-1.23,27.62-8,40.14-5.82,20.92,3.59-14.32,24.55-11.16,38.78-1.87,2.15-9.65,4.5-12.14,5.1-2.27.54-12.06.22-12.49.44-5.3,2.71-3.37,14.52-8.54,21.84-7.25-10.32-11,2.62-12.85,6.66l-5.81,5.81a5.91,5.91,0,0,0,.92,5.41c-.9,1.49.54,11-3.93,1.92-.42,1-8.68,11.29-8.41,10.14-2.16,6-5.27,5.33,2.93,10-2.26,12.08-11-5.22-12-7.62-3.11-7.44-10.23-17.32-14.95-22.68-7.07-8-14.29-18.1-21.45-27.39C60.54,647.21,42.28,634,43.92,625.63Zm94.37,167.52c-3.91,4.18-1,3.77-1.43,7.46q3.84,3.18,1,9.14l-3.9,3.9c-.7,2.69-2.6,3.7-3.26,6.37-.38,1.56,1.82,6.82,1.24,9.41-1.89,8.38-9.77,8.12-13.4,15.81-2.57,5.47,3.46,11.43-2.45,18.54q3.06,2.15,5-1c7.42,7.42-8.81,18.63-12.93,22.75,1.57,3.37,9.21.75,11-.7a9.19,9.19,0,0,1,1,4.8c-1.72,1.68-5.24-2.54-7.77-.39.59,3.53,6.67,3.26,6.73,3.51,1.41,6.26,2.34,11.34-2.33,16.25-1.85-4.49.37-14-7.83-12.24-7.2,1.54,1.24,7.64,1.51,9.28,1.6,9.77,2.27,20.79-8.67,25.54.31.19,4.49,14.12,4.52,14.12.41,7.1,4.3,7.26-5.23,9.05-13.15,2.47-36.87-7.35-12.32-17.07-9.82-3.63,1.52-3.48,1.33-9.91-2.67-3.65-10.92-.59-5-7,9,8.88,12.81-24.26,13.85-30,1-5.44,4-10.25,4.88-15.1.47-2.59-3.56-3.4-3.39-4,1.21-4.24,5.22-8.88,6.83-12a9.12,9.12,0,0,1-.9-6.22,25.72,25.72,0,0,1,9.6-7.79c.32-.62-2.06-7.91-1.82-8.74,1.84-6.38,4.52-12.39,5.94-18.19,1.26-5.12-1.3-5.06,1.31-10.47,1.41-2.91,6.83-6.07,8.5-9.28,1.36-2.61,4-20.12,7.66-20.38C142,778.25,136.45,790,138.29,793.15ZM50.61,1120.56c-2.74-9.74-2.77-18.88-4.46-29.4,0-.24-1.21-13-2-11.7,4.63-7.37,11.32,1.28,11.72,6C56.2,1089.28,53.49,1121.51,50.61,1120.56ZM65.34,844.23c2.11,3.16,1.55,11.26.58,16.06-.49,2.44-2.16,4.84-2.57,7.13A41.18,41.18,0,0,0,63,878.48c0,.29,4.18,8.82,4.91,7.6-.79,2.09-4.06,4.16-3.82,3.71.92-1.79-5.32,2.74-6.13,4-1.74,2.62,3.59,2.71,4,5.9-10,10.33,3.7,8.47-1.8,18.22.62.86,5,1.36,5.85,1.73-4.13,4.28-13,6.87-11.26,14.78,1.49,6.92,7.26,4.09,7.21,11.3-1.34,1.5-5.42-3-6.78-1.09-3.32,4.6-3.5,8.68-5.43,13.74-3.07,8-.78,11.87-1.74,18.87l2.21,3a9,9,0,0,1-5.67,5.1c-1.13,3.68-4.79,7-2.56,12.27.91,2.14,5.76-4.88,11.36,2.76-18.36,8.87-16.27-11.78-17.36-22.61s-2.4-19.54-2.11-31c.3-11.73-.59-29.69-.74-41.73-.22-17.84,2.48-37.38,3.85-54.21,1.15-14.15,1.45-23.54.06-38-1.49-15.58-4.34-39.16-2.93-55.18,2.09-23.81,3.8-51.26,6.47-78.38.37-3.73,1.09-6.27,1.48-9.82s-3.73-13.32,2.23-12.24c5,.92,10.43,18.85,14.07,23.16,7.89,9.39,11.32,15.27,17.74,25.62,2.7,4.35,8.9,13.32,12.87,16.63,2.51,2.09,10.94,2.56,12.8,5-2.89,3.68,3.41,4.87.72,11.59-1.15,2.86-6.22,1-8.56,4.51-2.23,3.35-1.48,16.5-2,19.19-1.35,7.13-2.55,18.23-4.25,24.65-1.14,4.29-5.18,9.42-5.14,14a16.21,16.21,0,0,0-.6,7.89A8.68,8.68,0,0,0,86,810.61c-.38,9.49-18.49,16-10,25.21C71.28,837.47,68.87,840.7,65.34,844.23Zm53.77,224.23c-2.53-2.43-5.17-4.13-7.07-6.36-2.27-2.66,5.41-10.66-5.71-8.84-6.87,1.13-2.32,10.5-.65,12.17-4.44,6.48-4.15,5.9-5.93,15.33q6.39-6.27,6.83,1.82c5.53-4.4,17.29-6.41,6.44.73,12.55,5.94-6.92,5.75-9.73,8.93-5.72,6.48-1.87,3.16-2.16,6.62-.13,1.53-3.09,9.33.5,9.9,2.89-2.89,9.79-18.5,15-16.1,7.72,3.54-.34,11-.26,15.48,0,2,3.49,4.36,3.5,7.94,0,1.4-1.94,2.74-1.89,3.47a47.43,47.43,0,0,1-2,17c-.24.85-4,10-4.13,10.91-1.83,10.48-.58,23.49,0,30.09.48,5,1.69,17.43-.07,24.14-2.06,7.87-8.87,12-15.27,18.41,5,2-2.59,10,4.37,10.42,3.36-3.17-1-6.83,6.28-5.53-2.55-.45,5,11.42,6,7.33-.86,6.57-10.42,6.61-13.32,11.27-2,3.22,3.94,16,1.13,21-6.32,11.22-7.55-3.43-9.2-5.31-6.19-7.09-11.68-8.85-13.6-19.83-.88-5.07-.4-11.53-2.51-18.13-1.66-5.19-2.94-5.18-3.84-12-.13-1,.57-6.32.23-5.47.79-2-.91-5,.36-6.81s10.39-.67,12.88-5c3.92-6.84-2.64-21.16-3.25-28.9-.57-7.31-1.5-12.06-.32-20.46.9-6.38,7.61-14.07,8-21.48.41-7.88-1.83-16.51-1.86-22.72,0-6.74-2-15.53-2.06-20.93,0-8.54,3.2-9.69,5.93-17.54a63.31,63.31,0,0,0,2.05-7.37,4.11,4.11,0,0,0-2-5.18,6.08,6.08,0,0,1,5.66-5.42c2-6.61,1-11.08,5.15-17.62,5.52,10.25-2.41,2.43-.72,14.8.89,6.48,7.13,8.54,11.46,12C116.77,1054,130.39,1063.07,119.11,1068.46Zm127.79-25.79c-6.78,6.81-19.22,32-5,34,.58,3.25-.08,10.32.23,12.87.29,2.37,4.17-.17,3.8,2.77-.65,5.16-4.35,8.43-8.62,6-4.6,4.76,5.16,13.9,6.81,19.3a26,26,0,0,1-3.95,8.34q6,2.57,1.79,6.15c-.65,2,5.93,14.47-2.8,1.73-2.88,5.13.86,22.51,3.18,7,5.92,6.84-3.64,20.61-1.78,29.27,1.27,5.89,5.11,9.25,5.34,15.61,0,1.12-2.87,6.43-3,8.79-.07,1-.91,7.17-.91,7.2.65,10-6.16,43.91,1.79,51.86-2.44,2.26-15.11,2.34-18.62,1.15-7.83-2.65-7.75-1.12-9.21-9.08-.27-1.46,2-6.31,2.09-9.39.08-2.49-1.26-11-1.78-13.14-2-8.36-8.13-11.15-10.42-18.24.11,0-.08-8.7.09-10.24.33-3.07,1.23-5.36,2.05-8.32,1.86-6.71,2.43-8,5.83-14.1,3.56-6.42,3.74-6.9,1.17-11.06,2.09,3.71-4,2.73-6.46-1.27-4.12-6.58.94-6.31-1.51-11.51-.7-1.5-5.73-6.21-7.19-8-2.12-2.61-.52-8-3.14-9.68-2.89,8.19-4.83-1.16-8.74,3,4.27,3.32,3.25,9.74,2,16.36-.19.33-2.47,7.35-2.14,8.54,0-.15,4.46,8,5.41,6.52a6.2,6.2,0,0,0,.06-2.31,3.93,3.93,0,0,1-.06,2.31c-.66,2.82-3.4,3.69-3.25,8.31.21,6.08,10.4,19.48,6.1,26-7,10.64-15.89-1.46-14.07,17.71.84,8.83-1.31,18.69-.15,26.29,2.11,13.78,11.91,13.86-4.94,13.29-13.28-.45-25.19,2.48-37,2-8.83-.32-7.84,2.55-8-7.31-.17-9.7,1-19.7,2-29.77.54-5.4,3.88-7.75,3.79-11.83-.1-4.64-3.32-7.76-3.55-12.73-.45-10,3.52-13.36,5.52-21.74,1.57-6.55-1.49-14.69-.85-20.07.92-7.73,3-14.85,3.15-21.77a147.63,147.63,0,0,1,7.3-43.74c5.46-16.69,11.34-32.26,12.59-49.14.46-6.28,3.09-22.85-2.93-25.93-5.07-2.59-8.81,3.06-12.71,3-3.67-.06-7.9-6.16-11.49-.6-4.7-12.28,8.43-12,7.19-23.68-3.65-1.88-14.06-4.68-17.11-2.85-5.94-6.6,9.75-8.22,11.41-9.72,2.17-2,1.35-4.94,2.92-6.62,5.18-5.56,9.35-8.62,5.62-15.85-3.66,10.59-10.45-.51-3.58-8,2.18,5.32,4.19,5.45,9,2.81,2.78-1.52-.17-9.62,4.94-14.73,7.52,10.55,2.28-2.52,6.83-4.7-4.55-4.42-6-.1-10.09-3-6.63-4.65-3.26-5.23-6.36-10.75.67-.66,10-2.78,9.22.41.22-.83,2.05-8,.94-6.51-4.25,5.79,4.28-15.07,4.13-8.26.12-5.58,3.93-4.49-3.55-7.56,2.47-6,10.27-2.35,11.74-8.09a45.77,45.77,0,0,0-6.08-2.36c2.63-3.75,4.61-2.91,9.63-3.17-.55-4.15-3-3.46-5.06-1.66-.59-2.36,8.45-14.14,10.63-14.14,2.43,7.17,3.08,6.49,2.82,13-.18,4.67-2.15,9.37-2.14,15.14,0,4-1.88,9.45-1.91,12.94-.09,10.15.75,6.63,6,11.83-3.13,3.42-1.72,14.43-1.87,20-.13,5-.11,13.87-1.94,19.67s.24,2.74-4,7.42c-1.14,1.25-6,2.71-7.35,3.47-3.5,2-6.44,4.81-9.83,6.75-2.71,1.56-7.29,2.36-9.51,3.8-12.62,8.18-4.65,6.86,3.69,5.48,5.83-1,15.9-9.77,18.83-7.08,5.63,5.17-2.22,7-2,10.84.22,3.19,2.78,7.1,3.38,10.14a53.64,53.64,0,0,0,2.59,6.53c-.33,5.56-8.91.74-3.13,8.06a7.11,7.11,0,0,1,6.43-3.77c3.33,3.7-2.51,5.86-1,9.2.74,1.62,4.81,2.89,5.7,5.78,1,3.22,1.21,18.42-5,12.8-4.42,8.63-5.69,33.34,5,34a11.5,11.5,0,0,1-1.78,3.55c12.06,2-7.79,14.62,3.85,24.62,11.16,9.59,8.62-15.93,6.07-19.31,8.32-7,5.83,12.07,6,12.51,3.81,13.13,2.51,5,10.37-.26-9-4.65-8-9.56-.4-16q-2.44-5.49-5.14-1.14c-4.36-3.41,3.08-7.21,3-9-.09-2.49-5.47-3.08-3.75-6.83,2.15-4.67,9.08-7.89,7.78-13.09-.14-.56-6.08-.62-7.78-6-2.71-8.63.92-12.87,7.09-17.52-5-3.29-11-8.64-10.29-15.53.88-8-.34-3.13,7.61-6.67-6.75-3.19-6-6.06-.19-10.16a14.42,14.42,0,0,1-6.42-4.26l8.57-6.1c-1-.22-12.59-5.62-11.8-3-2.19-7.33,2.61-2.48,5.21-6.78-7.32-7.87,12.81-14.55,14-20-8.86-3.61-5.13,3.74-14.23-7.14,3.56-3.89,3.79-3.88,5.34-7.65,1.73-4.22-2.63-12.71-1.12-16.18,2.72-6.26,4.57-2.68,6-9.49.69-3.2-1.09-9.82-1.24-8.75a10.57,10.57,0,0,1-.77-6.51,15.86,15.86,0,0,0,6-4.34c.66-1.62,2.61-8.84,1.82-10.09-.54-.85-7.1,2.88-9.89-1-2.11-3,10.67-8.91,12.14-11.48,1.66-2.92-.91-19,7.74-9.48,4.37,4.79-2.75,6.26-1.42,8.29,1.91,2.92,6,2.31,8.24,6.45,3.12,5.84,1.8,17.28,1.28,24.17-.43,5.67-4.93,16.44-1.35,21.88,4.44-.71,4.8-6.58,7.21.82,2.05,6.3-6.24,7-6,5.51-.62,4.09,3.88,6.46,3.2,10a10.21,10.21,0,0,1-6.94,4.74q-.06,4.54-.06,9.09c6.93.09,4.8-2.21,11.11-5.48a11.58,11.58,0,0,0,4.85,6.36c-2.28,4.25-7.44,2.73-9.8,7.09-2.13,3.94.73,12.33,0,16.91s-1,9.3-.54,11.75c.53,2.7,4.22,8,5,10.62,1.45,4.66,1.75,2.61,2.16,7.46.4,4.68-2.92,9.45-3.26,14.24-.42,5.8-3.85,17.91,1.4,23.16,2.58-1.79,4.71-9,8.16-9.48C253.67,1034.49,250.78,1041.76,246.9,1042.67ZM317,1254.53c-8.48,0-32.7,4.65-37-1.79-1.61-2.41-2.61-19.27-2.06-22.36,1.7-9.53,9.19-8.28,11.77-15.81-1.07,2.35-2.44-11.15-2.1-10.65-1.71-4.42-5.35-13.12-11.83-14.07,4.49-4.82-3.29-12.52-4-18.46-.64-5.3.66-11.89.17-17.8-.12-1.44,1.64-7.87,1.68-7.75-1.5-4.82-7.34-8.13-9.69-12.29-3.66-6.47-4.79-8.69-2.24-16.75-15-.7,4.27-13,5.83-19.55,0-.1-1.22-9-1.75-9.58-2.44-2.67-6.38-.48-6.92-.93-1.29-1.07-6.3-3-3.06-10.94,2.3-5.66,14.36-9.72,10.47-16.23,2.44-1.18,4.07-19,5.35-24.58,2-8.65-1-30.53,4.7-35-6.17-6,2.4-14-.41-18.74-2.46-4.16-12.81-2.19-17.63-7.87,6.59-3.27,10.69-.13,13.73-8.56,1.85-5.14-2-10.77,1.81-15.32-2.93-3.34-4.92,1.34-5.9-3.95,1.84-1.36,10.16-.28,11.75,1.82,4.38,5.78-1.85,13.09-1.55,16.09.2,2.08,3.39,3.48,3.39,3.76-.06,3.35,0,8.92.37,12.27.35,3.62,1.86,8.49,2.09,13.16.1,2,3.49,1.74,3.49,2.48,0,5.3-3,3.35-3.52,8.51s.44,10.28,0,15.34c-.59,6.77-.88,9.7,0,15.85,1.79,12.67-2.39,6.38,7.68,12.35.8,5-3.08,5.39-7.31,5.6.46,5,5,7.21,1.48,11.11,8.88,5.86,6.19,16.49,7.34,25.56,1.12,8.91,2.86,18.79,4.64,27.75.23,1.17-1.42,5.19-1.41,7,0,.44,4.08.3,3.75,2.15-.73,4.11-6.27,8.87-6.15,11.42.33,6.93,6.29,4.77,8.47,10.06,2.63,6.4-2.82,7.16-2.45,10.88.43,4.31,5.08,3.36,5.76,6.28.39,1.69-.72,4.16,0,5.7,3.45,7.42,1.4,10.82,2.13,17.83.44,4.23.68,7.13.33,9.75-.24,1.73-3.86,3.85-3.45,7.24.55,4.62,4.16,3,5.21,6.53C310.46,1213.9,317.84,1254.53,317,1254.53Zm10.4-597.17c-6.65-4.33-4.22-8.3-7.75-14-3.71-5.93-13.54-9.38-1.43-11.27-4.32-4.6-5.46-4.35-2.38-8.61-7.28-5.35-10.79-7.36-15.51-15.3-4.24-7.14-4.66-17.61-11.06-21.9,2-2.08-2.6-25.82-5.26-32.12-2.41-5.71-9.51-12.66-14.07-16.51-1.08-.91,1.11-3.35-.76-4.45-3.28-1.94-13.55,1.83-16.45-.59-4.13-3.44-5.11-22.57-6.83-27.51-1.06-3-3.71-9.95-4-13.1-1.36-15,7.43,16.28,2-6.08-.57-2.37-.42-4.24-1.66-6.62-3-5.73-10.22-9.25-6.38-18.46,4.23-10.15,5.88,1.5,7.9,6.18,3.3,7.67,7.72,17.1,9.58,26.69.63,3.27,1.39,25,8.26,20.36,1.8-1.23,2.27-22,2.26-25.87,0-6.36-1.06-15.56-6.11-20.84,7.4-2.69-.94-8,4-13.69-10.32-5-.19-4.89-2.7-11.14-6.86,6.13-2.24-5.81.86-8.94-1.61-1.52-7.71-.36-7.92-3.89-.22-3.71,3.06-7.77,2.84-10.57-.47-5.9-2.45-1.79-3.09-5.37q-2.66-4,.72-8.35l-5.13-4.24c-.7-2.43-1.27-6.1-2-8.51,0,.44-3.19-4.9-3.44-5.58-1.21-3.38-.47-14.21-5.16-16.45-3.65-1.74-5.55,6.95-10.44,3.42-1.4-7,10.93-4.57,13.74-6.43-3.8-3.11-13.61-4.29-4.16-7.76-4.81-2.71-2.47-14.38-5.93-18.22,4.62-2.1,20.82,5,25.93,5.94,3.5.66,8,1.52,12,1,2.93-.41.85-3.54,4.11-3.53,3.63,0,5.7,3.18,8.82,3.5,11.7,1.19,22.88-10.51,14.08-19.52-6.93-7.1-21.37-7.23-28-8.4-8.15-1.43-14.44-2.84-22.52-2.16-7.19.61-16.19,4.64-23.65,2.18-1.79-.59-7.27-6.07-10.5-7.41-14.7-6.07-19.48-1.82-14.17-17.75,2.25-6.76,2.49-22.49,6.84-26.84,3,3.35,5.18,6.19,8.2,8.57.64.51,13.16,11.18,13.58,11.21,10.36.76,11.05-13,12.08-19.14,1.31-7.78,3.46-32-8.9-26.05-6.78,3.29-8.17,17.86-21,15.22-2.71-1.44,26.7-24.55,5.29-26,5.29-9.48,27.65-34.24,41.82-18.8-9.84,5-8.48,6.83.29,14.3,8.39,7.14,7.91,6,15.31,3.55,4.64-1.53,1.78-7.33,7.68-4.64,1.36.61,2.25,8.61,2.71,8.86,7.56,4.21,6.08-3.39,6.94-6.71,1.95-7.52-6.85-5.55,5.33-10.34a33.72,33.72,0,0,1,15.56-2c6.78.54,22.32,1.91,27.21,4.66,6.17-20.17,26.82-9.78,41-9,5.06.28,9-.68,13.94-.83s9.41,6.76,11.83-1.24c2.46-8.15-5.21-5.45-8.94-7.76-3.06-1.89-9.39-8.09-11.23-11.3-2.6,5.53-2.78,6.49-7.81,2.31,3.79-2.61,4-4.13,6.28-6.76,2.66-3.12,1-1.8,5.41-4.63,5.42-3.47,10.06-2.29,14.33-2.3C417.44,179.79,430.48,185,436,204c3.81,13.19,7.08,21.19,5.88,36.37-.34,4.27-.94,7.47-.63,10.82.41,4.35,3.12,5.17,2.41,10.39-.47,3.45-8.81.52-3.6,6.42-7.87,2.25-5.15,9-4.92,14.82.08,1.93,1.69,3.81,1.73,5.72.15,7.13-2.32.71-4.76,7.31,10.9,5.25-3.94,5.88-6.13,7.71,11,11.77-10.85-1.91-5.73,12.42,1.76,0,5.72-2.34,7.22-3.2,1.61,7.65-8.82,5.42-11.53,6.87-4.26,2.29-6.66-1.46-7.95,8.09-.7,5.18,4.19,11.5,3.9,14-.77,6.56-8.09,10.46-10.94,14.9-3.24,5-5.37,5-1.89,12.19,2.84,5.9,5.2,5.49,6.83,12.68,2.6,11.45.36,18.68-8.69,27.65q3.21,5.74,7.39,1c3.85,10.75,1.59,18-.95,28,11.17,2.29-1.32,10.36-1.69,15-.08.93,4.5,2.31,4.3,5.46-.35,5.21-6.12,2.65-3.48,10.26l2.4-2.4c.64,4.12,1.34,5.34,2.08,3.65,0,4.51-6.66,3.31-7.26,6-.8,3.59,0,8.36,0,12.05,0,4.71.73,5.28.11,9.51-1.95,13.28-6.79,23.76-12.13,36.55-2.34,5.6,2.06,1.64-1.31,8-1.92,3.65-8,4.48-5.59,10.19,2.91,7,16.37-.11,4.83,13.3-10.84,12.61-.79-4.83-1.85-7.6-3.38-8.79-13.1,18.44-13.87,20.32,9-2.79,11.15,3.39,9.75,11-.12.66-5,4.24-5.63,6.17-.28.83.1,6.69-.07,8.58-.68,7.72-3.91,15.72-6.29,21.27-1.23,2.87-.78,5.24-2.06,7.85-3.8,7.7-7.43,2.47-2.2,12.62-10.59,3.45,2.76,16.16,2.18,23.2-.47,5.71-5.18,4.42-6,10-.44,3.12,3.85,7.88,2,10.51C352.79,702.78,332.26,660.52,327.41,657.36ZM334,1043.08c-.12-5.25,2.28-13.41-3.81-16,4.93-.39,14.39,2,13.83,9.46C343.76,1039.26,334.15,1048.38,334,1043.08Zm88,123.85c-.46,5.74-10.07,8-12.13,13.8-5.08,14.36,3.27,4.27,8.09,10.34-.46-.58-.27,8.71-.09,8.71-1.78,5.08.11,9.69-7,2.91-5.53,11.33,1.74,5.48,2.95,14.88.74,5.76-3.27,3.5-3.8,8.1-1.1,9.62,2.13,14.16,8.72,20.75-3.08,0-6.58.51-9.6,0-5.82,7.53-30.69,4.92-39.5,6.35-3.45.56-15.59,5.19-19.05,1.45-1.79-1.94,1.15-8.3-.55-9.71-5.74-4.75-19.22-1.26-10-11.08-8.1-2.81,4.8-8.11,5.81-15.64.59-4.4-3.9-11.39-3.88-15.75,0-2.66.48-5.8,0-8.43a5.28,5.28,0,0,0,1.76-6.15l-3.67-3.67c-.59-5.6-2.44-14.36.79-21,7.69,5.77-2.42,20.41,11.27,8.74,10.27-8.76,5.12-13.87,6.28-24.32,5.27-2.35,13.87,6.27,13.21,9.88,9.81-5.73,7.08-17.64-.7-10.41-9.26-4.46-.07-9.72-.33-8.39-.49,2.53,2.86-6.47,2.8-6.3.75-2.07-3.32-6.65-3.44-8.15-.54-6.48,7.79-3.6,1.85-10.54,7.48-1.81,13.41,16.6,14.78,24,3.58-4.2,6.43-20.66,14.47-20.47,5.62.13,6.92,18,12.9,9.2,2.26-3.32.43-17.58,0-21.29-.22-1.88,1.95-2.25,2-4.18q-6.93-4.38-1.82-10,3.58-3.24,1.19-5.5c-10.87,2.91-4.24-1.41-9.9-10.11,21.17-5.06,16.86,25.52,16.35,37.86-.19,4.68.51,11,.12,16-.41,5.34,2.48,6.46-1.64,12.62-3,4.45-8.5,5.88-10.95,10.3-3.68,6.66-1.31,15.86,3.53,5C416.37,1159.88,422.54,1159.68,422,1166.93Zm87.38,59.32c-4.6.62-7.37,6.94-10.58,4.3-2.57,7.46-19.88,7.34-27,8.13-12.35,1.36-25.74,4-37.53,5.44-7.83,1-18.78-1.09-6.4-8.59,3.72-2.26,20.07,2.75,23.51-.87,4.78-5-4.9-7.34-8.53-4.07-4.13-4.13,12.62-12.61,13.2-14.75.81-3-1.32-2-2.26-8.33-.63-4.17-.1-9.88.15-13.38.83-11.59,2.59-22.7,1.94-34.41-.66-11.9-5.15-23.25-4-35.48.27-2.92,1.19-9.13.66-12-1.29-7.06-9.15-21.14-.56-24.24-6.29-7.39,2.21-11,2-17.5-.13-3.12-4.18-3.08-3.84-6.36.58-5.54,2.54-3.48,3.79-8,1.38-5-1-13.85,0-17,1.14-3.67,4.47-7.65,6.17-11.11,2.3-4.69,2.9-9.3,6.73-13.13,6,6.29,7.88,7.24,5.18,14.54-2.87,7.78-1.88,3.3-9.2-.48-.28,1.92-4.9,20-.12,21.41,1.9.57,14.05-16.75,17-4.31-4.13,3.78-6.93,1-7.61,8.2-.25,2.68,4.56,18.7,5.48,21.88,2.34,8.14,8.39,26.67-3.46,31.65,5.49,5.18-4.12,4.14-2.94,8.56,1.52,5.72,4.87,4.37,12.3,6.68.1.24-2.62,11.77-2.69,12.21-1.25,3.78.39,12.83-8.18,5.26-.88,2.87-1.64,8.22.77,10.37,3.11,2.78,4.21-1.14,5.51-.47,4.29,2.22,1.54-15.3,7,2.68.83,2.7-1.83,8.91-1.37,10.18,1.36,3.83,7.92,8.89,12.55,5.63,5.22,4.25-7.56,8.43,6.52,10.09,2.25,10.75-16.25,21.34-13.53,33.78,1.7,7.75,1.3,6.07,8.81,7.91C501.67,1221.33,513,1217.26,509.34,1226.25Zm133.75-3.5c-5.39,1.75-14.1.29-21.45,1.94a261.78,261.78,0,0,1-37.52,5.91c-12.51,1-26.2.14-38.15,1-15.42,1.14-32.48,6.64-32-14,0-1.95,4.17-5.19,4.46-5-.4-3.46-3.48-6.7-4.51-9.86-3.19-9.85,2-26.67-10.09-28.55.45-.7.15-16.5-.24-16.84-4.19-3.61-8.2,1-13.77,1.44,4.22-8.8,5.52-2.74,7.64-6.74,2.92-5.51-.8-10.07-.77-11.61.17-8.15-1.19-13.54-2.64-21.21-.71-3.78.27-6.56-.22-10.75-.33-2.87-2.31-6.45-1.9-10.87,1.36-14.69,8.34-1.76,13.73-12.2-2.27-3-8.63,1.43-10.93-.76-6.41-6.12,2.65-5.24,4.21-8,.43-.76,3.71.19,4.91-1.62,2.8-4.22-.08-13.42-3.63-15.56-2.08,2.91-2.33,9.71-.35,12.35-13.44,3.38-10.25-1.78-7.93-13.27.88-4.35,3.26-17.75-3.1-11.91-4.75-6.21,2.61-7.07,1.07-15,3-3.24,8.21-.07,4.1,3.88a5.09,5.09,0,0,0,5.21,2.81c6.53-9.66-4.52-15.17-12.43-9.69-5.6-6.32,9.79-8,6.28-11.88-3.53,2.87-3.75-.46-2.94-3.36-.71,2.57,10.7-6.57,8.16-4.92a17.17,17.17,0,0,0,3.29-2.82c.13-2.54,1.91-2.24,0,0a9.68,9.68,0,0,0,.68,3.74c1.13,3.17,3.1,2.81,3.76,6.59.38,2.19-2.64,4.12-2,6.77,1,3.88,3.37.26,3.61,5.17.16,3.41-1.89,8.08-1.52,10.44.5,3.14,4.57,3,5.53,6.27.81,2.75-.68,6.13,0,8.92,1,4.25,1.12,9.6,2.23,13.94,1.37,5.36,5.36.94,6,7.27,1.08,11.22-1.3,26.5,9.36,35.55,1.21-2.07.73-3.69-1.46-4.85,4-1.49,9.36,5.68,8,10.57-2,6.91-11.44,3.38-14.06,11.14-1,3,5.89,13.76,6.13,17.36.25,3.82-2.13,9.49-1.85,12.11,1,9.15,7.21,21,9.94,30.71,3.42,12.22,4.71,19.37,13,29.43,5.75,7,13.95,17.07,23.23,8.5,7-6.43,2.65-24.2-.17-31.55-2.34-6.09-7.53-11.44-8.1-18.26-.85-10,2.67-4.48,6-13a32.68,32.68,0,0,0,2.17-11.07c0-.53-2.2-7.6-2.2-7.64-.45-1.45,4.8-4,1.15-7.1-4.14,3.85-5.67.53-7.19-3.18-3.1-7.56,4.23-2,6.3-9.66,2.93-10.72-13.16-.55-14.08-1.24-6.66-5,1.39-9.09-4-15,2.91-3.05,6.66,2.8,7.62-.24-.21.28-1.72-8.68-2-9.83-1.35-5-1.43-8.7-3.44-13.84-2.17-5.57-2-8.38-1.72-11.49.42-4.72,8.16-6.9.5-13.25-1.43.23-1.19,6.31-1.11,7h0c0,.1,0,.1,0,0-5.8,1.76-5.78-6-10.26-8.37,2.27-1.54,12.34-11,10.65-15.56-2-5.25-8.94-2.6-12.87-4.13,7.23-5.68,13.28-4.17,18.46,2.49,1,1.26-.48,6.2,0,7.59,1.07,3.1,5.86,4.16,6.84,7,.88,2.57.23,10.84,1.53,15.14,1.16,3.81,1.84,7.75,3,11.56,2.33,7.44,7.26,17,8.28,22,1.35,6.63,2.28,12,5,19.34,1.88,5,1.71,11.62,3.45,16.08,1.59,4.06,4.43,6.21,6,10.09.93,2.28-1.24,6.43,0,8.53,1.85,3.13,6.82,6.23,7.93,9.5,1.92,5.65-9.18,10.47,4,16.13-5.89,7.18,3.29,13.34,5.84,19.67.71,1.76,2.74,19.83,7.43,11.5,2.42-4.3-1.25-11-1.65-14.59-1.17-10.23.91-20.93.49-32.71,0-.27-7.56-4.61-1.39-8.42,5.41-3.33,4.45,3.91,5.55,4.93,3.48,3.22,4.65,7.06,7.15,11a64.68,64.68,0,0,0,6.7,6.85l-2.08,4.15c1.19,3.17,3.68,4.35,4,6.59.74,4.93-1.34,11.35.68,15.91C636.72,1208.72,651.83,1219.86,643.09,1222.75Zm142.62-28.34c-13.52-2.61-13.29,8.58-22.1,13.55-6.37,3.59-21,2-30.29,2.64-9.51.71-17.72,1-26.51,2.06-8,1-24.75.85-30.19,6.29-1.13-5-3.39-12.55-2.65-20.57,1.08-11.6,0-20.91,0-32.65,0-9.24-1.94-15.38-3.13-24-1.58-11.61-8.54-20.54,1.07-30.07-7.63-5.45-6-26.25-10-36.79-3.52-9.33-5.29-9.4-3.62-20q-5.75-3.71,1.59-7.21l-1.43-1.43c-.58-4.71-2.2-9.14-2.57-13.77-1.24-15.54-7.66-28.76-10.82-43.74-2.85-13.48-1-11.53,7.3-13.47,3.66-.86-.07,7,3.95,5.6,7.68-2.75,9-10.33,1.46-12.94,5.35-5.35,11.13-6.75,3.44-11.37.12-.14,10.74-2.69,10.74-2.69,9.36,1.6,5.39,3.23,8,10.86,2.22,6.46,4.51,8.46,5.61,14.58,1.5,8.32-3.6,7.48,6.32,12.5-5.23,8.54,1.4,19,2,28.49.23,3.55,2.37,5.18,2.73,8.63.07.72-2.88,1.83-2.69,4,.25,2.91,2.23,13.4,3.43,15.29s11.22-.5,10.66,9q1.82,4-2.79,5.44-5.38,1.88-2,6.46c2.74-5.68-1,11.13-.78,7.47-.06,1.3-4.42,2.25-4.46,5.4-.05,3.76,3.87,2.94,5.58,8.1.76,2.28-1,8,2.3,11.67a13.8,13.8,0,0,1-6.6,4.35c21,4.5.9,19.83,8,30.53q.67-5,1.61-10c7.58,7.5-.24,9.64-1,15.32-1,7.58,6,14.51,8,20.66,2.31,7-.2,35.19,15.56,24.68,6.55-4.37,4.75-18.15,6.66-25.64.61-2.4,4-6.36,3.82-9.07s-3.68-3.79-4-7c-.59-6.43,1.71-12,2-18.13.48-10.17-3.33-7.6-6.42-16.07,9.56-1.83,4.87-3.46,4.39-10.38-.32-4.61,1.42-10.62,0-14.9-.57-1.69-5.93-6.19-6-6.19-.8-6.61,5.28-14.4,3.85-22.74-.07,0-2.75-4.4-3-5.73a45,45,0,0,1-.76-6.77,105.71,105.71,0,0,0-2.06-17c-.84-4.41-3.3-10-2.63-14.59,1.11-7.58,4.88-8.66,12.06-6.06,2.86,1,6.82,6.31,9.52,7.73,4.55,2.4,5.18-3.36,7.57,3.53,5-.2,3.5-7.8,3.47-10.62,0-2,.67-5.61,0-7.43-.38-1-5.51-2.14-5.5-2.06-.58-5,3.22-4.28,3.47-9.45.48-10-6.27-6.59-8.8-15.71-1.59-5.71,2.69-7.64,2.8-10.49.19-4.81-1.61-7.89-1.94-12.78-.11-1.67,2.72-11.91,1.54-14.39-3.14-6.61-12.21-2.12-3.67-11.76-.37-.37-4.92-1.39-4.92-.89,0-1,0-7.86-.11-8-2-4.79-1.2-7.74-6.7-13.15,7.94-4.83,4.43-4.61,2.39-10.38-.33-.93,0-3.71-.68-5.47q-9.09-1.5-3.85-7.83c-.15-1.53-.31-3.06-.46-4.59q-4.59.13-3.22-3.78l1.64-1.75c-.62-2.9-1.63-4.7-2-7.43-.8-5.45-2.58-10.14-4-15.62-3.26-12.49-5.42-30.2,8.34-12.69,2.2,2.79,7.07,12.24,10.38,12.68,1.65.22,7.95-8.83,10.61-7.72,5.33,6.64-4.83,7-5.13,9.5-1,8.3,2,5.05,7.82,7.17-6.89,7.51,8.11,16.68,10,23.38,2.46,8.48,0,21.41,0,30.2,0,9.3,1.3,17,2,25.89.89,11.2-4.1,34.05,4.39,40.05-4.62,5-.1,6.25-.6,10.36-.07.61-1.73,6.31-1.7,8,.08,4,2.08,5.21,2,8.08,0,.62-1.6,6.07-1.87,7.42-1.83,9.08,3,13.16,2.61,19.25-.89,14.16-6.84,8.29-17,13.63,1.4,7.06,10.89,7.95,14.64,13,4.39,5.89,4.15,14.79,5.64,22.69,3.51,18.68,0,38,0,57.44,0,10.31,3.11,16.13,4,25.36.69,6.75-.84,13.76,0,20.49C782.75,1185,787.73,1186.84,785.71,1194.41Zm-49.82-216.9a6.13,6.13,0,0,1,1.15-4.94,59.79,59.79,0,0,1,8.2,13.92c2.39,5.83,5.1,0,2.26,7.5-1.52,4-3.84,5.88-8.16,6.67C722.65,1003.71,739.78,981.76,735.89,977.51ZM131.9,193.7a7.88,7.88,0,0,1-.56,1.68C131.35,195.86,131.49,195.54,131.9,193.7Z"/><path class="cls-1" d="M736.19,1586.61h0"/><path class="cls-1" d="M685.05,1650.58a13.43,13.43,0,0,1-1.56,5.24,24.5,24.5,0,0,0,.79-4.29c.44-4-.14-9.48.41-12.49a17.2,17.2,0,0,1,.48-1.94C684.81,1641.62,685.37,1645.31,685.05,1650.58Z"/><path class="cls-1" d="M688,1682.75c-5,.33-9.79-.13-11.89-2.82s-1.42-6.3,0-9.6C674.64,1680,680.4,1682.68,688,1682.75Z"/><path class="cls-1" d="M691.89,1614.24a4.75,4.75,0,0,1-.27.52c-.5,1.48-1.5,7.44-1.79,8.63-.44-1.11-1.05-1.63,0-4.27C688.93,1616.39,689.62,1614.77,691.89,1614.24Z"/><path class="cls-1" d="M695.86,1603.85a16,16,0,0,0,1.6-.46c-.38.56-.75,1.14-1.13,1.74C696.19,1604.72,696,1604.29,695.86,1603.85Z"/><path class="cls-1" d="M708.36,1557.47a27.55,27.55,0,0,0-4.08,5,21.44,21.44,0,0,1,2.24-5.66A14.62,14.62,0,0,0,708.36,1557.47Z"/><path class="cls-1" d="M710.45,1580.73c-2.17,4.48-5.79,10-8.07,14.32a15.45,15.45,0,0,0-.7-2.51l2.05-3.68C705.33,1585.55,708.44,1583.23,710.45,1580.73Z"/><path class="cls-1" d="M715.89,1549.68a18.24,18.24,0,0,1-2.07,2.48,2.74,2.74,0,0,1,1.15-1.53,55.72,55.72,0,0,0,4.51-7.15C718.43,1545.42,717.34,1547.5,715.89,1549.68Z"/><path class="cls-1" d="M735.58,1586.67a2.76,2.76,0,0,1,.57-.06l-.08,2.21-1.56,43.27v0l-.06,1.71c-.46-3.46-1.09-6.84-1.46-9.3-.11-.72-.24-1.47-.38-2.25,0,0,0,0,0-.07-.93-5-2.45-11.21-2.74-15.55,0-.33,0-.66,0-1v-.18c0-.53,0-1.63.13-3a58.56,58.56,0,0,1,.84-6.76C731.59,1591.39,733,1587.21,735.58,1586.67Z"/><path class="cls-1" d="M732.2,1668c.61,3.9,2.23,8.1-.88,10.5-3.36,2.59-19.55,1.88-26.48,2a68,68,0,0,1,7.23-1.07C727.37,1678.53,731.61,1680,732.2,1668Z"/><path class="cls-1" d="M732.26,1663.32c0-.6.65-1.19,1.2-1.83v.21a4.8,4.8,0,0,0-1.19,2Z"/><path class="cls-1" d="M733.39,1658.78l.16.18,0,.76c-2.43-1.23-3.69-2.67-3.75-4.33,0-.06,0-.11,0-.17a1.62,1.62,0,0,1,0-.22c0-.12,0-.24,0-.35v0c0-.11,0-.21,0-.32v0l.06-.32a10.17,10.17,0,0,1,1.51-3.38c.27-.41.54-.82.82-1.22-.28.39-.56.79-.82,1.19a5.89,5.89,0,0,1,2.66-5.1l0,1.21-.44,12.27Z"/><path class="cls-1" d="M733.55,1658.92a1.54,1.54,0,0,1,.24,2.32,1.59,1.59,0,0,0,.3-.72v0a1.46,1.46,0,0,0,0-.51,2.58,2.58,0,0,0-.52-1Z"/><path class="cls-1" d="M734.35,1636.74l.1-2.91a46.74,46.74,0,0,1,.5,8.87A23.9,23.9,0,0,0,734.35,1636.74Z"/><path class="cls-1" d="M738.63,1518.47a27.09,27.09,0,0,1,3.53-5.49,2.62,2.62,0,0,1-.2,2.4A15.79,15.79,0,0,1,738.63,1518.47Z"/><path class="cls-1" d="M750.16,1553.4c.11-.45.21-.91.31-1.38a61.36,61.36,0,0,1-1.16,7.67c-.61,2.73-2.22,14.29-3.26,17-.67,1.75-3,3.76-5.36,5.61l.46-.71C746.7,1573.16,747.65,1564,750.16,1553.4Z"/><path class="cls-1" d="M752.22,1519.81a8.24,8.24,0,0,0-.35-2.33c-1.31-3.58,1.48-8.92-4-9.07,2.29-.84,4.44-.18,5.84,3.17C754,1512.38,753.08,1516.39,752.22,1519.81Z"/><path class="cls-1" d="M582.81,902.54c-.24-2.27-.59-4.55-.89-6.82q-2.13,4.5.89,6.82Z"/><line class="cls-1" x1="582.81" y1="902.54" x2="583.83" y2="910.39"/><path class="cls-1" d="M583.83,910.39c-.13-2.52,1-5.46-1-7.85Z"/><path class="cls-1" d="M583.83,910.39h0"/><path class="cls-1" d="M343.91,1115.63l4.13-19.05C344.25,1103.62,343.91,1107.56,343.91,1115.63Z"/><path class="cls-1" d="M544.41,964.16l1.52,5.49C548.78,966.6,548.3,965.52,544.41,964.16Z"/><path class="cls-1" d="M123.84,889c6.21-6.16,6-8.26,6-17.12Z"/><path class="cls-1" d="M124.34,922.09c2.26,2.26.19,4.56,1.89,6.63,4.64,5.6,1.94-1.41,3.59-2.36,4.54-2.62,8.5-6.71,7.88-13.07-.41-4.15-.15-10.33-6.73-10.17-10.93.26-2.7,4-4.29,6.91C126.92,909.59,124.33,921.94,124.34,922.09Z"/><path class="cls-1" d="M491.22,658.46l-3.37-2.39"/><line class="cls-1" x1="487.85" y1="656.07" x2="485.25" y2="654.23"/><line class="cls-1" x1="485.25" y1="654.23" x2="481.91" y2="651.87"/><path class="cls-1" d="M228.2,804.66c3.43,0,6.68,0,9.92,0Z"/><path class="cls-1" d="M305.84,843a5.29,5.29,0,0,0,1.81,4.58Z"/><line class="cls-1" x1="307.65" y1="847.56" x2="305.84" y2="842.98"/><path class="cls-1" d="M305.84,843c0-2.93-1-2.54,0,0"/><line class="cls-1" x1="307.65" y1="847.56" x2="307.83" y2="848.02"/><path class="cls-1" d="M278.35,812c-1-.75-3.23-1.67,0,0"/><path class="cls-1" d="M278.35,812c1.9,1.33,3.71,2.82,5.56,4.22a7.6,7.6,0,0,0-5.56-4.22Z"/><path class="cls-1" d="M299.93,824.2c-2.56.2-5.31,1.19-7.82,1.75C296.63,829,296,829.93,299.93,824.2Z"/><path class="cls-1" d="M340.42,700.1c2.63,3.69.72.82,0,0"/><path class="cls-1" d="M340.42,700.1c-2.57-3.6.58-1.9-3.45-3.9l3.45,3.9Z"/><path class="cls-1" d="M431.38,613.85c1,2.31,2.27,4.54,3.39,6.79C439.41,620.53,430.23,613,431.38,613.85Z"/><path class="cls-1" d="M224.08,329.46c1.87,3.29,1.89,5.7,6,4.72C228.07,332.62,226.15,330.87,224.08,329.46Z"/><path class="cls-1" d="M364.25,481.85c4.51,5.14.15,12.69-.32,18.24-.91,10.65-3.59,25.77-1.86,36.64q7,1.38,3.38,5-2.59,2.18.37,4.31c0,3.15-3.35,6.43-4,9.38-1.64,7.67-3.15,13.37-3.91,21.13-1.15,11.75.17,24.87-4.25,36.05-1.56-.77-2.95-.22-4.16,1.67q-5.11,1.69.43,6.16c-9.8,12.54.73,3.12-5.93,6-7.95,3.5-21.42,1.8-22.58-6.05-6.37,5.43-3.14-4.76-3.57-8-1-7.43-5.68-11.62-7.67-17.8-1.24-3.81,0-10.17-1.23-15-.65-2.6-4.69-6-4.91-8.13-.17-1.55,3.79-2.86,3.66-5.31-1.24-22.89-6.24-42.89-18.69-63.61-2.39-4-1.13-2.6-4.24-6.5-2.25-2.81-6.5-2.42-7.35-6.24-3-13.43,14.89-.55,13.34-14.87-1.11-10.2-13.28-9-14.79-15.23-1.57-6.44,5.87-7.89,9.14-11.2,1.75-1.76,5.59-7.68,4.8-6.93,1.24-1.18-.95-3.16.75-4.41s11.65-1.1,14.57-.55c.85.16,3.21,3.54,5.62,4,2.76.53,6,0,8.8,0h15.69c1.72-7.27-23-1.36-14-12.17-4.66,5.62,9.17-4.49,6.33-3.83,9.12-2.13,14.8-.63,18.24,4.72,1,1.56.64,5,1.88,7.07,2.11,3.52,7.09,3.19,8,5.07,1.9,4-.67,4.6-.86,9.15-.13,3.33-4.38.87-3,6.37,1.05,4.31,7.71,4.79,9.89,7.54C366.56,470.65,366.38,475.37,364.25,481.85Z"/><path class="cls-1" d="M403.88,315.7c-10.12,8.33-17.43,14.33-26.71,19-5.68,2.86-16.92,12.18-22.82,11.95-8.25-.31-31.3-21.69-21.39-29.42.46-.36,13,.68,16.15-.14,5.54-1.43,11.32-3.74,16.69-5.33,7-2.07,16.81-9,23.42-9.1C395.58,302.57,405,307.57,403.88,315.7Z"/><path class="cls-1" d="M325.82,358.75c0,5.26,1.7,13.32,0,18.12-1.53,4.34-9,11.3-13.26,11.79-15.46,1.78-26.65-12.26-26.65-25.09,7.22-2.35,12,.46,20.72-4.54,3.69-2.12,6.45-7.42,12-6.52C321.67,353,319.72,359.88,325.82,358.75Z"/><path class="cls-1" d="M401.9,245.22a12.78,12.78,0,0,1,2-10L408.23,251Z"/></g></g></svg>