<svg xmlns="http://www.w3.org/2000/svg" xmlns:xlink="http://www.w3.org/1999/xlink" viewBox="0 0 2565 1993"><defs>

<style>.cls-1,.cls-2{fill:#1c1c1c;}
.cls-1,.cls-4{stroke:#eb5533;stroke-miterlimit:10;}
.cls-3{clip-path:url(#clip-path);}
.cls-4{fill:none;}</style>

<clipPath id="clip-path"><rect id="Shape" class="cls-1" x="310.5" y="499.5" width="1600" height="1201"/></clipPath></defs><title>Clarence</title><g id="Layer_2" data-name="Layer 2"><g id="Background"><g id="Clarence"><rect id="Shape-2" data-name="Shape" class="cls-2" x="310.5" y="499.5" width="1600" height="1201"/><g class="cls-3"><g id="Patterns"><g id="Clarence-2" data-name="Clarence"><g id="Shape-3" data-name="Shape"><path class="cls-1" d="M31.16,617.27c49.59,132.33,88.19,269.29,127.39,405,41.79,144.62,41.91,296.78,57.64,444.55,9.43,89,27.91,174.86,86.84,245.64,41.26,49.52,90.75,82.87,152.16,102.11,85.55,26.81,178.62,27.36,262.49,58.66,19.41,7.24,39.05,17,51.93,33.84,10.69,14,15.79,31.58,22.87,47.12,6.31,13.83,17,19.34,30.45,20.8,41.15,4.44,94-20.32,136.74-27.87,9-1.6,20.58-3.29,28.52-8,5.66-3.4,5.49-8.23,5.19-12.44-2.36-32.65-.88-66.91-9.06-99.08-9.38-36.88-32.78-62.39-64.78-78.42-54.88-27.45-125.66-29.49-188-40.37C670,1698,608.08,1686.19,549.1,1665.07c-49.93-17.85-96.72-43.14-136-79-49.27-45-75.88-107.13-92.23-169.87-40.18-154.31-36.85-319.69-75.2-476.28C226.54,862,202.37,784.72,178.53,708.15c-20.41-65.57-42.2-131.71-71.62-193.29-8.28-17.34-18.39-40.68-36.82-50-8.94-4.52-18-3.69-26.6-2.07-12.82,2.43-25.69,8.16-33.39,19-25.47,35.76,6.14,100.3,21.06,135.46"/><path class="cls-1" d="M129.06,511.26c30.4,70.35,54.26,143.29,76.74,216.4,14.76,48,28.94,96.31,43.21,144.52,21.76,73.53,34.87,148.86,45.53,224.64,11.58,82.24,20.92,165.62,37.49,246.63,18.82,91.93,49.05,179.64,124.29,241.34,59.84,49,133.18,76,207.35,94.83,46.11,11.69,92.86,20.37,139.64,28.61,43.63,7.68,89.27,11.68,130.47,29,55.41,23.34,81.66,69.15,108.63,119.1,10,18.51,26.49,31.27,44.46,40.75,43.07,22.7,93.57,32.85,142.24,40.87,6.36,1,13,2.08,19.76,2.85a263.59,263.59,0,0,0,40.9,1.41c1,0,2-.06,2.94-.13,9.58-.72,20.94-1.31,29.37-6.75,5-3.21,4.83-8.47,3.93-13.66-17.59-97.72-41.82-200-127.64-257.51-51-34.2-114.89-38.81-175.06-48.26-69-10.79-138.32-21.89-206.35-36.64-83.47-18.09-169.5-40.83-244.25-84.26-78.27-45.48-120.22-114.07-148.78-197.17-36.59-106.45-52.21-220.1-73.67-331.11-21.39-110.62-54.09-217.78-87.7-325-20.21-64.47-41.27-130-70.55-190-8.53-17.48-18.41-34.85-32.9-48.51-10.44-9.9-23.4-19.7-37.58-23.05-9-2.11-22.36.77-28.13,8.74-10.86,15-1.1,38.09,4.69,53.24,9,23.53,20.25,46.32,31,69.11"/><path class="cls-1" d="M198.41,430.91C229.56,493.76,252.63,560,274,626.6c14.7,46,28.7,92.5,42.88,138.75,23,74.89,38.47,151.61,53.77,228.36,16.73,83.82,34.38,168,60.25,249.1,15.23,47.68,33.74,95.27,60.21,138.27,27,43.9,67.54,75.53,112.31,100,91.17,49.85,195.73,73.93,296.83,94.06,54.16,10.78,108.66,19.75,163.18,28.52,50.84,8.18,103.45,12.74,150.27,35.8,74.26,36.49,117,107.4,156.48,176.71,13.39,23.52,31,43.71,50.67,61.67,43.23,39.4,89,70.68,144.66,90.81a169.16,169.16,0,0,0,21.33,6.61c12.65,2.73,26,4.57,39,2,.76-.14,1.51-.33,2.23-.52,9.5-2.51,13.72-7.56,15.93-14.81,1.42-4.66-.31-11-2.77-17.47-45.09-119.3-89.41-254.31-194.88-331.79-54.45-40-119.88-45.54-185.76-55-81.8-11.76-163.8-23.58-244.89-38.5-103.79-19.09-211-41.08-307.46-85.83-46.08-21.38-89.67-50.78-120.08-92.19-26-35.46-45.77-76.26-62.51-116.51-43.07-103.62-69.15-213.91-96.89-323C402.2,797.18,369.05,695.26,335,593.23,315.89,536,296.5,477.72,269.5,424.7c-8.35-16.39-18.32-32.21-30.74-46.21-15.19-17.13-32.44-36.65-52.7-45.77-8.19-3.67-21.11-9.21-29.41-4.26-19.12,11.36,33.59,87.13,41.78,102.55"/><path class="cls-1" d="M273,395.4c32.66,56.49,56.18,117.14,77.6,178.47,15.69,44.89,30.53,90.43,45.35,135.58,24.82,75.64,42.71,153.86,62.87,230.89,22.75,86.95,49.58,173.48,84.36,256.12,19.46,46.21,41.51,92.72,71.08,133.77,34,47.23,82.84,79.08,135.7,101.74,111.83,47.92,235.22,69.76,354.55,89.66,62.67,10.44,125.57,19.47,188.44,28.43,48.54,6.93,100.7,9.49,146.38,28.51,90,37.49,145.87,125.52,193.37,205.75,15,25.31,31.31,49.79,48.61,73.64,32.7,45.11,67.33,102.76,118.9,128,4.91,2.42,10.15,4.83,15.16,5.88,10.58,2.3,18.64-1.5,22.67-7.67a17.63,17.63,0,0,0,1-1.55c4-7.79,2.44-20.17.83-28.18a95.21,95.21,0,0,0-7.17-20.59c-61.56-131.4-138.83-274.62-259-357.2-53.76-37-113.79-43.52-178.47-51.92-81.9-10.64-164.19-19.35-245.79-30.86-104.74-14.78-213.38-31.48-311.55-73.3-95.63-40.76-153-115.2-190.59-208.81-40.43-100.57-61.45-208.24-89-313.34C531.84,797.6,493.81,701.59,456,604.8c-21-53.73-42.75-108.44-71.51-157.53a259.09,259.09,0,0,0-33.55-44.73c-23.8-25.74-49.87-50.87-79.8-69.25C258.45,325.51,244.4,316.82,230,313c-16.67-4.46,3.5,23.62,6,27.3,12.31,18.38,25.38,36.22,36.92,55.12"/><path class="cls-1" d="M383.05,406.93c39.83,53.12,71.62,110.88,98.25,171.21,19.1,43.3,35.07,88.8,52.08,132.57,28.6,73.52,42.7,153.5,59.33,231.27,18.73,87.63,39,176.53,71,259.76,17.81,46.24,38.24,91.33,71.89,129,36.65,41,82.93,68.85,134.09,88C975,1458,1089.91,1470.79,1201,1482.94c58.21,6.4,116.52,11.85,174.72,18.35,49,5.48,102.53,7.53,149.23,24.51,92.41,33.54,165.46,115.55,227.6,188.09,21,24.51,42.53,48.59,64,72.54,51.1,56.86,98.64,133.57,175.34,158.24,7.85,2.52,16.26,4.74,24.63,4.83,14.39.14,32-6,39.87-19.16a25.15,25.15,0,0,0,1.45-2.71c6.26-14.18.15-29.52-4.82-43.13-3-8.3-8.42-16.82-13.62-23.92-57-77.79-127.66-148.91-200.88-212.83-77.18-67.45-160.39-131.06-250.22-178.92-30.63-16.31-63-31.72-97.07-40.42-31.69-8.1-65.88-9.41-98.42-11.56-74.45-4.9-149.27-5.13-223.67-7.84-93.74-3.34-192.16-7.36-281.5-39.21-44.8-16-86.11-41.81-117.74-77.61-29.25-33.11-42.72-77-50.67-119.52-18.59-99.15-10.71-202-16.28-302.78-2.78-50.26-8.33-100.77-21.7-149.41C669,675.75,648.13,634,627.19,593,600.72,541.14,571.1,489.57,535,444.83a265.81,265.81,0,0,0-41-40.4c-34.17-27.29-71.19-53.59-112.48-68.94-14.92-5.55-31.48-10.08-46.76-11.81-22.16-2.53-2.15,23.05,2.77,29.21,14.71,18.4,30.93,35.53,45.55,54"/><path class="cls-1" d="M512.81,377.55c52.77,48.79,99.81,102.69,137,163.49,24.42,39.93,48.05,83.85,60.5,128.47C731.38,745,726,828.3,724,907.56c-2.17,87.39-5.3,176.23,9.12,261.24,7.79,45.88,24.93,88.21,60.21,120.83,33.13,30.65,73.22,51.23,116.43,63.53,90.94,25.88,188.85,23.65,282.5,22.6,50.32-.57,100.65-1.68,151-.8,45.29.79,93.57.57,137.78,11.47,123.1,30.38,237.56,110,340.27,180.67,36.22,25,72.85,49.75,108.75,75.07,57.86,40.81,112.77,86.11,170.3,127.67,49.73,35.93,103.7,68.21,164.25,80.64,13.07,2.69,27.2,5,40,3.6,18-2,44.67-8.54,47.65-31.25a21.42,21.42,0,0,0,.19-3.92c-1-22.42-22.48-42.69-36.84-57.51a360,360,0,0,0-28.82-26.26c-103.35-85.72-220.93-158.11-338.18-225.44-119.85-68.71-243.79-133.59-371.87-183.56-71.33-27.82-139.68-46.79-217-46.06-65,.63-129.71,8.63-194.16,14.7-79.89,7.53-165.08,15.77-243.39-7.44-41.59-12.33-80.35-36.1-109.47-68.39-29.42-32.54-37.83-77.34-37.47-118.88.83-98.73,35.63-198,53.57-296.7,8.5-46.79,14.83-94.72,11.31-142.34-3.43-46.27-20.09-85.92-40.81-126.45-28.17-55.16-61.51-108.94-101.71-155.29a283.18,283.18,0,0,0-45.44-41.94c-44.13-32.66-94.89-61.6-151.37-66.25-17.83-1.47-38.73-.67-55,7.23-46.11,22.35,50.42,84.6,66.95,99.22"/><path class="cls-1" d="M644.5,280C705.71,332.75,762.8,390.31,806,457.85c26,40.76,52.4,87.47,59.66,134.78,12.48,81.16-13.82,169.11-34,249.88-21.78,87.1-54.36,182.34-45.12,270.18,4.55,43.46,21.58,78.58,57.39,106.92a237.78,237.78,0,0,0,108.59,47.83c76.5,12.83,156.12-2.26,231.7-14.7,79.28-13,161.4-28.8,242-19.8,57.15,6.37,113.3,28.93,166.48,49.63,80.16,31.21,158.49,67.27,235.66,104.9,49.27,24,98.66,48.41,147.31,73.69,96.72,50.24,191.1,105.42,286.82,157.89,70.69,38.75,145.7,80.93,225,97.63,11,2.32,23.19,4,34.2,1.78,23.26-4.72,13.93-34.78,7.19-47.25a55.07,55.07,0,0,0-3.34-5.18c-20.33-28.91-51.57-51-80.35-70.36-13.42-9.06-27.52-17.84-41.46-26.36-132.41-81-271.83-152.61-412.32-219.73-129.83-62-262.22-122.22-398.22-168.46-67.37-22.9-130.61-40.56-202.31-35.17-58.63,4.41-116.34,17.56-173.77,28.94-71.88,14.24-148.9,29.59-221.9,13.17-39.33-8.83-77.25-29.56-105.58-58.31-31.49-31.94-39.81-75.35-38-117.29C856,913.83,900.09,814.9,930.3,718.2c15-47.87,29.12-97,33.35-147.19,3.73-43.84-4-81.42-23-120.24a603.79,603.79,0,0,0-101.4-147,487.88,487.88,0,0,0-45.9-42.59C741.58,218.72,680.43,181.33,614.51,165c-16.62-4.1-38.94-7.76-54.92.05C510,189.3,628.06,266.22,644.51,280"/><path class="cls-1" d="M1429.94,60.86c58.67,39.54,76,95.49,87.17,162,13.74,81.29,34.18,160.94,70,234.76C1610.7,506.22,1641.86,567.11,1688,599c53.32,36.8,132.43,18.71,188.72,2.5,83.72-24.12,170.54-62.08,246.06-108,29.64-18,46.46-27.73,75.45-6.67,4.12,2.94,9.34,7.15,15,4.2,4.35-2.27,7.85-8.28,11.26-13.89a276.73,276.73,0,0,1,25-35.33c8.41-10,19-22.62,19-36.53,0-9.14-4.47-15.57-8.24-20.37-6.58-8.37-21-33.27-34.78-27.65-11.64,4.76-22.34,14.83-33.37,22.13-29,19.24-60,36.09-90.72,51.55-103.33,51.94-252.7,114.58-357.3,31.08-73.22-58.47-122-135.73-139.11-226.69-11.47-60.93-18.72-121.69-51.18-175.66-12.16-20.21-28.46-36.66-48.54-47.83-20.49-11.39-51.2-16.22-73.19-4.51C1413,17.46,1413.06,48.29,1429.94,60.86Z"/><path class="cls-1" d="M1318.24,80.52c-14.71.27-24.41,15.32-19.41,28.26a17.78,17.78,0,0,0,4.3,6.22c32.47,29.48,59.44,67.33,73.45,108.62,6.17,18.2,11.15,37,15.82,55.77,8.83,35.45,17.94,71.1,26.13,106.69,9.11,39.52,17.66,79.54,27.46,118.86,4.32,17.22,8.92,34.57,13.73,51.64,15.07,52.92,33.61,105.46,58.55,154.2,18.38,36,40.26,67,82.67,75.46,42.8,8.58,90-1.36,131-11.66,113.36-28.53,224.37-81.17,333-127.17,19.31-8.17,41.62-20.08,61.6-18.11,16.67,1.65,32.36,10.24,48.32,18.26,3.36,1.68,7,3.4,10.61,3.79a8.6,8.6,0,0,0,7.18-2.22c3.34-3.15,5.06-9.89,6.42-16.58,2.18-10.78,4.25-21.65,6.27-32.48.72-3.79,1.41-7.54,2.15-11.2,2.77-13.84,5-29.31.65-43.12A54.66,54.66,0,0,0,2195,524.19c-11.82-12.67-29.58-34.57-50-30.23-15.34,3.26-30,11.59-44.2,18.4-32,15.27-64.5,29.72-96.7,44.41-38.34,17.5-77.34,34.53-116.69,48.91-60,21.92-132.5,46.83-197.78,35.29-57.07-10.15-94.32-61.42-122.94-106.56-37.75-59.52-59.69-126.94-75.16-196.17-7.17-32.05-12.34-65.05-19.68-96.84-6.36-27.6-14.83-55.07-27.65-79.77a155.76,155.76,0,0,0-40.09-49.39C1381.38,93.67,1347.91,80,1318.24,80.52Z"/><path class="cls-1" d="M1196.6,127.78c-10.09-1-28.2-.09-28.1,14.88a9.7,9.7,0,0,0,1.71,5c23.22,38.8,55.36,71,73.54,112.7,8.37,19.21,15.71,39.2,22.51,59.07C1279,357,1291.2,395.67,1302,433.61c12.13,42.52,20.8,86.88,29.91,130.58,4.16,19.93,8.3,39.9,12.6,59.78,13.14,60.67,27.93,121.52,48.79,179.66,14.49,40.41,29.7,90,66.54,116.55,38.11,27.43,89.43,21.34,132.51,14.59,147-23.08,284.57-92.33,429.87-126.57,28.81-6.79,61.4-16.58,90.16-9.31,23.64,6,46.21,19.37,68.9,28.87,4.36,1.82,9.12,3.4,13.51,3.63,3.09.17,5.95-.58,8-3.11,2.81-3.43,3.65-10.34,3.67-17.44,0-11.83-.66-23.74-1.77-35.58-.38-4.14-.88-8.25-1.34-12.24-1.72-15-4.51-30.85-11.31-44.32a82.06,82.06,0,0,0-17.19-22.3c-19.14-17.44-39.86-36.61-67.73-35.28-19.63,1-38.67,8-57.17,14-36.48,11.67-72.4,24.32-108,38.4-42.14,16.66-84.42,34.22-126.88,49.77-67.42,24.68-144.3,52.58-217.59,49.91-73.89-2.68-103.82-62.71-131.86-121.46-38.68-81.05-61.48-169.12-81-257.29-8.21-37-17-74.12-26.38-110.74-7.44-29-15.77-58.29-27.94-85a198.05,198.05,0,0,0-35.72-53.44C1269.66,158.5,1231.89,131.08,1196.6,127.78Z"/><path class="cls-1" d="M1068.18,153.45c-12.88-5.24-31-12.26-44.53-7.2a3,3,0,0,0-2,2.19c-2,15.58,20.6,35.31,29.72,46.34,17.39,20.95,35.44,41.82,50,64.65,12.75,19.93,24.8,40.74,35.7,61.7a886.29,886.29,0,0,1,53.45,126.64c14.82,44.33,26.12,87.17,31.49,133.81,2.35,20.49,4.08,41.33,5.64,62,4.69,62.07,7.58,125.2,19.32,185.86,8.83,45.56,21.39,95.92,46.45,136.15,26.66,42.8,70.63,65.33,118,70.52,171.91,18.9,347.07-81.6,519.2-99.45,57.71-6,114.16,7.51,166.88,30.43,51.26,22.27,100.26,56.24,153.15,75.47,6.21,2.26,11.63,3.52,15.25,2.68,2.53-.6,4-2.56,3.44-7.14-.62-5.38-4.1-14.31-8.18-23.63-6.64-15.16-13.73-30.3-20.94-45.19-2.47-5.08-4.91-10-7.28-14.69-8.1-16.29-16.3-33.4-27.13-47.57a162.31,162.31,0,0,0-22.78-24.66c-26.82-23.08-55.91-45.93-92.49-49.36-61.33-5.75-132.75,15-190.19,31.54-45.29,13.05-90.59,28.28-135.82,42.11-75.23,22.93-155,46.87-234.5,48.06-36.09.53-70.55-7.4-96.77-33.56-25.25-25.19-38.73-61.08-52.15-93.13-40.09-95.74-65.12-197.29-90.51-298.19-10.79-43-24.32-85.37-36.87-127.93-9.46-32.12-19.27-64.56-32.31-94.92a286.48,286.48,0,0,0-34.81-60.12C1156.24,206.68,1114.35,172.23,1068.18,153.45Z"/><path class="cls-1" d="M914.16,139c-17.47-9.25-37.37-18.85-57.65-21.25a29.46,29.46,0,0,0-5.71-.17c-19.11.79,19.36,35.28,22.85,38.56,22.07,20.79,45.51,40.45,66.19,62.43,18.11,19.27,35.76,39.51,52,60.27,31,39.51,58.33,82.57,79.44,128s28.15,88.66,25.18,138.48c-1.28,21.46-4.07,43.4-7.35,64.82-10,65.36-26.18,131.11-33.65,196.63-5.39,47.23-5.42,94.84,3.49,142.15,10,53,35.77,94.08,81.33,119.43,89.75,49.86,206.65,26.8,305.79,4.7,91.21-20.32,190.26-58,284.77-51.45,115.28,8,231.38,64.84,333.08,114.79,60.09,29.51,119.4,61.42,178.72,92.87,46.66,24.75,93.85,52.45,142.62,70.82,8.65,3.26,18.37,7.24,27.8,7.39,4.42.07,7.24-1.87,6.17-7.13-1.76-8.67-7.33-17.23-11.77-24.91-10.26-17.7-22.38-34.87-34.83-51.34q-6.68-8.82-13.24-17c-15-18.69-31-37.07-48.59-53.12a480.58,480.58,0,0,0-42.48-34.3c-68.72-49.43-143.18-92.06-221.88-121.58-42.69-16-87.89-29.2-134-32.72-41.46-3.17-84,3.68-124.2,12-45.4,9.37-90.79,22.12-135.93,33.83-75.9,19.71-153.87,39-232.93,38.58-37.61-.21-75.83-7.59-107.14-29.4-33.69-23.52-52.25-57.09-65.93-93.86-39-104.8-46.82-217.84-57.79-330.2-5.33-54.45-14.94-105.27-33.08-156.72-12.75-36.08-27.37-72.13-45.17-105.7a472.39,472.39,0,0,0-42.71-66.15C1026.55,214.45,972.82,170,914.16,139Z"/><path class="cls-1" d="M984.73,537.29c-7.61,91.14-47.34,181.07-76.65,268.69-28.72,85.9-64.46,198.6-14.21,277,43.23,67.47,142.38,84.51,221.27,79.5,81.34-5.19,160.51-27.63,240-44.19,37-7.72,74.38-14.59,112.15-17.07,42.73-2.81,81.81,3.92,122.81,15.85,151.27,44.1,296.28,114.8,436.42,185.1,108,54.18,214.64,111.82,321.78,168.15,41,21.56,82,43.12,123.81,63.05,25,11.9,51.7,25.84,79.16,30.58,7,1.21,12.6.46,13.1-3.92,2.49-21.81-25-51.5-39.32-68.08-24.23-28-54.35-51.39-84.58-73.1-182.8-131.26-392.76-237.4-604.81-315.8-66.52-24.59-141.59-54.42-213.73-53.18-60.11,1-119.54,15.47-177.84,28.86-126.55,29.09-353.54,82.67-405.39-76.63-27.59-84.78-15-183-1.66-273.43,12.49-85.12,37.7-179.53,21.14-264.26-13.18-67.48-58-133.93-102.42-185.87-51.38-60.06-117.9-107.7-189.45-141.18-20-9.35-42.89-19.12-65.38-19.85-38.26-1.26-7,30,5.89,41,25.24,21.5,54,38.9,79.46,59.78,63.08,51.63,121.56,110.33,162.36,180.57C974.61,443.67,989.07,485.37,984.73,537.29Z"/></g></g></g></g><rect id="Shape-4" data-name="Shape" class="cls-4" x="310.5" y="499.5" width="1600" height="1201"/></g></g></g></svg>