<svg xmlns="http://www.w3.org/2000/svg" viewBox="0 0 881.93 576.12"><defs><style>.cls-1{fill:#FFFFFF;}.cls-2{opacity:0;}</style></defs><title>Asset 1</title><g id="Layer_2" data-name="Layer 2"><g id="Layer_1-2" data-name="Layer 1"><path class="cls-1" d="M258.57,178.19c.28,0,.49.14,0,0Z"/><path class="cls-1" d="M639.49,90.82a11,11,0,0,1-1.34-5.53l2-2.15v-8c-1.36-1.94-3.33-2.82-5.51-3.62s-1.89-3.9-3.57-5.38c-1.56-.36-3.34.7-4.8-.9l1.79-2.09-4-4.21V55.8c-2.63-2.87-4.86-5.31-7.16-7.8-1.58.6-3.41-.57-4.77,1.2,0,2.22.13,4.55,0,6.86-.18,2.58.66,5.24-.31,7.46L609.37,66c-1.36-.51-2.49-2.8-4-1.71-3.53,2.65-8.28,3.26-11.39,7.1,1,.3,1.78.6,2.63.81a1.88,1.88,0,0,1,1.52,2.41l-6.94,7.58c-2.15.14-3.8.22-5.73,1.36-3.1,1.84-6.61,4.1-10.45,2.41-3.68-3-6.11-7.1-10.7-8.7a3.1,3.1,0,0,1-2.21-3c.15-2-1.83-2.57-2.81-3.82-.81-1-2.48-1.78-2.69-2.87-.76-4-4.25-5.62-6.47-8.33s-3.33-6.2-6.32-8.43a55.53,55.53,0,0,1-5.7-5.58V42.4c-2.6.78-4.2-1-5.46-2.81s-3.45-1.34-5-2.62-3.85-1.67-4-4.28a8.34,8.34,0,0,1-5.51-3.54v-6c5.37-4.43,6.4-11.41,10-16.52-.29-2.26.52-4.29-.67-6.09-3.14-1.8-5.29,1.3-8.13,1.64L517.19.3l-2.08,1.87h-9.9L503,4.23h-9.58c-2.46,2.12-4.42,5-7,5.73-3.56,1.06-3.54,4.18-5.28,6.22h-4c-1,2.43-4.27,1.4-5.59,3.51-.24.38-1.15.4-1.76.47-1,.11-1.93.12-2.52.15l-3.16,2.81v3.19c-1.2,3.2-3.44,3.76-5.93,4.57V37.2l-3.08,2.92c-2.44-2-2.44-2-4.94-1v4L447.27,46l-4.92-4.16c-4.65,1.25-3.76,7.1-7.56,8.29l-4.55.25-7.36,7.48L420.74,56c-2.65,1-5.05,2.7-7.95,2.43A16.94,16.94,0,0,1,411.27,62c-.95,1.28-2,2.56-4.06,2.26-1-.14-1.12,2.55-2.79,1.28-.87-2.39.69-5.14-1.95-8-1.19,1.88-2.26,3.56-3,4.74L394.59,62c-3.37-4.94-9-7.69-11.24-13.56-1-2.66-4.86-1.73-6.19-4.27-2.66,0-5.33,0-8,0-.23,0-.46.45-.79.81-.16,1.42-.34,3-.55,4.88l-5.64,3.24v2l2,2.13c0,1.67,0,3.33,0,5,0,.33,0,.65,0,.88-.68.8-2,1.75-1.84,2.26,1,3.31-2.2,5.23-2.4,8.08-3.18,1.57-.26,6-3.54,7.53v5.84l-2.14,2.36V95.1c-1.5,1.17-2.24,3.45-5.14,3-.93-.82-2.13-1.88-3-2.7V89c-2.52-2.51-4.81-4.94-7.25-7.21s-6-2.54-7.46-5.65h-6.07c-.81-.7-1.59-1.92-2.28-1.88-2.44.17-4.19-1.19-6.25-1.91-2.37-.83-5.26-.18-7.93-.19-1.94,0-4,.46-5.3-1.69-3,.42-5.3-1.76-8-2.44l-2.33,2.1h-5.92L284.81,68C284,71.51,281,69.63,279,70.35l-3.83,3.83c-1.83.16-4.41-.69-5.82,1.83-3.15-.2-4.23,2.71-6.33,4.2h-7.2l-9.65,5v3.94l-1.93,2.08v4.07c1.92,1.2,4,1.87,5.7,3.46s4.25,2.45,6.15,3.49c2.29-.35,3.63-4,6.07-1v4l-2.92,2.91h-5.89L249,112.23h-3.67c-1.68,1.42-3,3.41-4.7,3.77-2.28.49-3.2,2.15-4.63,3.38s-2.76,2.72-3.33,3.29c-.9,2.57.28,4.45-1.79,5.57h-3.47l-5.75,5.31,6,1c.19.68.7,1.47.48,1.84-2.36,4-6.21,6.61-8.77,9.62-2.23.41-4.07-.63-5.22,1.33v1.85l-7.89,7.89V161l-4,4.19c-.43,1.67.71,3.51-.9,4.77-1.22,1-1.14,2.2-1.21,3.52-.09,1.56.72,3.38-.9,4.61-1.27,1-1.2,2.29-1,3.56a10.32,10.32,0,0,0,1,2.57c.37.84.78,1.66,1.17,2.49l-2.12,2.43c.61.65,1.88,1.43,1.79,2-.4,2.58,1.79,3.35,2.93,4.85,2.77-.27,3.93,2,5.52,3.55,4.91,4.72,8.18,6.44,16.42,8.67.85.24,1.49,1.23,2.3,1.93h7.86l2.22,2.06h19.83l2.08,1.86H270.5l11.45-5.9h7c3.25-3.68,8.6-6.15,12.42-6.22,1.89-1.89,3.76-3.78,5.68-5.64.18-.18.61-.1.93-.14h3a10.53,10.53,0,0,0,3.71-5.36c.68-2,3.11-2.86,3.69-5.51.42-1.92,2.93-3.47,4.68-5s2.61-3.93,5.2-4.16c1.93.25,2.53,2.07,3.85,3l-2,2.19v17.89c-5,4.23.3,7.36.95,10.95h11.14L354.36,198c.48-1.62-3.81-2.64-1.47-5.65H361c1.29-1.3,2.23-2.24,3.18-3.18v-4.05c-1.86-1.85-3.76-3.72-5.63-5.62-.11-.12,0-.46,0-1.18a4.29,4.29,0,0,0,4.75-2.38c1.1-2.19,3.77-1,5-3l-.57-2.75L366,171.31c-1.78,1.09-1.78,1.08-3.65-.41,1.38-.8,1.85-2.78,3.9-2.75s2.43-2.05,3.8-2.86,2.74-1.4,4.1-2.09v-6c2.54-1.33,1.78-4.83,4.24-6.28,2.2-1.3,3.31-3.77,6-4.88a22.15,22.15,0,0,1,7.1-2.15c1.8-1.3,2.61-4,5.49-3.67,4.52,3.65,7.65,9,13.37,11.18,4.48,4.48,9.18,8.76,13.35,13.51,2.65,3,6.83,3.67,9.23,6.93.59.81,2.19.87,3.22,1.24,0,.93.07,1.58.11,2.34,2.35,2.23,4.43,5.11,7.25,6.6,2.11,1.12,4.56,2.1,6.54,3.37s3.87.1,5.53,1.23c1.81,1.22,3.56,2.72,5.57,3.42a4.87,4.87,0,0,0,4.69-.44c2-1.5,4.35-3,6.6-3.19,3.56-.25,6.81-1.28,10.2-2a9.36,9.36,0,0,0,5.59-3.5v-9.84c1.44-.74,2.85-1.38,4.18-2.17,1.6-1,3.78-.87,4.87-2.73,2,.48,2.94-1.07,4.08-2.2,1.38-1.37,2.75-2.74,4.16-4.16,4.16,1.77,7-1.18,10.16-2.33,1.12-.4,2-1.24,3.43-1.42,1.11-.15,1.55-1.88,3.19-1.95,4-.17,7.16-2.18,9.94-5a8.45,8.45,0,0,1,2.46-1.22l2.49,2.16H549c1.18-2.11,3.81-1.89,5.64-3.2s3.82-2,5.51-3.58,3.75-2.12,6.12-3.39h11.1c.71-.7,1.18-1.18,2-2h8l1.73-1.76h6c.74-.7,1.46-1.37,2.21-2.06h5.92c1.23-1.9,1.37-4.75,3.6-5.48a9.15,9.15,0,0,0,5.4-3.89v-3.57l2.85-3c.75.66,1.44,1.29,2.29,2,1.78-2.33.3-3.68-1.27-5.08l3-2.8c1.44-.12,3-.59,4.58.32,1.23,1.83,0,2.87-1.1,4.16-.93,1.13-.58,2.41.6,3.32h2.24a13,13,0,0,1,1.24-3.39,30.2,30.2,0,0,1,3.49-3.58v-6l5-5c2.18-.37,4.54.53,6.65-.67C643.58,97.44,641.33,93.93,639.49,90.82ZM338.26,121.57l-6.16,4.91v4.75c-1.36,1.67-3.16.63-4.52.91-1.77.61-1,2.44-1.71,3.22-2.91,3-5.69,6-9.64,8-2.74,1.36-4.62,4.16-7.64,5.69-2.82,1.43-4.81,4.51-7.3,7h-4.37l-5,6.18h-4.81c-.75.75-1.45,1.46-2.16,2.16-.47.47-.94,1.35-1.41,1.35-3.34,0-4.45,3.54-7.18,4.47-.86.29-1.61,1-2.48,1.22-2.48.79-.61,5.84-4.82,4.85l-6.78,4.16c-.88-.52-1.93-1.16-3.71-2.24h-.06c-1.66,0-3.33,0-5.14,0l-2.24,1.93h-5.64c-1.51.78-2.12,3.06-4.94,1.47l-2.36-2.43c2.49-2.5,4.95-5.09,7.57-7.53,1.47-1.36,1.93-3.25,2.94-4.75,1.59-2.34,2-5.53,4.8-7.05,2.18-1.18,2.06-4,3.61-5.45,1.81-1.7.4-3.81,1.39-5.59,1.32-1.46,3.15,0,5.26-1.21,1.05-1,2.69-2.69,4.37-4.37V139c2.28-2.22,4.72-4.48,7-6.88,2.89-3,6.08-5.66,8-9.67.95-2,2.83-4.59,6.05-4.33,1.65-1.65,3.3-3.29,5-5v-4l3.38-3.27c.3-.48.65-.78.61-1-.78-4,3.79-7,2.38-10-1.09-3.71-4.79-4.32-4.34-7.67L306.36,82l3.06,2.16H317l8.33,8c1.95-3.32-.34-6.87,1.84-10.38L332,88.55v2.07c1.22,2.39,4.39,1.53,5.42,3.84.87,2,2.18,3.84,2.6,5.9.46,2.22.1,4.61.1,6.73l2,2.32C341.47,113.51,337.49,116.36,338.26,121.57Zm58.56-27.92a19,19,0,0,1-1.49-1.32,8.81,8.81,0,0,1-1-1.36c1.44-1.28,10.1-6.3,11.94-6.74.46-.11,1.08.46,1.86.83C404.87,88.48,402,92.18,396.82,93.65Zm60.39-3.53L460,93.24c-.69.76-1.53,1.66-2.32,2.51-2,.77-3.76.47-5.86-.18Zm-5.84,8.24c1.56,1.56.23,3.32,1.21,5.21l-3.44.63c-1.77-1.76-.43-3.52-1.64-5.84Zm62.94-.28c-.64,2.8-3.8,3.39-4.28,6.27-.34,2-1.84,3.87-2.84,5.81h-1.92c-1.84,1.18-.77,3-1.53,5.5l-3.53,2V129.5c-2.64,2.53-5.09,6.15-8.5,7.79-4.36,2.11-6.9,5.82-10.36,8.68-2.81,2.32-4,5.56-5.24,8.94l1.95,2.26-2.9,3.06c-1-1.14-2.81-2.2-2.86-3.34-.14-3.63-5-4.37-4.6-8.14,0-.16-.46-.51-.73-.55-2.92-.38-4.39-1.92-4.92-4.92-.34-1.92-5-.4-3.95-4.16-1.65-1.64-3.29-3.29-4.94-4.94-4,1.66-1.75-4.27-5.15-4.17-2.73.07-3.79-3.34-5.84-4.85v-6c2.5-1.41,1.92-3.89,2.12-6.09l2.85-2.85H457c3.22-1.59,2.9-5.77,6.14-7.89l4.46-.25c.42-.59,1.34-1.87,2.25-3.16l-1.35-1.34c.37-2,2.83-2.56,3.25-4.17a7.82,7.82,0,0,1,3.4-5l4.3-.5A12.19,12.19,0,0,1,486,80.17c.83-.4,1.63-.87,2.44-1.31,1.65-.89,1.28-2.86,2.18-4.07a17.57,17.57,0,0,1,4.22-4.21c1.65-1.09.9-3,2-4.23a19.93,19.93,0,0,0,2.2-4.12h4c2.32,3.56,3.15,8.2,7,10.81,0,2.06-.72,4.52.19,5.91,1.06,1.61,1.28,3.69,2.62,4.91,1.82,1.65.79,3.69,1.34,5.47,1.18,1.17,2.36,2.35,3.56,3.56C516.63,94.6,514.74,96.18,514.31,98.08Z"/><path class="cls-1" d="M819.41,238.43l1.42,1.42a2.71,2.71,0,0,0,.86.31c1.67,0,3.49.46,5-.08,2.31-.85,4.37-2.36,7-3.86h11.43c1.44,2.31,3.8,2.08,6.1,2,1,.95,2.45,1.76,2.72,2.87.68,2.75,1.63,4.53,4.77,5.27a4.51,4.51,0,0,1,3.55,5.15,4.91,4.91,0,0,0,.88,2.6c1.84,3.36,3.77,6.62,3.16,10.75-.1.65,1.1,1.5,1.83,2.43v9.87l-1.92,2.08v6l-3.12,3c-3.8-.4-8.09.81-13.52-2h-2.26l-3.11-5.68c-.42-.78-.89-2.27-1.22-2.24-2.52.24-3.28-2-4.77-3.11-1.32-1-1.75-2.46-2.29-4.06s-3.24-2.83-3.54-4.47c-.48-2.75-2.81-3.53-3.9-5.13-.32-1.81-.23-3.59-1-4.87s-1.62-2-1.27-3.44l-5-5-4.29,4.05h-3.79l-3,2.89v4c-1.18,1.7-3.53.91-4.95,2.74-2.34,3-5.06,5.85-8.92,7.26a3.88,3.88,0,0,0-2.22,3c-.43,2.34-1.84,4.18-4.9,4l-1.9-4h-2.1c-2.08,1.9-.6,4.37-1.11,7.09-1,1.06-2.43,2.44-3.82,3.82.74,2.29-2.14,3.1-2.09,5.14s-2.06,2.43-2.83,3.82c-1.08,1.95-3.38,1.7-4.82,2.85a56.61,56.61,0,0,0-4.28,4.21l1.32,1.43a5.92,5.92,0,0,1,.6,1.71c.06,3.66,0,7.32,0,10.89-2.84,4.29-3.63,6.16-4,9.87l-4.46,5,2.49,3.43v7.7l-1.95,2.11v16L762,359c-.44.57-1.3,1.16-1.34,1.8-.3,4.6-.44,9.21-.61,13.34,1.68,3.17,3.12,5.91,4.55,8.62-2.57,1.42-5,2.23-6.44,4.62v3.88c-2.08,1.23-2.79,3.69-1.82,5.12,2.44,3.61,1.4,7.49,2,11.25.51,3.47-1.63,6.12-2,9.19-.45,3.95-.11,8-.11,12a33.18,33.18,0,0,1,0,4c-.07.54-.77,1-1.07,1.54-.89,1.64-1.72,3.3-2.63,5.06.42.46,1.05,1.17,1.64,1.84l-1.78,2.06c1.27,1.28,2.45,2.46,3.63,3.63-1.16,2.13-2.31,4.26-3.73,6.86v13.36c-2.25,1.91-2.49,5-4.79,7.12-1.92,1.74-2.62,4.81-4,7.58-1.52.83-3.52.21-5.45.33-1.64.1-3.29,0-4.82,0-2.79-3.54-6.66-5-10.47-6.52l-1.41-3.42c-2.46.51-3.38-1.61-4.83-2.82,0-4.18-3.59-4.74-6.24-6.24v-2l-7.78-7.78c-.45-4-4.29-5.54-6.33-8.38-1.41-2-3.55-2.57-5.54-3.55-3.17-1.55-6.4-3.1-8.07-6.58l4.71-4.7h10c1.42,2.42,4.54,2.05,6.44,3.88.67.65,2.5.11,3.67.11,1.26,1.72,1,4,2.92,5.06-.6,2.53,1.91,3.21,2.83,4.83,1.84,3.22,3.46,6.55,5.17,9.85a14.6,14.6,0,0,0,1.26,2.46,15.28,15.28,0,0,0,2.18,1.94c3.19-.65,4.39-3.45,6.55-5.06-2.37-3.13-2.37-3.13-.26-5.79,1.17-3.42-1.43-7.49,2.24-10.26V425.27l4.14-4.34-4.11-1.5c0-1.8.1-3.75,0-5.68-.12-1.78.23-3.24,1.75-4.29q-.07-7.35-.14-14.71c-2.58-1.39-1.14-4.17-1.76-6.38l-3.94-.24c-2.86.56-3.31,4.32-6.58,4.16-1-.05-2,1.42-3.18,1.82a9.24,9.24,0,0,1-3,.07c-2.11-1.53-1.17-5.25-6.36-6h-3c-3.06-1.65-6.42-2.84-8.5-5.79-3.89-.11-3.89-.11-6.22,1.71-1.9-1.09-.64-3-1.15-4.37-1.26-3.82-6.23-3.16-7.92-6.57v-4.59l-3.9-3.07c-.56-3.16,2-3.72,2.69-5.35h10.23c2.06-3.25,5.44-1.39,8.13-2.14,2.79-2.22,2.79-2.22,5.94.17h4.47c5.44,0,5.44,0,11.41,4H725l2.18,2h4c1-1,1.91-1.91,2.91-2.91V349.35l2.06-2.21v-5.9a12.62,12.62,0,0,1-1.95-2.25,10.4,10.4,0,0,1-.6-2.73h-4.42c-1.26,1.21-2.69,2.56-4.15,3.95h-3.62l-3,2.15c-2.53-.8-3.41-2.78-5-3.86-1-.68-2.56-.69-3.33-1.51-1.63-1.74-4,.18-5.45-1.38-1-1.05-2.46-1-3.32-1.58-2.15-1.48-3.79-3.68-5.7-5.66h-13c-.2,1-.38,1.89-.63,3.1-1.05,1.42-2.86.43-4.59.75-2.13,2.11-5.08,3.7-5.67,7.32a3.19,3.19,0,0,1-2.05,2.06c-3.62.68-5.22,3.13-6.29,6.29-.09.27-1.19.2-2,.31-4,3.51-7.87,7.17-9.34,12.84-.42,1.63-2.47,2.83-3.77,4.22,2.34,2.39,3.51.18,4.91-1.08h10c.94,1.3,2.7,1.94,3,3.76-.83,3.43-4.36,4.71-6,7.49v3c-8.59,9.95-10.35,11.19-17.07,11.78l-3.43,3c.69,1.32,1.24,2.86,1.51,2.82,1.94-.34,2.87,1.12,4.11,2,1.56-2.49,4.1-2.45,6.07-1.48,1.44.72,2.57,1.77,4.35,1.61a7,7,0,0,1,5.39,1.6c1.27,1,3.8.36,6,.47,1.87.86,2.62,3.49,5.14,3.94,2.07.36,3.22,1.9,4.18,4.22l-2.21,3v3.78l-3.81,3.73c-.11,2-.24,4.24-.39,7-2.83.76-5.82-.1-8.59.39l-2.31-2.13H653.2l-2.13-1.88L649.33,424c-1.65-3.42-6.2-.17-8-3.73h-9.69c-1.58-.77-2.29-2.84-4.37-2.09l-2.16,2c-1.89-.14-3.67.21-5.49-1.35s-5.19,0-6.85-2.65c-1.55.2-3.07-.29-4.64.92a19.32,19.32,0,0,1-9.71,3.64v23.35c-2.4,4.26-5.23,7.89-4,13.18l-4.2,2.87v9c-.48.47-.95.94-1.77,1.77v8l-2,2v7.25c-1.89,2.59-2.51,5.42-4.64,7.53s-2.74,5.9-5.74,7.55c-2.43,1.34-5,2.4-7.52,3.59-.8,5.36-2.35,8.23-7.16,13.14-3-.78-5.17,1.8-8.39,2.4l-1.05-3.5c-.56-.25-1.16-.75-1.69-.69-2.13.23-3.53-1.21-5.25-1.86a25.69,25.69,0,0,1-10.28-6.61,39.17,39.17,0,0,0-8.19-6.61c-2.78-1.74-5.72-4.16-6.66-8.1-.39-1.61-2.58-2.79-4-4.25l2.63-4.79-2.08-2.88c2.11-1.78,1.81-5.43,4.84-6.89H527l4.32-4.12h5.91c1.25-1.53,2.8-2.52,3.13-4.85.21-1.54,2.42-2.79,3.72-4.15l-1.6-1.61a5.4,5.4,0,0,1,.72-1.34c1.61-1.68,3.28-3.31,4.93-5,.2-2.21-.88-4.84,2-5.76v-8.31l-1.77-1.77,1.64-2.17V424.94l-2.88-2.71L545.37,424H526.09c-2.47,1.47-4.49,3.06-6.78,3.92-1.7.63-3.79.94-5.43-.89-.54-.62-1.67-.72-2.42-1l-2.32,2.14c-.71,0-1.53.25-2,0-4.5-2.8-8.95-5.63-14.37-6.38-.53-.07-.95-.89-1.5-1.44l-2.08,1.82L487,420.14h-5.89c-1.6-1.22-.68-4.88-4.16-4.15l-5.74-5.73h-5.53c-2.47-.62-.65-5.3-4.49-4.08-1-1.23-2.13-2.4-3-3.72a27,27,0,0,1-1.73-3.53c1.06-1.79,4.18-2.72,3.84-5.9,1.54-1.21,4-.95,4.32-4.1.22-2.23,3.42-2.49,5.33-3.55s3.68-2.52,5.71-3.09c1.77-.49,4-.62,5.32,1.8l2.13-1.78c4.72-.08,4.72-.08,9,1.87s4.36,2,9.06,2.1l2.41,2.12a10.55,10.55,0,0,0,2.46-1.18c2.59-2.18,4.78-1.57,7,.84l2.16-1.82h7.93l2.08,1.93h12a6.92,6.92,0,0,0,4,2.28c1.4.4,2.41,2.19,3.76,3.55h4.39c.73-.88.73-.88-.68-2.29a7.59,7.59,0,0,1-.51-1.78c0-2.67,0-5.34,0-8-1.43-2-1.63-4.82-3.72-6.43s-4.89-1.75-6.26-4.32v-3.95c2.55-3.5,6.93-4.09,10.29-6.35,2.1-1.42,4.48-.38,6.66-.7l2.15-2h5.08a48,48,0,0,0,5.78,2.9c2.36.82,4.16,3.2,6.71,3,2.79-.22,4.27,2.94,7.19,2.15,2-.53,2.8,2.77,5.16,2,1.82-.6,2.92.81,4,2l1.54-1.54c.27-.15.54-.42.82-.42,4,0,7.92,0,12.11,0l.65,2.91-4,3.81v10.29c-2.57,1.39-2.08,3.52-2.15,5.79.7.77,1.56,1.72,2.26,2.51.45.32.71.66,1,.66,3.31,0,6.62,0,9.74,0,3-2.39,3-2.39,5.88-.2h12.77c.15-2.14-1.32-1.64-2.33-1.82a1.69,1.69,0,0,1-.78-.5c-.21-.22-.51-.55-.47-.78.53-3.5-4.54-3.87-4.09-7.36,0-.39-.76-.89-1.17-1.34L621,382c-.24-.23-.68-.46-.68-.7,0-4,0-8,0-12.16l1.86-2v-8l2.84-2.77c2.14-2.28.06-4.74,2.1-6.15,1.71-1.18.82-3,1.12-4.44-1.24-4.09-6.64-2.91-8.05-7.89V325.18c2.29-1.85,2.57-5,4.77-7.12,1.81-1.76,2.45-5,3.89-7.24,1.18-1.84,1-4.56,3.35-5.66,2-.94,2.05-3.19,2.73-4.86,1.17-2.84,3.74-5.11,3.38-8.66-.1-.94,1.29-2,1.68-2.61,1-2.82-4-3.72-1.07-6.58,2.69-.1,5.67-1.32,8,1.44a1,1,0,0,0,.87.27c5.3-1.47,8.64,3.48,13.33,4.12.45.06.75,1.57,1,2.44a.94.94,0,0,1-.36.81c-2.25,1.29-1.49,3.45-1.64,5.78-3,1.92-4.39,6.19-8.77,6.87-2.61,2.54-5,5.44-7.94,7.48-1.47,1-3.45,1.44-4.73,3-.64.76-2,1.4-2,2.13-.15,3.34-4,4.38-4.41,7.18s-3.29,3.16-4.08,6.43v2.85c.57.33,1.09.87,1.65.91,1.65.12,3.33.05,6.1.05.52-.69,1.5-2,2.53-3.3.42-.51,1.37-1,1.34-1.41-.29-3.51,4-4.23,4.29-7.24.12-1.19.56-2,1.58-2,2.86,0,3.55-2.7,5.46-4h3.94c3,2.5,3,2.5,6.22.1l1.77,1.77h12l2.38,2.38,2.6-4.25h9l2.22-2.06h5.87c.8-.7,1.75-2,2.24-1.87,3,.94,4.9-1.27,7.17-2.19,4.18-1.67,4.11-1.85,8.5-1.93l5.28-6h2.9l5-9.77c.24-1.86-1.46-2.24-2.09-3.32-.88-1.52-3.62-.1-3.82-2.22-.14-1.48-1-2.25-1.65-3.35a71.47,71.47,0,0,1-3-7.07L713,276c-.23-.24-.67-.47-.67-.71,0-3.31,0-6.63,0-9.75-1.52-2.47-3.82-3.5-6.15-4.54-.07-3.87,3.07-4.41,5.94-5.59l-1.58-2,2.34-4.91c2.25-1.46,3.32.94,5,2.16l3.82-2.52c2.09-.56,5.46,1.27,7.52-2h4c.34.49,1,1,1,1.51.13,1.65-.2,3.38.13,5,.24,1.14,1.78,2.11,1.81,3.19.07,2.52,2.14,1.78,3.23,2.6,1.45,1.08.82,4,2.92,4.67,3.92,1.3,6.34,4.4,9,7.17.8.82,1,2.23,1.57,3.61h11.28l5.47-5.51,3.45-.24c1.55-1.92,1.64-4.91,5.22-6.06h3c1.39-1.78,4.12-2.64,2.11-7.11l3.9,3.09c1.26-1.26,2.43-3.4,4-3.71a7.44,7.44,0,0,0,4.08-2.33c1.41-1.42,2.73-2.95,4.26-4.22,3.15-2.61,7.05-3.88,10.68-5.58,1.91-.89,3.51-2.8,6.16-2.2C817.23,240.25,818.39,239,819.41,238.43Z"/><path class="cls-1" d="M370.13,393.29v1.92c-1.92,1.92-3.81,3.8-5.83,5.83v4.34l-5.84,4.74c-1.12,4.35,1.64,3.83,3.32,4.61a10.67,10.67,0,0,0,.64,2.62c.22.43,1.06.55,1.61.83,2.25,1.15,4.36,2.79,7.36,2,1.34,3.31,5.17,3.47,7.45,5.72,2.13,2.1,4.07,4.47,6.48,6.18.84.59,2.28.63,3.35,1.52.89.74,2.26.89,3.34,1.27.06.86.11,1.51.15,2.16a13.87,13.87,0,0,0,1.29,1.46c2.23,1.88,3.68,4.73,6.63,5.7,3.28,1.08,4.51,5.34,7.53,5.79,3.32.49,3.79,4.65,7.32,4.38.89-.07,2.06,1.52,2.86,2.53,3.11,3.92,8.18,4.58,12,7.26.67.47,1.95.07,3.34.07,1.43,1.42,3.14,3,4.65,4.69,1.73,2,4,3.07,6.19,4.35,1.61.92,3.74.81,5,2.66.85,1.29,2,2.67,4,2.37.33-.05,1.16.88,1.13,1.31-.2,2.92,2.63,3.59,4.06,5.71a28.67,28.67,0,0,1-.09,5.61c-.29,1.45-2.56,2.17-1.82,4.3l1.89,2v6c-4.09,1-6.15,4.57-9.14,7a15.06,15.06,0,0,0-6.07,1.77l-1.61-1.62-2.1,1.67c-.61-.51-1.3-1.09-2.09-1.77h-5.81l-2.2-2.05H414.91c-2.36-4.59-8.06-4.49-11.53-7.78-4.16,0-4.73-3.58-6.25-6.23h-2.22c-.38-1.1-.78-2.26-1.1-3.21-3.61-4.41-8.74-7.25-10.7-12.8h-1.65l-7.29-6.93c0-.84-.07-1.5-.1-2.16-1.8-1.25-4.12-1.56-5.59-3.49a43.26,43.26,0,0,0-4.19-4.27,12.88,12.88,0,0,0-5.48-3.71c-1.69-.52-2.88-2.66-4.3-4.07l-4.94-4.95c-1.42-1.41-2.83-2.82-4.38-4.38l-2.8.31v10.9c.49.48,1,.95,1.59,1.59v20.36l-1.58,1.58v10.48l1.87,1.86c-.79,3.17,1.53,7.1-2.11,9.91q0,3,0,6L340.38,509v6.49l-3.71,1.13c-1.87,1.12.95,5-2.17,6.27.08,3.09-2.76,4.21-4.29,6.54v5.88c-1.17.93-2.38,2-3.68,2.9-.71.51-2.18.7-2.28,1.23-.95,5.2-5.42,8.35-7.36,13-.71,1.68-.78,3.84-2.73,4.86,1.06,2.62-3,3.41-2.1,6.2.55,1.82.1,3.93.1,5.7-2.3,3.16-6.59,3.31-8.65,7l-2.34-1.76h-8.24l-2.81-4.12H283c-.59-2-.74-4.35-1.91-6-1.61-2.25-.58-4.47-.86-6.67-.17-1.28.08-2.55-1.13-3.55-2.12-1.74.6-5.57-2.86-6.8,2.3-1.5,2.1-4.47,3.81-6.44.82-1,.14-3.21.14-4.88.36-2.15,4.09-3.22,1.74-5.75a13.81,13.81,0,0,1,1.27-2c2.09-2.15,4.15-4.35,6.38-6.34,1.63-1.46,2.67-3.5,5.43-3.88,1.6-.21,2.8-3.36,4.4-3.58,2.39-.33,3.27-2,4.73-3.19,1.3-1,2.44-2.21,2.13-4.11,2.38-1.55,3.29-5,6.95-5.08a3.88,3.88,0,0,0,2.68-2.69c.08-3.2,2.91-4.18,4.34-6.36v-3.83l3.58-3.58a10,10,0,0,0,.35-1.85c0-5.66.11-11.33,0-17-.06-2.5,1.1-5.39-1.71-7.28.07-2.9.07-5.81.26-8.7,0-.5.88-.94,1.41-1.47l-1.91-2.13v-5.9l-2.06-2.2v-10c-1.53-.95-1.66-2.58-2.29-4s-2.24-2.41-3.54-3.71v-5.85l5.88-3.9v-6.33l-2.33-2.5c1.29-2.56,2.64-5.23,4-7.9l-1.65-1.64c0-3.4,0-7,0-10.67a7.91,7.91,0,0,1,.45-1.8l1.41-1.42c-2.45-3.15-2.45-3.15.12-6.29a16.53,16.53,0,0,0-1.76-6.07l1.42-1.41a11,11,0,0,0,.32-1.86c0-6.66,0-13.32,0-20,0-2,.34-4.07-.1-6-.4-1.75-1.64-3.29-2.62-5.14-1.95-.89-4.27-.26-6.54-.36s-4.66,0-7,0c-3,1.74-6.44,2.84-8.53,5.91H281.51c-3.37,2.63-3.37,2.63-6.39.18L273,340.21c-4.09-.67-6.92-4.7-11.07-4.08l-9.69-9.7v-3.16c.44-.34.92-1,1.42-1,2.66-.11,5.33-.05,8-.05a7.58,7.58,0,0,1,5.42,1.56c1.25,1,3.78.42,5.78.55l2.37-2H285l2.2-2,1.81,1.63c1.26-.61,2.35-1.52,3.5-1.61,3-.22,5.94-.07,8.7-.07l2-2h6l1.81-1.8h18.44l1.71,1.7H341l9.15,9.59v3.75l-3.44,1.19c-.18.26-.51.52-.52.78,0,4,0,7.95,0,11.77L348,347l-1.88,2.43v11.79l-1.85,1.85,1.86,2.15v15.89l-1.94,2.11v12c1.47,1.48,2.73,1.14,4.17-.18s4.38-1,4.2-4.16c0-.67,1.21-1.86,2-2a10.58,10.58,0,0,0,6.78-5.11c1.32-2.21,2.42-4.45,4.39-6.15.31-3.72,3.29-5.69,5.76-7.51s2.46-4.46,4-6.5c1-1.35.63-3.73,1-6.85.7-2.32,5.4-3.18,5.73-7.33.08-1.1,1.44-2,1.85-3.2a9.48,9.48,0,0,0,.06-3c3.23-3.59,6.75-6.8,9.35-11.09,2.35-3.87,6.35-6.75,9.57-10,2.22.8,2.95-1.23,4.47-2h13.67c2.9-2.3,2.9-2.3,5.64-.21,3,1.13,6.53-.92,9.42,1.39,1.91,1.53,5,1.48,5.88,4.4-1.34,3.59-2.78,7.24-6.05,9.44-2.81,1.89-6,3.19-9.61,5h-7.12c-3,2-4.49,5.76-8.51,6.45a4,4,0,0,0-2.56,2.78c-.06,2-1.36,2.85-2.4,4.06-1.9,2.22-4.88,3.65-5.68,6.63s-3.51,3.82-4.91,6c-.5.76-.74,1.69-1.17,2.51-3.71,7.09-3.75,7.05-12.79,13.65a52.75,52.75,0,0,0-5,4.79C376.36,391.15,372.76,391.72,370.13,393.29Z"/><path class="cls-1" d="M878.27,419.3v-6.63l-8.92-5.09-3.46,3.68c-.65,2.38,1.46,4.93-.67,6.87-2.37-1.4-2.73-4.26-4.37-6s-4.16-2.65-6.63-4.12h-7.28l-1.7-1.7-2,1.8-2.87-2.19L836,408.3l-3.15-1.85c-1.33,2.84-4.25,1-5.58,2.72l-5,3.61c-.12,2.23-.19,3.51-.24,4.53l-3.8,3.81a17.08,17.08,0,0,1,6.15,4.15c1.86,1.74,3,4.34,5.92,5s3.8,3.42,6,5.11c-4.35,2.63-4.71,8.6-9.76,11H823l-8,8-2.89-.6V437.58c2.68-1.64,1.49-4.71,2.57-6.93.28-.56.92-.95,1.41-1.45v-10l-1.94-2.1v-6c2.41-3.23,7-3.48,9.06-7.05h15.08c1.93-.89,3-1.65,4.19-1.88,2.15-.43,4.72.84,6.3-1.71,3-.1,4.36-2.53,6.3-4.29H859l2.2-2.06h8l2.61-5.1-3.6-6.26V363.22l1.66-1.91-3.69-6.75c0-4.33.18-8.68-.12-13-.09-1.35-1.49-2.62-2.25-3.86l2.35-2.56V325.4l2.42-3.16L866.4,319l1.87-2.25a53.72,53.72,0,0,0-.56-7.9,13.53,13.53,0,0,0-1.71-3.24c-1.24-2.18-3.33-3.87-4.73-5.39-4.15-.26-7.86.72-10.83-2.07-3.41,1-5.64-3.49-9.18-2l-4.6-4.38c-2.42,1.65-3.89-.94-5.94-1.48-2.46-.64-5.21-.15-7.06-.15-4.19-2.78-7.76-4.77-12.27-3.91l-4.7-4.44c-1.18,1.57-2.37,3.15-3.5,4.67-3.88-1.4-6.56,1.16-9.62,1.55s-4.93,1.36-5.43,4.38c.73,3.13,3.83,3.07,5.73,4.57,3,2.36,6.4.37,9.53,1.42l3.75,3.76h8.59c4,0,8-.11,12,.07,1.15.05,2.26.92,3.39,1.42,3.15,1.41,7.21-1.18,10,2.48h4.08l2.67,2.93c1.27,3.13-1.42,7.21,2.28,10.07,0,7.89,0,15.87,0,23.85,0,.26-.36.51-.56.76a15.93,15.93,0,0,0-2.69.74A10.48,10.48,0,0,0,845,346c-3-2.21-3-2.21-5.84.18h-5.91l-2.14,1.94-2.06-1.8c-3,2.41-3.35,2.46-4.91.88v-3.95l1.93-2.09V329.06c-.8-2.2-3.83-2.42-4.08-5.38s-3.79-2.93-5.65-4.32c-.21-1-.4-1.92-.64-3.1-1.85.21-3.05-.69-4.37-1.7-.86-.65-2.6,0-3.77-.45a21.91,21.91,0,0,1-3.88-2.3l-2.53,2.31c-.69-.64-1.41-1.29-2.17-2h-5.82L791,310.22c-2.62-.63-3.6,2.88-6.36,2.06-1.36-.4-3.3-.74-4.52.94v29.92l-2,2.2c.38,1.57-.56,3.24.85,4.71,2.08,2.15,1.08,4.85.94,7.38-2.5,1.55-1.63,4.06-1.73,6.27-.06,1.28,0,2.56,0,3.48-.83.84-1.31,1.31-1.76,1.76v24.48l1.7,1.69-1.94,2.13v7.9l-2.06,2.22v7.79l-1.75,2.08,2,2.46v19.67l1.7,1.7-1.89,2.21c0,3.46,0,7.11,0,10.76a6.52,6.52,0,0,0,.59,1.8l1.39,1.33v10c3.72,2.74,1.1,6.81,2.27,10.26,2,2,3.77,4.72,6.31,6,2.35,1.21,4,3.36,6.21,4.26,4.59,1.89,8.76,4.56,13.35,6.46l5.66-2.89c.2-1,.39-1.9.57-2.79,5.22.11,8.72-3.68,13.19-4.92l1.18-3.42h2.33c4.52-5.31,11-9.11,13-16.57a6,6,0,0,1,1.77-2.25c4.38-4.41,8.78-8.8,13.39-13.41l9.56,9.77c1.37.58,2.64.7,3,1.33,3.15,5.49,3.11,5.52,6.8,7.07,1.25-.92,2.47-1.8,3.59-2.61-2.48-3.28-2.44-3.26-1-5.51a16.72,16.72,0,0,0,1.07-2.48l-2.16-2.35,1.91-2.05V440c-2.09-5-7.12-5.39-9.83-8.67,0-1.58-.64-3.23.44-4.71,1.88-1.16,2.8.43,4.19,1.16s3.06.36,4.46.47c.66-1.59.9-2.94,1.67-3.8s2.53.3,2.89-1.48Zm-55.16-55.08H829l2.17-2h12l2.82,3V377c-2,3.13-5.09,5.33-10.18,7.05H819c-.38-.42-.78-.66-.78-.91,0-4.63,0-9.27,0-13.91Z"/><path class="cls-1" d="M782.32,108.66,774,101.82V97.4a57.42,57.42,0,0,1-3.84-4.91,46.81,46.81,0,0,1-2.5-5.32c1.86-1.69,3.35-4.07,5.34-4.61a8.21,8.21,0,0,0,5.16-4c-.06-1.22-.12-2.51-.23-4.65-3.12,1.41-4-1.29-5.71-2.66.43-2.41-1.53-3.44-2.83-4.82-2-2.19-4.13-4.33-6.12-6.41-2.24.91-2.95-1.19-4.35-1.69-2.35,1.86-2.35,1.86-4.64.84l-.55-2.51c-4.07-1.8-7.12.53-10.25,1.71-1.61-1.51-3-2.84-4.38-4.14l-2.51,2.15c-.33-2.23-.61-4.06-.87-5.81l-2.94-.76c-1.17-1.18-2.35-2.36-3.67-3.67a16.07,16.07,0,0,0-3.79,0c-2.85.68-4.91-1-7.18-2s-4.33-2.75-7.18-2a16.7,16.7,0,0,1-3.87,0c-2.28,3.07-5.36,1.85-8.19,1.78-1.25-2.09-3.33-2.07-5.25-1.72-2.29.41-3.4-1.62-5.19-2s-4.47.35-5.66-.67c-1.76-1.53-4.62-1-5.67-3.37-2.95.38-4.87-3.61-8.69-1.44-2.24,1.83-2.81,1.94-4.12.63-.22-1.07-.41-2-.56-2.75-3.31-1.43-4.11,1.36-5.56,2.7v5.82c.68.84,1.24,1.51,1.78,2.17a13.47,13.47,0,0,1-2.3,2.22,19.74,19.74,0,0,1-3.38,1.26c-.16,2.45-.65,4.72.54,7.41,1.07,3.32,5.26.86,7.38,3a4.9,4.9,0,0,0,2.57.95,3.93,3.93,0,0,0,3.56-1.09c.85-.79,2.43-.77,3.31-1.54,1.06-.93,2-1.67,3.52-1.28,1.12,1.12,2.11,2.64,3.51,3.41a30,30,0,0,0,9.39,3.15v3.45l-3.92,2.44c1.3,1.62,2.13,2.65,2.85,3.56h10.17l2.92,2.91v4.07l-4.84,2.39-3.78-1.76-9.35,9.33c0,.78-.07,1.43-.12,2.3l-3.41,1.2c-.4,1.16-.81,2.32-1.65,4.72-.63-3.24-1-5.26-1.54-7.88-1.89,3.88-3,5.16-6.41,7l-2.57-3.64c3.07-1.91,1-5.34,2.1-7.75,1.64-4.63,7-4.56,9.58-8a27.27,27.27,0,0,1,0-3,1.6,1.6,0,0,0-1.61-2c-1.94-.12-3.89,0-4.65,0-5.29,2.87-5.86,8.19-9.51,10.77-1.14,3.44,1.48,7.5-2.26,10.25,0,4.33,0,8.66,0,13a7,7,0,0,1-.82,2H653c-1.73,2-3.64,3.21-4.49,4.77l2.17,4c-2.57,1.15-4.77,2.89-7,2.95-2.85.07-4,1.73-5.49,3.31v5.85l1.75,2.09-1.65,2.1c.68.69,1.15,1.16,1.63,1.63-.47,1.42-2.59,2.11-1.79,4.08a17.63,17.63,0,0,1,8,6.49c.29,1.56-.7,3.38,1,4.63h2.68c-.42,3.76,2.92,5.22,5,7.64,4.06.45,5.61,4.2,8.46,6.36h5.19l4.46,5.93,4.39.2,3.87,3.88c2.2,0,4.53-.11,6.83.06.85.06,1.62.87,2.47,1.22a59.84,59.84,0,0,1,8.95,4.48c2.75-2.32,2.77-2.33,5.51,0h8.52c1.39-1.41,2.56-2.59,3.71-3.77h12.65l3.21-4.12h6.29c3.22-3,3.85-7.78,8.55-9.88h7.43c2.55-5.24,5.12-10.51,7.75-15.89h1.85l7.17-4.7c.13-2.31.21-3.59.27-4.63.54-.4.77-.68,1.06-.76,2.94-.84,3.38-1.53,2.22-3.57-1.65-2.91-1.65-2.91.61-5.63v-4.16c3.31-1.28,3.4-5.12,5.61-7.48C782.51,112.6,782.13,110.84,782.32,108.66ZM739.46,132l-5.55,4.07-4.88.22-3.87,3.88c-3.43,0-7.11-.38-10.68.11s-5.64-3.61-9.1-2.13c-3.11-1.24-2.75-5-5.25-7,3.13-3.13,5.62-5.83,8.34-8.27,2.35-2.11,3.76-5.56,7.65-5v-2.69l9-9h3.6l7.41,6.9v5.24C737.9,122.33,741.53,125.69,739.46,132Z"/><path class="cls-1" d="M235.27,74.15,233.11,76l-2.21-1.84c-2.53,0-5,.44-7.16-.11-2.76-.7-3.79,2.1-6.18,2.24-2.81.16-4.31-3.16-7.18-2.15a3.46,3.46,0,0,1-1.08,0l-2.06,1.87c-3.41.76-7.34-1.46-10.13,2L195,76.23a3.82,3.82,0,0,1-4.27,1.93c-2-.45-2.64,1.6-4.16,2.07a31.21,31.21,0,0,0-4.21,1.94c-2.56.27-5.21-.48-7.49.29-.72.73-1.19,1.2-1.69,1.69h-5.92l-4.32,4.12H159c-1.37,2.15-1.48,5.12-4.2,5.84l-3.82.21c-1.68,1.69-3.1,3.1-4.51,4.51-.23.9-.47,1.81-.78,3a8,8,0,0,0-2.6.47c-1.92,1-3.58,2.81-5.59,3.36-2.47.67-5.18.44-7.79.51-2.29.07-4.59,0-5.68,0-2.72,1.4-4.44,2.15-6,3.14s-2.3,3.43-4.82,2.86c-1,1.22-2.57,2.29-3,3.69-1.32,4.47-5.33,4.93-8.7,6.24-1.72.67-3.89-.66-5.54,1.16-1.27,1.39-3.82.83-4.8,2.85-2.67-.1-4,1.61-5.12,3.85.78,1.57,1.6,3.21,2.39,4.81-3.74,2.67-7.5,4-12.08,3.34v6.82a49.79,49.79,0,0,0-3.86,3.9c-3.84,4.83-9.87,5.14-15,7.27-1.69.71-3.79-.56-5.56,1.12-1.56,1.48-3.79,2-5.59,3.45-2.6,2.1-5.65,4.08-9.41,3.66l-2.84,2.84,2.94,2.91h4c1.84-.93,2.65-3.56,5.11-4,2.64,1.63,2.64,1.78,0,5L49,174.17c-4.79-.85-7.95,1.28-11,3.32-1.65,1.09-3.2.31-4.81.76-.64.58-1.35,1.23-2.07,1.87-.9-1.32-2.74-1.91-3-4.41l2-2.65c-1.14-1.59-2.95-.62-4.84-.95-1.72,1.71-3.48,3.67-5.45,5.39-2.17,1.89-1.82,5.63-5.64,6.82H9c-.94,1.48-2.95,2-2.8,4.09,1.46,2.07,2.71,4.26,1.87,6.71l-2.74,3c-1.75.4-3.53-.66-4.8.7-1.59,3.66,1.13,6.24,2.44,8.84S7,212,9.1,214.12a29.49,29.49,0,0,0,2.16,2c.2.17.7-.08,1,0,1.95.92,3.88,1.9,5.8,2.85.83,2-.79,3-2,4.29l3.16,1.19,3.22-4.32H38.22c3.18-1.57,5.73-2.71,8.17-4.05,5.24-2.88,11.21-4.7,14.59-10h6.11c.82-.7,1.48-1.65,2.33-1.9,1.22-.35,2.65,0,3.88-.31.85-.24,1.44-1.47,2.28-1.68a14,14,0,0,1,3.57-.08c2.17-2.17,3.88-4.3,6-5.82.86-.61,2.24-.73,3.38-1.43,1.89-1.14,4-1.68,5.52-3.6a36.71,36.71,0,0,1,4.21-4.25,7.41,7.41,0,0,1,1.61-.9h3c1.66,1.49,4,2.6,3.25,5.5l6,12.61v3.07c3.3,2.16,4.23,6,6.11,9.25,1.71,3,2.47,6.74,6,8.42-1.22,1.31-2.84,2.23-1.91,4.51l3.38,1.19c.31,1.79.63,3.62.94,5.42h2.36c2.33,3.72,3.4,8.22,7.09,11-.46,2.7,3,4.3,2,7.17s2.55,4.38,2.06,7.17a3.85,3.85,0,0,0,.91,2.57c1.38,1.73,1.29,4.35,3.49,5.57s1.15,4.44,3.53,5.53a10,10,0,0,1,1.26.78h6l2.62-2.8V260L153.27,257,156,253.1l-1.8-2c-.36-1.49.7-3.25-.75-4.71l-5-.56v-6.29l-2.08-2.44,1.87-2.33c-4.23-2.21-4.19-7.51-8.09-9.64v-4l-2.88-2.88c-2.22-.37-4.57.53-7-.82l1.9-2.41c0-1.55.64-3.85-.15-5.4-1.05-2.05-2.26-3.84-1.81-6.4-1.81-1.81-3.94-3.49-5.47-5.61-1.23-1.7-1.29-4.35-2.67-5.81-2-2.14-1.62-4.72-2.52-7.63-3.82-.47-2.65-5.19-5.33-7.2-.29-.21,0-1.24.08-2.11,1.08-.38,2.51-.49,3.35-1.25,3-2.68,5.28-6.32,8.63-8.23a41.74,41.74,0,0,0,9.62-8,17.84,17.84,0,0,1,6.26-4.23c2-.83,3.76-2.33,5.8-2.86s3.76-1.89,4.09-3.63c.6-3.22,2.5-4.29,5.31-4.65,1.42-3,5-.78,6.87-2.84-.66-2,.83-3.1,2.1-4.06s2.83-1.29,4.05-2.2a30.94,30.94,0,0,0,3.56-3.5c3.51-3.64,7.63-5.7,12.83-5.28.44,0,.94-.72,1.61-1.28-.33-.79-.64-1.66-1.05-2.48s-.92-1.59-1.45-2.49a11.49,11.49,0,0,1,2-2.31c2.39-1.55,5-2.71,7-4.89.94-1,2.92-.77,4.11-2.14.72-.83,2.28-.87,3.31-1.51,2.42-1.48,3.33-5.12,7-4.91,2.12-2.12,4.41-4.1,6.32-6.4s4.55-3.44,7-4.88c1.05-.61,2.4-.77,3.36-1.48a29.11,29.11,0,0,0,3.15-3.06c2.09-.37,3.9.61,5.11-1.14V79.63l4-2.08ZM174.78,119.7l-2.27-2.12c-.09-2.64,2.61-.56,3.39-2a21.16,21.16,0,0,1,2.77-3.51c2.25.48,4-.55,5.33,1A16.8,16.8,0,0,1,174.78,119.7Z"/><path class="cls-1" d="M618.18,279c-2.17-1.56-5.56.48-7-3.07H600.93l-1.77-1.77H583.71l-6.78-3.78L573.38,274h-8.45l-1.77-1.77c-1.85,0-4.21-.67-5.71.18s-3.33,1.66-5,2.49c-3,1.54-5.76,3.94-9.36,3.55-1.06,1-2,1.88-3,2.74v3.79l-2.21,3c1.55,3.23,4,5.85.6,9-.94.86-.58,2.31-.7,2.31,3,1.47,4.81.13,6.13,1.72.09,3.78.09,3.78-1.77,6.19v8.1c1.1,1,2.54,2,1.87,4-1.26.86-1.86,2.68-4.34,3l-2.8-2.08h-3.71l-2.2-2.06h-7.9l-2.87-2.87c2.79-3.38,3.28-8.2,6.91-11.07h4c.69-1.36,1.3-2.78,2.09-4.1s2.74-1.91,2.94-3.94c-1.75-3.26-2.85-7.27-6.4-9.12-2.12-1.11-4-3.11-6.8-2.88-2,.16-4,0-5.8,0-6.2-4-6.2-4-10.53-4h-7c-1.78,2.38-4.61,1.77-7.34,2.54v7.65c-1.63,2.74-2.48,4.88-4,6.42s-1.71,3.47-2.86,4.79c-1.51,1.74-1.1,4.47-3.3,5.62.61.68,1.22,1.38,1.64,1.84-1.3,2.35-2.5,4.53-3.72,6.71,0,4.65,0,9.31,0,14,0,2.36,2.15,7.54,3.92,9.36,2.32,2.38,4.7,4.72,7.07,7.08h2l2.95,3a13.26,13.26,0,0,1-2.63,2.56c-1.79,1-.74,3.13-2.09,4.17-3,2.32-.22,3.86.89,5.9v6.62c1.8,3.63,3.16,6.4,4.46,9l8.87,4.47h16.13c.12-3.08,2.16-4.82,4.12-6.42,5.14-4.18,7.84-9.85,10.31-15.74a21.64,21.64,0,0,1,1.77-2.92c-3.67-1.67-7.06-3.34-11.12-2.76-1.49.21-3.32.71-4.51-.73.63-1.13,1.25-2.19,1.83-3.27.29-.54.5-1.61.76-1.61,4.17-.09,4.73-3.66,6.23-6.31h2.26l.47-1.38,8.43-8.5,1.65.42q.18,3.19.37,6.74c3.49,2,4.1,6.29,6.94,9.08,3,3,7.42,4.07,9.82,7.64h10l2.11-1.93,1.7,1.69h20.37l2-1.61c2.54,2.55,4.87,4.93,7.28,7.23.4.39,1.14.42,2,.71,2.29-1.09,3.63-3.48,5.6-5.18V345.21l2.06-2.27v-14.1c1.61-5.56,6.52-8.71,2.08-13.64l1.8-2.06v-3.83c.68-.75,1.33-1.47,2-2.15l-1.63-1.85,3.9-7.08V287.79l2-3.93C622.79,281.09,620.2,280.46,618.18,279Zm-30.52,58.55c0,.67-1.3,1.41-2,2.11-.26.17-.52.47-.79.48-2.63,0-5.26,0-7.71,0l-1.61-1.62a9.82,9.82,0,0,1-8.78,1.23,58.74,58.74,0,0,1-2.54-5.91c-.37-1.22-.61-3.05,0-3.9,3.07-4.13,1.43-8.69,2-12.75L564,315l4.77-2.71h2.54c2.07,2.27-.22,5.25,1.56,7.61l4.55.52,3.67,3.68h5.88l2.81,2.64a12.42,12.42,0,0,1,.4,1.88C590.39,331.86,587.47,334.25,587.66,337.57Zm9.48-17.42c-1.69-1.52-.65-3.29-1.06-5.17a11.49,11.49,0,0,1-3.18-1.15,33.86,33.86,0,0,1-3.66-3.56H585c-1.07-1.35-2.31-2.88-3.28-4.09h-8.56l-5-5v-4l2-2.1v-6l5-5h4l2.1,2h5.92l2.08-1.94h4l3,5.83c-.29,2.57-3,3.34-4,5.2v4c2.23,2.06,5.13.17,7.7,1.22v12.86l-1.62,2,2.13,2.13Z"/><path class="cls-1" d="M237.19,482.18a20.47,20.47,0,0,0,2.73-2.86,7.58,7.58,0,0,0,.6-2.68c5.36-.29,9.34-3.56,13.79-5.66,4.27-2,8.91-3.55,11.81-8.11v-3.56l2.06-2.22v-5.94c3.24-2.06,1.42-5.42,2.13-8.13,1.18-1.17,2.36-2.35,3.58-3.58.22-1.51-.06-3.47.78-4.56a5.57,5.57,0,0,0,1.48-4.41c-.23-1.63,1.7-2.19,1.8-3.22a5.55,5.55,0,0,1,2.2-4.06V411.11c-1.89-1.93-2.22,1.33-3.78,1.15-2.21-.25-3.48,2.73-6.18,2-1.92-.53-2.88,2-5.09,2.2-1.93.17-3.64,3-5.56,3.14-3.27.26-5.71,2.66-9,2.66-1.13,0-2.26.93-4.28,1.84h-7c-2.07-1.09-2.93-4.37-6.16-4l-2.19-3.93c-2.46.38-3.23-1.88-4.74-3l5-4.94,2.07,1.88a5.83,5.83,0,0,0,2-.05,3.52,3.52,0,0,0,1.42-1.37c1.47-2.34,4.31-2.59,6.37-4.07,1.35-1,3.79-.43,6.32-.6,1-1,2.2-3.11,3.85-3.59s2.83-1.92,4.11-2.07c1.93-.22,2.9-1.26,4.08-2.35.7-.66,1.48-1.74,2.23-1.75,5.69-.08,9.49-4.58,14.52-6,1.86-.52,2.47-2,3.94-2.88v-6l2.85-3h12c3.35,2.14,3.35,2.14,6.46-.31,1.88.18,4.58-.31,6.21.78,2.09,1.4,5.32,1.12,6.35,4.08-.83,1.77-3.25,3.22-.54,5.59,1.36,1.19,1.35,2.11.05,3.26-2.86,2.51-.42,3.93.85,5.84a48.6,48.6,0,0,1-2.5,5.84c-.62,1.09-1.92,1.82-1.59,3.34.59,2.75-1.51,4.9-1.75,7.19s-1.52,4.13-2.32,6.11c-1.8,4.45-1.92,4.4-2,10.46-1.13,2.2-1.66,4.19-2.91,5.43-1.75,1.71-.4,3.81-1.28,5.44L298.31,443c-.56,1.78.58,3.92-1.38,5.44s.29,4.42-2.05,6.2c-1.33,1-1.37,3.31-2.82,4.8-1.68,1.74-2.63,4.18-3.9,6.32,1,3.21-1.53,4.71-3.22,6.67-1.2,1.41-.91,3.75-2.81,4.83v9.23c-1.16,2.25-1.79,4.06-2.91,5.51-1.36,1.76-1.35,4.23-3.43,5.64-1.63,1.09-2.87,2.76-4.51,4.39l-4.19.2c-1.06,1.06-2.22,3-3.88,3.64s-3,1-4,2.29c-1.24,1.55-2.45,3.11-3.32,4.22-2.57-.49-4.38.46-5.62-1.17s-3-.86-4-1l-15.89-15.89v-6.73c-1-1.33-1.93-2-2.07-2.88s.51-2.41.91-2.45C231.81,482.07,234.49,482.18,237.19,482.18Z"/><path class="cls-1" d="M470.16,483c-.05-.69-.1-1.33-.16-2.17l-3.62-1.29V461a32.24,32.24,0,0,1,4.27-4.14c1.82-1.28,1.17-3.54,2.69-5a3.59,3.59,0,0,0,.07-5.23c-1.56-1.44-.79-3.76-2.69-5-2.44-1.55-3-4.44-4.17-6.88,2.12-1.34,4.5-.06,6.18-.64,2.27-1.35,4-2.78,6.06-3.46a17.11,17.11,0,0,1,5.78-.47c2.19.05,4.37-.53,6.4,1.54,1.37,1.41,4.63-.45,6,2.32h12.16a33.81,33.81,0,0,1,3,3.54,26.36,26.36,0,0,1,1.68,4.24v11.69c-3.59,2.28.41,7.35-3.58,9.51v6.07l1.92,2.09v3.93l-2,2.17v5.84l-2,2.25v11.85l-3.94,3.93v6.06c-1.77,1.56-3.48.65-5,.89l-6-6h-6.08c-1.3-1.62-.38-4.66-3.57-4-2.66-2.73-5.86-4.8-7.5-8.67C474.9,487,472.15,485.13,470.16,483Z"/><path class="cls-1" d="M584.16,217.22c.68-.74,1.36-1.45,2.05-2.19v-3.9c.28-.29.5-.7.76-.73,2.22-.28,5,.25,6.54-.91,1.9-1.43,3.64-1.34,5.55-1.22.73,0,1.41,1.22,2.14,1.91h6l1.75,1.75h8.17c2,3.76,6.24,1.34,8.69,4.11,1.7,1.92,5.28,1.71,7.3,4.06h6.64c.49.64,1.89,1.63,2,2.73.26,3,2.84,4.21,4.41,6.52v5.74a23,23,0,0,1-8.09,6.4c-1.37.72-3.27.21-4.21,2a16.52,16.52,0,0,1-2.2,2.77h-4.27c-1.69,1.43-3.1,2.8-4.7,3.9a10.82,10.82,0,0,1-4.15,2c-1.92.3-4-.15-5.22,2l-2.15-1.94c-1.93,0-4.46-.75-5.77.19a29.71,29.71,0,0,1-5,2.54c-4.44,2.11-8.41,5.35-13.6,5.74-.5,0-.94.88-1.49,1.43l-2.14-1.87h-7.71c-4.58-3.24-7-8.91-12.75-10.54-.16-.25-.47-.51-.48-.77,0-2.64,0-5.27,0-7.71l3-3h8l2.08-2c2.65-1.23,3.46,3.47,6.17,1.75,1.78-2,0-4.49,1.53-7.5-.09.11.58-.61,1.26-1.34Z"/><path class="cls-1" d="M614.21,497.23v-9.89l-4-4.22,7.87-7.87v-7.88l4.06-4.25v-8c-4.31-1.26-6.68-4.94-9.75-7.74v-4.5c2.65-2.31,3.53.76,5.59,1.4l7.84-4h15.65l4.47,5.53c0,1.86,1.24,4.86-1.67,7.24l1.83,2.16v19.71c1.64,1.27,1.74,3.36,2.78,4.85a15.49,15.49,0,0,0,3.36,2.87v6.61l1.7,1.71v8.45c-2.27,1.21-1.7,3.34-1.81,5.86l-8,6.89v5c-1,1.41-2.4.87-3.65,1l-6.61-3.3c-1.47-2.82-5.13-2.42-7-4.88a57.47,57.47,0,0,0-5.58-5.68C619,502,616.61,499.62,614.21,497.23Z"/><path class="cls-1" d="M299.43,262.18c3-4.92,8.36-6.62,13-9.33,2.2-1.27,4.49-.36,6.68-.67l2-1.88c1.51,0,3-.41,4.1.08,2.26,1,4.16,3.11,6.46,3.64,2.85.65,6,.16,9.45.16l6,6c3.76-.38,4.49,3.5,7,4.87v10l2,2.17v10c-1.28,1.87-3.94,2.57-4,5.4,0,1.88-1.71,1.37-2.92,1.68-.83.2-1.45,1.26-2.07,1.85h-9.56c-2.28-1.35-4.38-2.22-6-3.66a18.8,18.8,0,0,0-4.84-2.84c-1.94-.93-2.71-3.81-5.58-3.52-.28,0-1-1-.94-1.5.14-2-1.65-2.69-2.63-4.05-2.76-.19-5.35-1-8.21,1.09-1.82,1.36-4.94,1.19-7.27-.52-2.78-2-6.52-2.25-9-4.89-.3-.34-1.28-.05-1.8-.05L284.19,269v-3.88c2.14-2.31,3.45-.49,4.86.91,1.56-2.14,4.57-1.82,6.39-3.78C296.05,261.62,298,262.18,299.43,262.18Z"/><g class="cls-2"><path class="cls-1" d="M184,113a16.8,16.8,0,0,1-9.22,6.69l-2.27-2.12c-.09-2.64,2.61-.56,3.39-2a21.16,21.16,0,0,1,2.77-3.51C180.92,112.5,182.69,111.47,184,113Z"/></g></g></g></svg>