<svg xmlns="http://www.w3.org/2000/svg" xmlns:xlink="http://www.w3.org/1999/xlink" viewBox="0 0 356.75 358.72"><defs><style>.cls-1{isolation:isolate;}.cls-10,.cls-11,.cls-12,.cls-13,.cls-14,.cls-15,.cls-16,.cls-17,.cls-18,.cls-19,.cls-2,.cls-20,.cls-21,.cls-22,.cls-23,.cls-24,.cls-25,.cls-26,.cls-27,.cls-28,.cls-29,.cls-3,.cls-30,.cls-31,.cls-32,.cls-33,.cls-34,.cls-35,.cls-36,.cls-37,.cls-38,.cls-39,.cls-4,.cls-40,.cls-41,.cls-5,.cls-6,.cls-7,.cls-8,.cls-9{fill:none;stroke-miterlimit:10;stroke-width:0.25px;}.cls-2{stroke:url(#linear-gradient);}.cls-3{stroke:url(#linear-gradient-2);}.cls-4{stroke:url(#linear-gradient-3);}.cls-5{stroke:url(#linear-gradient-4);}.cls-6{stroke:url(#linear-gradient-5);}.cls-7{stroke:url(#linear-gradient-6);}.cls-8{stroke:url(#linear-gradient-7);}.cls-9{stroke:url(#linear-gradient-8);}.cls-10{stroke:url(#linear-gradient-9);}.cls-11{stroke:url(#linear-gradient-10);}.cls-12{stroke:url(#linear-gradient-11);}.cls-13{stroke:url(#linear-gradient-12);}.cls-14{stroke:url(#linear-gradient-13);}.cls-15{stroke:url(#linear-gradient-14);}.cls-16{stroke:url(#linear-gradient-15);}.cls-17{stroke:url(#linear-gradient-16);}.cls-18{stroke:url(#linear-gradient-17);}.cls-19{stroke:url(#linear-gradient-18);}.cls-20{stroke:url(#linear-gradient-19);}.cls-21{stroke:url(#linear-gradient-20);}.cls-22{stroke:url(#linear-gradient-21);}.cls-23{stroke:url(#linear-gradient-22);}.cls-24{stroke:url(#linear-gradient-23);}.cls-25{stroke:url(#linear-gradient-24);}.cls-26{stroke:url(#linear-gradient-25);}.cls-27{stroke:url(#linear-gradient-26);}.cls-28{stroke:url(#linear-gradient-27);}.cls-29{stroke:url(#linear-gradient-28);}.cls-30{stroke:url(#linear-gradient-29);}.cls-31{stroke:url(#linear-gradient-30);}.cls-32{stroke:url(#linear-gradient-31);}.cls-33{stroke:url(#linear-gradient-32);}.cls-34{stroke:url(#linear-gradient-33);}.cls-35{stroke:url(#linear-gradient-34);}.cls-36{stroke:url(#linear-gradient-35);}.cls-37{stroke:url(#linear-gradient-36);}.cls-38{stroke:url(#linear-gradient-37);}.cls-39{stroke:url(#linear-gradient-38);}.cls-40{stroke:url(#linear-gradient-39);}.cls-41{stroke:url(#linear-gradient-40);}</style><linearGradient id="linear-gradient" x1="125.94" y1="189.17" x2="349.97" y2="189.17" gradientUnits="userSpaceOnUse"><stop offset="0" stop-color="#cd5b1c"/><stop offset="0.5" stop-color="#a21c26"/><stop offset="0.62" stop-color="#971e42"/><stop offset="0.78" stop-color="#8b1f63"/><stop offset="0.91" stop-color="#832177"/><stop offset="1" stop-color="#80217e"/></linearGradient><linearGradient id="linear-gradient-2" x1="244.01" y1="129.89" x2="338.41" y2="129.89" xlink:href="#linear-gradient"/><linearGradient id="linear-gradient-3" x1="186.98" y1="208.05" x2="348.22" y2="208.05" xlink:href="#linear-gradient"/><linearGradient id="linear-gradient-4" x1="200.92" y1="179.86" x2="287.62" y2="179.86" xlink:href="#linear-gradient"/><linearGradient id="linear-gradient-5" x1="267.83" y1="189.25" x2="317.79" y2="189.25" xlink:href="#linear-gradient"/><linearGradient id="linear-gradient-6" x1="230.46" y1="171.64" x2="349.97" y2="171.64" xlink:href="#linear-gradient"/><linearGradient id="linear-gradient-7" x1="296.81" y1="91.93" x2="343.41" y2="91.93" xlink:href="#linear-gradient"/><linearGradient id="linear-gradient-8" x1="277.23" y1="143.17" x2="356.75" y2="143.17" xlink:href="#linear-gradient"/><linearGradient id="linear-gradient-9" x1="285.26" y1="155.64" x2="356.34" y2="155.64" xlink:href="#linear-gradient"/><linearGradient id="linear-gradient-10" x1="285.26" y1="122.34" x2="333.82" y2="122.34" xlink:href="#linear-gradient"/><linearGradient id="linear-gradient-11" x1="44.03" y1="62.93" x2="297.36" y2="62.93" xlink:href="#linear-gradient"/><linearGradient id="linear-gradient-12" x1="202.57" y1="27.51" x2="296.97" y2="27.51" xlink:href="#linear-gradient"/><linearGradient id="linear-gradient-13" x1="116.16" y1="33.06" x2="277.4" y2="33.06" xlink:href="#linear-gradient"/><linearGradient id="linear-gradient-14" x1="155.65" y1="38.2" x2="285.17" y2="38.2" xlink:href="#linear-gradient"/><linearGradient id="linear-gradient-15" x1="88.74" y1="31.3" x2="285.04" y2="31.3" xlink:href="#linear-gradient"/><linearGradient id="linear-gradient-16" x1="34.15" y1="129.37" x2="285.17" y2="129.37" xlink:href="#linear-gradient"/><linearGradient id="linear-gradient-17" x1="197.57" y1="65.47" x2="244.17" y2="65.47" xlink:href="#linear-gradient"/><linearGradient id="linear-gradient-18" x1="107.63" y1="97.94" x2="187.14" y2="97.94" xlink:href="#linear-gradient"/><linearGradient id="linear-gradient-19" x1="35.98" y1="77.02" x2="284.9" y2="77.02" xlink:href="#linear-gradient"/><linearGradient id="linear-gradient-20" x1="65.4" y1="119.71" x2="284.9" y2="119.71" xlink:href="#linear-gradient"/><linearGradient id="linear-gradient-21" x1="59.4" y1="295.79" x2="312.73" y2="295.79" xlink:href="#linear-gradient"/><linearGradient id="linear-gradient-22" x1="79.35" y1="325.66" x2="240.59" y2="325.66" xlink:href="#linear-gradient"/><linearGradient id="linear-gradient-23" x1="59.78" y1="331.21" x2="154.18" y2="331.21" xlink:href="#linear-gradient"/><linearGradient id="linear-gradient-24" x1="71.59" y1="320.51" x2="201.1" y2="320.51" xlink:href="#linear-gradient"/><linearGradient id="linear-gradient-25" x1="71.72" y1="327.41" x2="268.01" y2="327.41" xlink:href="#linear-gradient"/><linearGradient id="linear-gradient-26" x1="71.59" y1="229.35" x2="322.61" y2="229.35" xlink:href="#linear-gradient"/><linearGradient id="linear-gradient-27" x1="169.61" y1="260.78" x2="249.12" y2="260.78" xlink:href="#linear-gradient"/><linearGradient id="linear-gradient-28" x1="112.58" y1="293.24" x2="159.18" y2="293.24" xlink:href="#linear-gradient"/><linearGradient id="linear-gradient-29" x1="71.85" y1="281.7" x2="320.77" y2="281.7" xlink:href="#linear-gradient"/><linearGradient id="linear-gradient-30" x1="71.86" y1="239" x2="291.36" y2="239" xlink:href="#linear-gradient"/><linearGradient id="linear-gradient-31" x1="6.78" y1="169.54" x2="230.82" y2="169.54" xlink:href="#linear-gradient"/><linearGradient id="linear-gradient-32" x1="8.53" y1="150.67" x2="169.77" y2="150.67" xlink:href="#linear-gradient"/><linearGradient id="linear-gradient-33" x1="18.34" y1="228.82" x2="112.75" y2="228.82" xlink:href="#linear-gradient"/><linearGradient id="linear-gradient-34" x1="69.13" y1="178.85" x2="155.84" y2="178.85" xlink:href="#linear-gradient"/><linearGradient id="linear-gradient-35" x1="38.96" y1="169.46" x2="88.92" y2="169.46" xlink:href="#linear-gradient"/><linearGradient id="linear-gradient-36" x1="6.78" y1="187.07" x2="126.29" y2="187.07" xlink:href="#linear-gradient"/><linearGradient id="linear-gradient-37" x1="0" y1="215.55" x2="79.52" y2="215.55" xlink:href="#linear-gradient"/><linearGradient id="linear-gradient-38" x1="13.34" y1="266.79" x2="59.94" y2="266.79" xlink:href="#linear-gradient"/><linearGradient id="linear-gradient-39" x1="0.41" y1="203.07" x2="71.49" y2="203.07" xlink:href="#linear-gradient"/><linearGradient id="linear-gradient-40" x1="22.93" y1="236.37" x2="71.49" y2="236.37" xlink:href="#linear-gradient"/></defs><title>Asset 1</title><g id="Layer_2" data-name="Layer 2"><g id="Layer_1-2" data-name="Layer 1"><g class="cls-1"><path class="cls-2" d="M285,62.86C256.22,99.44,185,181.51,126.11,245.8c74.15,65.63,157.66,89.09,186.52,52.4C371.46,233.91,359.21,128.38,285.3,63,285.25,63,285.12,63,285,62.86Z"/><path class="cls-3" d="M244.09,112.26c37.45,33.16,79.64,45,94.22,26.47"/><path class="cls-4" d="M187.06,177.93c64,56.67,136.13,76.93,161.06,45.25"/><path class="cls-5" d="M285.12,63c12.46,64.6-25.28,169.47-84.11,233.76"/><path class="cls-6" d="M285.23,63c49.3,75,41.52,188.24-17.31,252.53"/><path class="cls-7" d="M285.3,63c73.91,65.43,86.16,171,27.33,235.25,28.86-36.7-7.84-119.65-82-185.28,58.83-64.29,83.3-86.85,54.53-50.27C285.29,62.75,285.35,62.89,285.3,63Z"/><path class="cls-8" d="M338.31,138.73c14.58-18.53-4-60.44-41.42-93.59"/><path class="cls-9" d="M348.12,223.18c24.92-31.69-6.78-103.32-70.8-160"/><path class="cls-10" d="M285.31,62.87c78.35,38,94.2,121.28,35.37,185.57"/><path class="cls-11" d="M285.27,62.76c62.14,1.44,64.83,54.92,6,119.21"/><path class="cls-12" d="M285.17,62.65c28.77-36.58,4.3-14-54.53,50.27C156.49,47.28,73,23.82,44.12,60.51,103-3.78,211-2.87,284.86,62.56,284.91,62.5,285,62.54,285.17,62.65Z"/><path class="cls-13" d="M296.89,45.14C259.44,12,217.25.13,202.67,18.66"/><path class="cls-14" d="M277.32,63.18c-64-56.67-136.14-76.93-161.06-45.25"/><path class="cls-15" d="M285,62.56C272.58-2,214.58-2.28,155.74,62"/><path class="cls-16" d="M284.93,62.53C235.63-12.42,147.66-21.08,88.83,43.2"/><path class="cls-17" d="M284.86,62.56C211-2.87,103-3.78,44.12,60.51c-28.86,36.7,7.85,119.65,82,185.29C185,181.51,256.22,99.44,285,62.86,284.87,62.76,284.81,62.62,284.86,62.56Z"/><path class="cls-18" d="M202.67,18.66c-14.58,18.54,4,60.45,41.42,93.6"/><path class="cls-19" d="M116.26,17.93c-24.92,31.69,6.77,103.32,70.8,160"/><path class="cls-20" d="M284.85,62.64C206.5,24.61,94.91,46,36.08,110.27"/><path class="cls-21" d="M284.89,62.75c-62.14-1.44-160.57,49.7-219.4,114"/><path class="cls-22" d="M126.11,245.8c-58.84,64.29-83.3,86.84-54.52,50.27.12.1.26.14.3.08,73.92,65.43,181.9,66.35,240.74,2.05C283.77,334.89,200.26,311.43,126.11,245.8Z"/><path class="cls-23" d="M79.43,295.53c64,56.68,136.14,76.94,161.06,45.25"/><path class="cls-24" d="M59.86,313.58c37.46,33.15,79.64,45,94.22,26.47"/><path class="cls-25" d="M201,296.71c-58.84,64.3-116.84,64.05-129.3-.56"/><path class="cls-26" d="M267.92,315.51c-58.84,64.3-146.8,55.63-196.1-19.33"/><path class="cls-27" d="M312.63,298.2c-58.84,64.3-166.82,63.38-240.74-2.05,0-.06,0-.19-.13-.3,28.77-36.58,100-118.64,158.88-182.93C304.79,178.55,341.49,261.5,312.63,298.2Z"/><path class="cls-28" d="M240.49,340.78c24.92-31.68-6.77-103.31-70.8-160"/><path class="cls-29" d="M154.08,340.05c14.58-18.54-4-60.44-41.42-93.6"/><path class="cls-30" d="M320.68,248.44c-58.84,64.3-170.43,85.66-248.77,47.63"/><path class="cls-31" d="M291.26,182C232.42,246.27,134,297.4,71.86,296"/><path class="cls-32" d="M230.64,112.92C171.8,177.21,100.53,259.27,71.76,295.85c-.12-.11-.26-.15-.31-.09C-2.46,230.33-14.72,124.81,44.12,60.51,73,23.82,156.49,47.28,230.64,112.92Z"/><path class="cls-33" d="M169.69,180.79c-64-56.68-136.13-76.93-161.06-45.25"/><path class="cls-34" d="M112.66,246.45C75.21,213.3,33,201.44,18.44,220"/><path class="cls-35" d="M155.74,62C96.9,126.3,59.18,231.16,71.64,295.76"/><path class="cls-36" d="M88.83,43.2C30,107.5,22.23,220.78,71.53,295.73"/><path class="cls-37" d="M44.12,60.51c-58.84,64.3-46.58,169.82,27.33,235.25,0,.06,0,.2.14.31-28.78,36.57-4.32,14,54.52-50.27C52,180.16,15.26,97.21,44.12,60.51Z"/><path class="cls-38" d="M8.63,135.54c-24.92,31.69,6.78,103.32,70.8,160"/><path class="cls-39" d="M18.44,220c-14.58,18.54,4,60.44,41.42,93.6"/><path class="cls-40" d="M36.08,110.27c-58.85,64.3-43,147.54,35.36,185.57"/><path class="cls-41" d="M65.49,176.74C6.65,241,9.34,294.51,71.49,296"/></g></g></g></svg>