<svg xmlns="http://www.w3.org/2000/svg" viewBox="0 0 1286.67 1385"><defs><style>.cls-1{fill:#d7bc90;}.cls-2{fill:#bd9c69;}.cls-3{fill:#caa66d;}.cls-4{fill:#a48b60;}.cls-5{fill:#947b52;}.cls-6{fill:#786343;}.cls-7{fill:#6e5837;}.cls-8{fill:#645032;}.cls-9{fill:#5c492a;}.cls-10{fill:#524026;}.cls-11{fill:#423522;}.cls-12{fill:#3b301f;}.cls-13{fill:#352b1d;}.cls-14{fill:#2d251b;}.cls-15{fill:#231e17;}</style></defs><title>Kolo_2</title><g id="Layer_2" data-name="Layer 2"><g id="Layer_2-2" data-name="Layer 2"><path class="cls-1" d="M1286.67,682.62c0,355.3-352.62,879.31-643.33,643.34S0,1037.92,0,682.62,415.14-139,643.34,39.28,1286.67,327.32,1286.67,682.62Z"/><path class="cls-2" d="M1240.16,692.5c0,329.61-327.13,815.73-596.82,596.82S46.52,1022.11,46.52,692.5,431.64-69.74,643.34,95.68,1240.16,362.89,1240.16,692.5Z"/><path class="cls-3" d="M1198.42,693.14c0,306.56-304.25,758.68-555.08,555.08S88.26,999.7,88.26,693.14,446.44-15.8,643.34,138.06,1198.42,386.58,1198.42,693.14Z"/><path class="cls-4" d="M1150.11,667.88c0,279.89-277.77,692.66-506.77,506.78S136.56,947.77,136.56,667.88s327-647.23,506.78-506.77S1150.11,388,1150.11,667.88Z"/><path class="cls-5" d="M1131.06,670.18c0,269.36-267.32,666.62-487.72,487.72S155.61,939.54,155.61,670.18,470.33,47.26,643.34,182.45,1131.06,400.81,1131.06,670.18Z"/><path class="cls-6" d="M1089.72,671.81c0,246.53-244.67,610.12-446.38,446.39S197,918.34,197,671.81,485,101.7,643.34,225.42,1089.72,425.28,1089.72,671.81Z"/><path class="cls-7" d="M1070.21,673.11c0,235.76-234,583.46-426.87,426.88S216.46,908.87,216.46,673.11s275.46-545.2,426.88-426.88S1070.21,437.35,1070.21,673.11Z"/><path class="cls-8" d="M1043.74,673.52c0,221.13-219.47,547.26-400.4,400.4S242.93,894.65,242.93,673.52s258.38-511.39,400.41-400.4S1043.74,452.38,1043.74,673.52Z"/><path class="cls-9" d="M1006.58,675.09c0,200.61-199.1,496.47-363.24,363.24S280.1,875.7,280.1,675.09,514.49,211.16,643.34,311.85,1006.58,474.47,1006.58,675.09Z"/><path class="cls-10" d="M967.09,676.69c0,178.81-177.45,442.52-323.75,323.76s-323.76-145-323.76-323.76S528.5,263.2,643.34,352.94,967.09,497.89,967.09,676.69Z"/><path class="cls-11" d="M923,678.37C923,832.81,769.7,1060.57,643.34,958S363.71,832.81,363.71,678.37,544.15,321.23,643.34,398.74,923,523.94,923,678.37Z"/><path class="cls-12" d="M871.87,681.16c0,126.21-125.26,312.36-228.53,228.53S414.8,807.37,414.8,681.16,562.27,389.28,643.34,452.62,871.87,554.94,871.87,681.16Z"/><path class="cls-13" d="M843.07,682.6c0,110.31-109.47,273-199.73,199.73S443.6,792.91,443.6,682.6,572.49,427.5,643.34,482.86,843.07,572.29,843.07,682.6Z"/><path class="cls-14" d="M820.31,684c0,97.74-97,241.89-177,177s-177-79.23-177-177,114.2-226,177-177S820.31,586.21,820.31,684Z"/><path class="cls-15" d="M782.69,685.53c0,77-76.38,190.46-139.35,139.35S504,762.49,504,685.53s89.92-178,139.35-139.36S782.69,608.56,782.69,685.53Z"/></g></g></svg>